<svg width="23" height="31" viewBox="0 0 23 31" fill="none" xmlns="http://www.w3.org/2000/svg">
<path d="M11.1548 19.1224C9.82681 19.1224 8.69805 18.6577 7.76849 17.7281C6.83893 16.7985 6.37415 15.6698 6.37415 14.3418V4.78061C6.37415 3.45266 6.83893 2.32391 7.76849 1.39434C8.69805 0.464782 9.82681 0 11.1548 0C12.4827 0 13.6115 0.464782 14.541 1.39434C15.4706 2.32391 15.9354 3.45266 15.9354 4.78061V14.3418C15.9354 15.6698 15.4706 16.7985 14.541 17.7281C13.6115 18.6577 12.4827 19.1224 11.1548 19.1224ZM9.56122 30.2772V25.3771C6.79909 25.0052 4.51502 23.7703 2.70901 21.6721C0.903004 19.5739 0 17.1305 0 14.3418H3.18707C3.18707 16.5462 3.96419 18.4255 5.51842 19.9798C7.07265 21.534 8.95143 22.3106 11.1548 22.3095C13.3591 22.3095 15.2385 21.5324 16.7927 19.9782C18.3469 18.4239 19.1235 16.5452 19.1224 14.3418H22.3095C22.3095 17.1305 21.4065 19.5739 19.6005 21.6721C17.7945 23.7703 15.5104 25.0052 12.7483 25.3771V30.2772H9.56122ZM11.1548 15.9354C11.6063 15.9354 11.985 15.7824 12.2909 15.4764C12.5969 15.1705 12.7494 14.7923 12.7483 14.3418V4.78061C12.7483 4.32911 12.5953 3.95038 12.2894 3.64442C11.9834 3.33846 11.6052 3.18601 11.1548 3.18707C10.7033 3.18707 10.3245 3.34005 10.0186 3.64601C9.71261 3.95197 9.56016 4.33017 9.56122 4.78061V14.3418C9.56122 14.7933 9.7142 15.1721 10.0202 15.478C10.3261 15.784 10.7043 15.9364 11.1548 15.9354Z" fill="#FFB800"/>
</svg>
