<svg width="23" height="23" viewBox="0 0 23 23" fill="none" xmlns="http://www.w3.org/2000/svg">
<path d="M20.0049 0.976624C19.3599 0.976347 18.7323 1.18541 18.2164 1.5724C17.7004 1.95939 17.324 2.50338 17.1437 3.12263C16.9634 3.74187 16.989 4.4029 17.2166 5.00636C17.4442 5.60982 17.8615 6.12311 18.4058 6.46908L16.4613 13.2747C16.401 13.2709 16.3405 13.2689 16.28 13.2687C15.639 13.268 15.0151 13.4751 14.5017 13.859L10.9094 10.8654C11.0794 10.3608 11.1112 9.8198 11.0013 9.29877C10.8915 8.77774 10.644 8.29567 10.2846 7.9027C9.9253 7.50974 9.46723 7.22024 8.95808 7.06432C8.44893 6.9084 7.9073 6.89177 7.38954 7.01614C6.87178 7.14051 6.3968 7.40135 6.01402 7.77152C5.63124 8.14169 5.35465 8.60767 5.21301 9.12097C5.07137 9.63428 5.06986 10.1762 5.20864 10.6902C5.34742 11.2043 5.62142 11.6718 6.00213 12.0441L3.8933 16.262C3.80095 16.2532 3.70824 16.2488 3.61547 16.2486C2.90159 16.2477 2.21103 16.5027 1.66916 16.9675C1.12728 17.4323 0.770005 18.0759 0.662172 18.7816C0.554339 19.4873 0.7031 20.2083 1.08145 20.8136C1.45981 21.419 2.04267 21.8687 2.72426 22.081C3.40584 22.2933 4.14095 22.2542 4.79617 21.9708C5.45139 21.6874 5.98328 21.1785 6.29529 20.5364C6.6073 19.8943 6.67876 19.1616 6.49669 18.4713C6.31462 17.781 5.89109 17.1789 5.30298 16.7743L7.29578 12.7892C7.77986 12.9227 8.28988 12.9314 8.77825 12.8146C9.26663 12.6977 9.71743 12.459 10.0886 12.1207L13.5667 15.0192C13.3305 15.5397 13.249 16.1172 13.3319 16.6827C13.4147 17.2482 13.6585 17.778 14.0341 18.2088C14.4097 18.6396 14.9013 18.9534 15.4502 19.1126C15.9991 19.2718 16.5823 19.2698 17.1301 19.1067C17.678 18.9437 18.1673 18.6266 18.5399 18.1932C18.9125 17.7598 19.1526 17.2283 19.2316 16.6622C19.3105 16.0962 19.225 15.5193 18.9852 15.0005C18.7455 14.4816 18.3615 14.0427 17.8792 13.736L19.8236 6.93036C19.8836 6.93399 19.9439 6.93641 20.0049 6.93641C20.7952 6.93641 21.5532 6.62246 22.112 6.06362C22.6708 5.50478 22.9848 4.74684 22.9848 3.95652C22.9848 3.1662 22.6708 2.40825 22.112 1.84941C21.5532 1.29058 20.7952 0.976624 20.0049 0.976624ZM3.61547 20.7184C3.32079 20.7184 3.03272 20.631 2.7877 20.4673C2.54268 20.3036 2.35171 20.0709 2.23894 19.7987C2.12617 19.5264 2.09666 19.2268 2.15415 18.9378C2.21164 18.6488 2.35355 18.3833 2.56192 18.1749C2.77029 17.9666 3.03578 17.8247 3.3248 17.7672C3.61382 17.7097 3.9134 17.7392 4.18565 17.8519C4.4579 17.9647 4.6906 18.1557 4.85432 18.4007C5.01803 18.6457 5.10542 18.9338 5.10542 19.2285C5.10498 19.6235 4.94786 20.0022 4.66853 20.2815C4.38921 20.5609 4.01049 20.718 3.61547 20.7184ZM8.08531 11.4063C7.79063 11.4063 7.50256 11.3189 7.25754 11.1552C7.01252 10.9914 6.82155 10.7587 6.70878 10.4865C6.59601 10.2142 6.5665 9.91466 6.62399 9.62563C6.68148 9.33661 6.82339 9.07113 7.03176 8.86276C7.24013 8.65438 7.50562 8.51248 7.79464 8.45499C8.08366 8.3975 8.38324 8.42701 8.65549 8.53978C8.92774 8.65255 9.16044 8.84352 9.32416 9.08854C9.48788 9.33356 9.57526 9.62162 9.57526 9.91631C9.57482 10.3113 9.4177 10.69 9.13837 10.9694C8.85905 11.2487 8.48033 11.4058 8.08531 11.4063ZM16.28 17.7385C15.9853 17.7385 15.6973 17.6511 15.4523 17.4874C15.2072 17.3237 15.0163 17.091 14.9035 16.8188C14.7907 16.5465 14.7612 16.2469 14.8187 15.9579C14.8762 15.6689 15.0181 15.4034 15.2265 15.195C15.4348 14.9867 15.7003 14.8448 15.9893 14.7873C16.2784 14.7298 16.5779 14.7593 16.8502 14.8721C17.1225 14.9848 17.3551 15.1758 17.5189 15.4208C17.6826 15.6658 17.77 15.9539 17.77 16.2486C17.7695 16.6436 17.6124 17.0223 17.3331 17.3016C17.0538 17.581 16.675 17.7381 16.28 17.7385ZM20.0049 5.44647C19.7102 5.44647 19.4221 5.35908 19.1771 5.19536C18.9321 5.03165 18.7411 4.79895 18.6284 4.5267C18.5156 4.25444 18.4861 3.95487 18.5436 3.66584C18.6011 3.37682 18.743 3.11134 18.9513 2.90297C19.1597 2.69459 19.4252 2.55269 19.7142 2.4952C20.0032 2.43771 20.3028 2.46722 20.5751 2.57999C20.8473 2.69276 21.08 2.88373 21.2437 3.12875C21.4075 3.37377 21.4948 3.66184 21.4948 3.95652C21.4944 4.35154 21.3373 4.73026 21.058 5.00958C20.7786 5.2889 20.3999 5.44602 20.0049 5.44647Z" fill="white"/>
</svg>
