<svg width="25" height="23" viewBox="0 0 25 23" fill="none" xmlns="http://www.w3.org/2000/svg">
<path d="M20.6176 18.5L24 22M1 1H22.6471M1 9.4H6.41176M1 17.8H6.41176M10.4706 13.6C10.4706 15.0852 11.0408 16.5096 12.0557 17.5598C13.0706 18.61 14.4471 19.2 15.8824 19.2C17.3176 19.2 18.6941 18.61 19.709 17.5598C20.724 16.5096 21.2941 15.0852 21.2941 13.6C21.2941 12.1148 20.724 10.6904 19.709 9.6402C18.6941 8.59 17.3176 8 15.8824 8C14.4471 8 13.0706 8.59 12.0557 9.6402C11.0408 10.6904 10.4706 12.1148 10.4706 13.6Z" stroke="#717EA0" stroke-width="2" stroke-linecap="round" stroke-linejoin="round"/>
</svg>
