<svg width="28" height="27" viewBox="0 0 28 27" fill="none" xmlns="http://www.w3.org/2000/svg">
<path d="M13.8104 2.34912C19.9821 2.34912 24.985 7.35199 24.985 13.5237C24.985 19.6955 19.9821 24.6983 13.8104 24.6983C7.63861 24.6983 2.63574 19.6955 2.63574 13.5237C2.63574 7.35199 7.63861 2.34912 13.8104 2.34912ZM13.8104 4.58404C11.4394 4.58404 9.16555 5.5259 7.48904 7.20242C5.81252 8.87893 4.87066 11.1528 4.87066 13.5237C4.87066 15.8947 5.81252 18.1685 7.48904 19.845C9.16555 21.5216 11.4394 22.4634 13.8104 22.4634C16.1813 22.4634 18.4551 21.5216 20.1317 19.845C21.8082 18.1685 22.75 15.8947 22.75 13.5237C22.75 11.1528 21.8082 8.87893 20.1317 7.20242C18.4551 5.5259 16.1813 4.58404 13.8104 4.58404ZM13.8104 6.81896C14.0841 6.819 14.3482 6.91949 14.5528 7.10136C14.7573 7.28324 14.888 7.53386 14.92 7.80568L14.9278 7.93643V13.0611L17.9528 16.0861C18.1532 16.2872 18.2695 16.557 18.2782 16.8408C18.2869 17.1246 18.1872 17.401 17.9994 17.6139C17.8117 17.8269 17.5499 17.9604 17.2672 17.9873C16.9846 18.0142 16.7023 17.9326 16.4777 17.7589L16.3727 17.6662L13.0203 14.3138C12.8466 14.1399 12.7351 13.9137 12.7029 13.6701L12.6929 13.5237V7.93643C12.6929 7.64006 12.8106 7.35583 13.0202 7.14626C13.2298 6.9367 13.514 6.81896 13.8104 6.81896Z" fill="white"/>
</svg>
