<svg width="48" height="48" viewBox="0 0 48 48" fill="none" xmlns="http://www.w3.org/2000/svg">
<path d="M16.6667 2H4.44444C3.79614 2 3.17438 2.25754 2.71596 2.71596C2.25754 3.17438 2 3.79614 2 4.44444V16.6667C2 17.315 2.25754 17.9367 2.71596 18.3951C3.17438 18.8536 3.79614 19.1111 4.44444 19.1111H16.6667C17.315 19.1111 17.9367 18.8536 18.3951 18.3951C18.8536 17.9367 19.1111 17.315 19.1111 16.6667V4.44444C19.1111 3.79614 18.8536 3.17438 18.3951 2.71596C17.9367 2.25754 17.315 2 16.6667 2ZM16.6667 28.8889H4.44444C3.79614 28.8889 3.17438 29.1464 2.71596 29.6049C2.25754 30.0633 2 30.685 2 31.3333V43.5556C2 44.2039 2.25754 44.8256 2.71596 45.284C3.17438 45.7425 3.79614 46 4.44444 46H16.6667C17.315 46 17.9367 45.7425 18.3951 45.284C18.8536 44.8256 19.1111 44.2039 19.1111 43.5556V31.3333C19.1111 30.685 18.8536 30.0633 18.3951 29.6049C17.9367 29.1464 17.315 28.8889 16.6667 28.8889ZM43.5556 2H31.3333C30.685 2 30.0633 2.25754 29.6049 2.71596C29.1464 3.17438 28.8889 3.79614 28.8889 4.44444V16.6667C28.8889 17.315 29.1464 17.9367 29.6049 18.3951C30.0633 18.8536 30.685 19.1111 31.3333 19.1111H43.5556C44.2039 19.1111 44.8256 18.8536 45.284 18.3951C45.7425 17.9367 46 17.315 46 16.6667V4.44444C46 3.79614 45.7425 3.17438 45.284 2.71596C44.8256 2.25754 44.2039 2 43.5556 2ZM43.5556 28.8889H31.3333C30.685 28.8889 30.0633 29.1464 29.6049 29.6049C29.1464 30.0633 28.8889 30.685 28.8889 31.3333V43.5556C28.8889 44.2039 29.1464 44.8256 29.6049 45.284C30.0633 45.7425 30.685 46 31.3333 46H43.5556C44.2039 46 44.8256 45.7425 45.284 45.284C45.7425 44.8256 46 44.2039 46 43.5556V31.3333C46 30.685 45.7425 30.0633 45.284 29.6049C44.8256 29.1464 44.2039 28.8889 43.5556 28.8889Z" stroke="#4C5A81" stroke-width="4" stroke-linejoin="round"/>
</svg>
