<svg width="59" height="65" viewBox="0 0 59 65" fill="none" xmlns="http://www.w3.org/2000/svg">
<path d="M6.81156 64.3137C5.04721 64.3137 3.53629 63.685 2.27879 62.4275C1.0213 61.17 0.393619 59.6601 0.395757 57.8979V12.9874C0.395757 11.223 1.02451 9.71209 2.282 8.4546C3.5395 7.1971 5.04935 6.56942 6.81156 6.57156H10.0195V0.155762H16.4353V6.57156H42.0984V0.155762H48.5142V6.57156H51.7221C53.4865 6.57156 54.9974 7.20031 56.2549 8.4578C57.5124 9.7153 58.1401 11.2252 58.1379 12.9874V57.8979C58.1379 59.6623 57.5092 61.1732 56.2517 62.4307C54.9942 63.6882 53.4843 64.3159 51.7221 64.3137H6.81156ZM6.81156 57.8979H51.7221V25.819H6.81156V57.8979ZM6.81156 19.4032H51.7221V12.9874H6.81156V19.4032ZM29.2668 38.6505C28.3579 38.6505 27.5955 38.3426 26.9796 37.7267C26.3637 37.1108 26.0568 36.3494 26.0589 35.4426C26.0589 34.5337 26.3669 33.7713 26.9828 33.1554C27.5987 32.5395 28.3601 32.2326 29.2668 32.2348C30.1758 32.2348 30.9382 32.5427 31.5541 33.1586C32.17 33.7745 32.4769 34.5359 32.4747 35.4426C32.4747 36.3516 32.1668 37.114 31.5509 37.7299C30.935 38.3458 30.1736 38.6527 29.2668 38.6505ZM16.4353 38.6505C15.5263 38.6505 14.7639 38.3426 14.148 37.7267C13.5321 37.1108 13.2252 36.3494 13.2274 35.4426C13.2274 34.5337 13.5353 33.7713 14.1512 33.1554C14.7671 32.5395 15.5285 32.2326 16.4353 32.2348C17.3442 32.2348 18.1066 32.5427 18.7225 33.1586C19.3384 33.7745 19.6453 34.5359 19.6432 35.4426C19.6432 36.3516 19.3352 37.114 18.7193 37.7299C18.1034 38.3458 17.342 38.6527 16.4353 38.6505ZM42.0984 38.6505C41.1895 38.6505 40.4271 38.3426 39.8112 37.7267C39.1953 37.1108 38.8884 36.3494 38.8905 35.4426C38.8905 34.5337 39.1985 33.7713 39.8144 33.1554C40.4303 32.5395 41.1917 32.2326 42.0984 32.2348C43.0073 32.2348 43.7698 32.5427 44.3857 33.1586C45.0016 33.7745 45.3085 34.5359 45.3063 35.4426C45.3063 36.3516 44.9984 37.114 44.3825 37.7299C43.7666 38.3458 43.0052 38.6527 42.0984 38.6505ZM29.2668 51.4821C28.3579 51.4821 27.5955 51.1742 26.9796 50.5583C26.3637 49.9424 26.0568 49.181 26.0589 48.2742C26.0589 47.3653 26.3669 46.6029 26.9828 45.987C27.5987 45.3711 28.3601 45.0642 29.2668 45.0663C30.1758 45.0663 30.9382 45.3743 31.5541 45.9902C32.17 46.6061 32.4769 47.3675 32.4747 48.2742C32.4747 49.1831 32.1668 49.9456 31.5509 50.5615C30.935 51.1774 30.1736 51.4843 29.2668 51.4821ZM16.4353 51.4821C15.5263 51.4821 14.7639 51.1742 14.148 50.5583C13.5321 49.9424 13.2252 49.181 13.2274 48.2742C13.2274 47.3653 13.5353 46.6029 14.1512 45.987C14.7671 45.3711 15.5285 45.0642 16.4353 45.0663C17.3442 45.0663 18.1066 45.3743 18.7225 45.9902C19.3384 46.6061 19.6453 47.3675 19.6432 48.2742C19.6432 49.1831 19.3352 49.9456 18.7193 50.5615C18.1034 51.1774 17.342 51.4843 16.4353 51.4821ZM42.0984 51.4821C41.1895 51.4821 40.4271 51.1742 39.8112 50.5583C39.1953 49.9424 38.8884 49.181 38.8905 48.2742C38.8905 47.3653 39.1985 46.6029 39.8144 45.987C40.4303 45.3711 41.1917 45.0642 42.0984 45.0663C43.0073 45.0663 43.7698 45.3743 44.3857 45.9902C45.0016 46.6061 45.3085 47.3675 45.3063 48.2742C45.3063 49.1831 44.9984 49.9456 44.3825 50.5615C43.7666 51.1774 43.0052 51.4843 42.0984 51.4821Z" fill="white"/>
</svg>
