<svg width="20" height="22" viewBox="0 0 20 22" fill="none" xmlns="http://www.w3.org/2000/svg">
<path d="M0.322296 11.561H2.6902C2.86301 11.561 3.00779 11.4209 3.00779 11.2434V7.55848C3.00779 6.6384 3.75039 5.89581 4.66579 5.89581H14.2729V8.38981C14.2729 8.65603 14.5764 8.80081 14.7819 8.63735L19.8774 4.63479C20.0408 4.50869 20.0408 4.26116 19.8774 4.13506L14.7819 0.132498C14.5764 -0.030967 14.2729 0.118487 14.2729 0.380031V2.87404H4.66112C2.08772 2.87404 0.00470754 4.96639 0.00470754 7.54914V11.2341C0.00470754 11.4209 0.14482 11.561 0.322296 11.561ZM0.126139 17.8614L5.22158 21.864C5.42707 22.0275 5.73065 21.878 5.73065 21.6165V19.1225H15.3377C17.9111 19.1225 19.9941 17.0301 19.9941 14.4474V10.7624C19.9941 10.5896 19.854 10.4448 19.6766 10.4448H17.3086C17.1358 10.4448 16.9911 10.5849 16.9911 10.7624V14.4474C16.9911 15.3674 16.2485 16.11 15.3331 16.11H5.73065V13.616C5.73065 13.3498 5.42707 13.205 5.22158 13.3685L0.126139 17.371C-0.0373262 17.4878 -0.0373262 17.7353 0.126139 17.8614Z" fill="#4A5996"/>
</svg>
