<svg width="18" height="24" viewBox="0 0 18 24" fill="none" xmlns="http://www.w3.org/2000/svg">
<path d="M17.5662 10.5561C17.5662 10.4437 17.4742 10.3517 17.3618 10.3517H15.8291C15.7167 10.3517 15.6247 10.4437 15.6247 10.5561C15.6247 14.1401 12.7202 17.0446 9.1362 17.0446C5.55218 17.0446 2.64766 14.1401 2.64766 10.5561C2.64766 10.4437 2.5557 10.3517 2.4433 10.3517H0.910575C0.798175 10.3517 0.706211 10.4437 0.706211 10.5561C0.706211 14.8656 3.94026 18.4215 8.11439 18.9248V21.5406H4.40264C4.05266 21.5406 3.77166 21.9059 3.77166 22.3581V23.2777C3.77166 23.3901 3.84319 23.4821 3.93005 23.4821H14.3424C14.4292 23.4821 14.5007 23.3901 14.5007 23.2777V22.3581C14.5007 21.9059 14.2197 21.5406 13.8698 21.5406H10.0558V18.9376C14.2785 18.4777 17.5662 14.9014 17.5662 10.5561ZM9.1362 14.8988C11.5349 14.8988 13.4789 12.9778 13.4789 10.6072V4.88501C13.4789 2.51439 11.5349 0.593378 9.1362 0.593378C6.73749 0.593378 4.79348 2.51439 4.79348 4.88501V10.6072C4.79348 12.9778 6.73749 14.8988 9.1362 14.8988ZM6.73493 4.88501C6.73493 3.59241 7.80529 2.53483 9.1362 2.53483C10.4671 2.53483 11.5375 3.59241 11.5375 4.88501V10.6072C11.5375 11.8998 10.4671 12.9574 9.1362 12.9574C7.80529 12.9574 6.73493 11.8998 6.73493 10.6072V4.88501Z" fill="#6AAFE0"/>
</svg>
