<svg width="29" height="14" viewBox="0 0 29 14" fill="none" xmlns="http://www.w3.org/2000/svg">
<path d="M18.5205 1.86077C18.5205 2.87491 19.3435 3.69798 20.3577 3.69798H22.0479L17.1168 8.62905C17.06 8.68609 16.9924 8.73133 16.918 8.76221C16.8436 8.79308 16.7638 8.80897 16.6833 8.80897C16.6027 8.80897 16.523 8.79308 16.4486 8.76221C16.3742 8.73133 16.3066 8.68609 16.2497 8.62905L12.3646 4.74397C11.5607 3.94069 10.4708 3.48945 9.33442 3.48945C8.19801 3.48945 7.1081 3.94069 6.30425 4.74397L0.687281 10.3609C0.506777 10.5291 0.362 10.732 0.261585 10.9573C0.161171 11.1827 0.107177 11.426 0.102825 11.6726C0.0984726 11.9193 0.14385 12.1644 0.236252 12.3931C0.328654 12.6219 0.466187 12.8297 0.640645 13.0042C0.815104 13.1786 1.02291 13.3162 1.25168 13.4086C1.48044 13.501 1.72548 13.5463 1.97216 13.542C2.21884 13.5376 2.46212 13.4836 2.68749 13.3832C2.91285 13.2828 3.11568 13.138 3.28387 12.9575L8.90084 7.34056C8.95773 7.28353 9.02531 7.23828 9.09971 7.20741C9.17411 7.17653 9.25387 7.16064 9.33442 7.16064C9.41497 7.16064 9.49473 7.17653 9.56914 7.20741C9.64354 7.23828 9.71112 7.28353 9.768 7.34056L13.6531 11.2256C14.4569 12.0289 15.5469 12.4802 16.6833 12.4802C17.8197 12.4802 18.9096 12.0289 19.7134 11.2256L24.6445 6.29702V7.98481C24.6445 8.47207 24.8381 8.93937 25.1826 9.28391C25.5272 9.62845 25.9945 9.82202 26.4817 9.82202C26.969 9.82202 27.4363 9.62845 27.7808 9.28391C28.1254 8.93937 28.3189 8.47207 28.3189 7.98481V1.86077C28.3189 1.37351 28.1254 0.906211 27.7808 0.561667C27.4363 0.217123 26.969 0.0235596 26.4817 0.0235596H20.3577C19.8704 0.0235596 19.4031 0.217123 19.0586 0.561667C18.714 0.906211 18.5205 1.37351 18.5205 1.86077Z" fill="#707070"/>
<path d="M18.5205 1.86077C18.5205 2.87491 19.3435 3.69798 20.3577 3.69798H22.0479L17.1168 8.62905C17.06 8.68609 16.9924 8.73133 16.918 8.76221C16.8436 8.79308 16.7638 8.80897 16.6833 8.80897C16.6027 8.80897 16.523 8.79308 16.4486 8.76221C16.3742 8.73133 16.3066 8.68609 16.2497 8.62905L12.3646 4.74397C11.5607 3.94069 10.4708 3.48945 9.33442 3.48945C8.19801 3.48945 7.1081 3.94069 6.30425 4.74397L0.687281 10.3609C0.506777 10.5291 0.362 10.732 0.261585 10.9573C0.161171 11.1827 0.107177 11.426 0.102825 11.6726C0.0984726 11.9193 0.14385 12.1644 0.236252 12.3931C0.328654 12.6219 0.466187 12.8297 0.640645 13.0042C0.815104 13.1786 1.02291 13.3162 1.25168 13.4086C1.48044 13.501 1.72548 13.5463 1.97216 13.542C2.21884 13.5376 2.46212 13.4836 2.68749 13.3832C2.91285 13.2828 3.11568 13.138 3.28387 12.9575L8.90084 7.34056C8.95773 7.28353 9.02531 7.23828 9.09971 7.20741C9.17411 7.17653 9.25387 7.16064 9.33442 7.16064C9.41497 7.16064 9.49473 7.17653 9.56914 7.20741C9.64354 7.23828 9.71112 7.28353 9.768 7.34056L13.6531 11.2256C14.4569 12.0289 15.5469 12.4802 16.6833 12.4802C17.8197 12.4802 18.9096 12.0289 19.7134 11.2256L24.6445 6.29702V7.98481C24.6445 8.47207 24.8381 8.93937 25.1826 9.28391C25.5272 9.62845 25.9945 9.82202 26.4817 9.82202C26.969 9.82202 27.4363 9.62845 27.7808 9.28391C28.1254 8.93937 28.3189 8.47207 28.3189 7.98481V1.86077C28.3189 1.37351 28.1254 0.906211 27.7808 0.561667C27.4363 0.217123 26.969 0.0235596 26.4817 0.0235596H20.3577C19.8704 0.0235596 19.4031 0.217123 19.0586 0.561667C18.714 0.906211 18.5205 1.37351 18.5205 1.86077Z" fill="#707070"/>
</svg>
