<svg width="77" height="42" viewBox="0 0 77 42" fill="none" xmlns="http://www.w3.org/2000/svg">
<path d="M7.3538 28.1315L9.07799 28.3729L24.8371 12.6138C24.5209 11.4558 24.5205 10.2343 24.8358 9.07612C25.1511 7.91792 25.7707 6.86524 26.6303 6.02737C29.32 3.30314 33.665 3.30314 36.3547 6.02737C38.1824 7.82053 38.7686 10.3723 38.1479 12.6138L47.0102 21.4761L48.7344 21.2347C49.3551 21.2347 49.9414 21.2347 50.4586 21.4761L62.7693 9.16539C62.528 8.64814 62.528 8.06191 62.528 7.4412C62.528 5.61207 63.2546 3.85785 64.548 2.56445C65.8414 1.27106 67.5956 0.544434 69.4247 0.544434C71.2539 0.544434 73.0081 1.27106 74.3015 2.56445C75.5949 3.85785 76.3215 5.61207 76.3215 7.4412C76.3215 9.27034 75.5949 11.0246 74.3015 12.318C73.0081 13.6113 71.2539 14.338 69.4247 14.338C68.804 14.338 68.2178 14.338 67.7005 14.0966L55.3898 26.4073C55.6312 26.9246 55.6312 27.5108 55.6312 28.1315C55.6312 29.9606 54.9046 31.7149 53.6112 33.0083C52.3178 34.3017 50.5636 35.0283 48.7344 35.0283C46.9053 35.0283 45.1511 34.3017 43.8577 33.0083C42.5643 31.7149 41.8376 29.9606 41.8376 28.1315L42.079 26.4073L33.2167 17.545C32.1132 17.7864 30.8718 17.7864 29.7683 17.545L14.0092 33.3041L14.2506 35.0283C14.2506 36.8574 13.5239 38.6116 12.2306 39.905C10.9372 41.1984 9.18294 41.925 7.3538 41.925C5.52466 41.925 3.77044 41.1984 2.47705 39.905C1.18365 38.6116 0.457031 36.8574 0.457031 35.0283C0.457031 33.1991 1.18365 31.4449 2.47705 30.1515C3.77044 28.8581 5.52466 28.1315 7.3538 28.1315Z" fill="white"/>
</svg>
