<svg width="280" height="314" viewBox="0 0 280 314" fill="none" xmlns="http://www.w3.org/2000/svg">
<path d="M107.847 150.174C107.847 156.095 103.047 160.895 97.1263 160.895V160.895C91.2055 160.895 86.4056 156.095 86.4056 150.174V150.174C86.4056 144.254 91.2055 139.454 97.1263 139.454V139.454C103.047 139.454 107.847 144.254 107.847 150.174V150.174ZM193.613 150.174C193.613 156.095 188.813 160.895 182.892 160.895V160.895C176.971 160.895 172.171 156.095 172.171 150.174V150.174C172.171 144.254 176.971 139.454 182.892 139.454V139.454C188.813 139.454 193.613 144.254 193.613 150.174V150.174ZM268.657 139.454C274.578 139.454 279.378 144.254 279.378 150.174V171.616C279.378 177.537 274.578 182.336 268.657 182.336V182.336C262.736 182.336 257.937 187.136 257.937 193.057V235.94C257.937 240.407 257.099 244.595 255.424 248.503C253.749 252.412 251.46 255.818 248.556 258.721C245.653 261.625 242.246 263.914 238.338 265.589C234.429 267.264 230.242 268.102 225.775 268.102H187.088C183.515 268.102 180.059 269.377 177.343 271.698L132.592 309.94C122.857 318.259 107.847 311.342 107.847 298.537V283.102C107.847 274.818 101.131 268.102 92.847 268.102H54.2436C49.7766 268.102 45.5889 267.264 41.6803 265.589C37.7717 263.914 34.3656 261.625 31.4621 258.721C28.5586 255.818 26.2693 252.412 24.5942 248.503C22.9191 244.595 22.0815 240.407 22.0815 235.94V193.057C22.0815 187.136 17.2817 182.336 11.3608 182.336V182.336C5.43995 182.336 0.640137 177.537 0.640137 171.616V150.174C0.640137 144.254 5.43995 139.454 11.3608 139.454V139.454C17.2817 139.454 22.0815 134.654 22.0815 128.733V107.292C22.0815 102.825 22.9191 98.6369 24.5942 94.7283C26.2693 90.8197 28.5586 87.4137 31.4621 84.5102C34.3656 81.6067 37.7717 79.3173 41.6803 77.6422C45.5889 75.9671 49.7766 75.1296 54.2436 75.1296H114.288C122.573 75.1296 129.288 68.4138 129.288 60.1296V48.714C129.288 43.3905 126.094 38.6989 122.963 34.3934C122.469 33.7145 122.009 32.9989 121.583 32.2468C119.684 28.8966 118.679 25.323 118.568 21.5261C118.568 18.5109 119.126 15.7191 120.243 13.1506C121.36 10.5821 122.867 8.34862 124.766 6.45017C126.664 4.55171 128.953 2.98828 131.634 1.75987C134.314 0.531455 137.106 -0.0269138 140.009 0.08476C143.024 0.08476 145.816 0.643129 148.385 1.75987C150.953 2.87661 153.187 4.3842 155.085 6.28266C156.984 8.18111 158.547 10.4704 159.775 13.1506C161.004 15.8308 161.562 18.6226 161.45 21.5261C161.45 25.323 160.501 28.8966 158.603 32.2468C158.181 32.9917 157.723 33.7006 157.229 34.3737C154.033 38.7293 150.73 43.4586 150.73 48.8608V60.1296C150.73 68.4139 157.445 75.1296 165.73 75.1296H225.775C230.242 75.1296 234.429 75.9671 238.338 77.6422C242.246 79.3173 245.653 81.6067 248.556 84.5102C251.46 87.4137 253.749 90.8197 255.424 94.7283C257.099 98.6369 257.937 102.825 257.937 107.292V128.733C257.937 134.654 262.736 139.454 268.657 139.454V139.454ZM236.495 107.292C236.495 104.388 235.434 101.875 233.313 99.7537C231.191 97.6318 228.678 96.5709 225.775 96.5709H54.2436C51.3401 96.5709 48.8274 97.6318 46.7056 99.7537C44.5838 101.875 43.5229 104.388 43.5229 107.292V235.94C43.5229 238.843 44.5838 241.356 46.7056 243.478C48.8274 245.6 51.3401 246.661 54.2436 246.661H117.355C123.946 246.661 129.288 252.003 129.288 258.594V258.594C129.288 268.786 141.24 274.287 148.982 267.659L169.3 250.266C172.018 247.939 175.477 246.661 179.055 246.661H225.775C228.678 246.661 231.191 245.6 233.313 243.478C235.434 241.356 236.495 238.843 236.495 235.94V107.292ZM86.3896 192.32C90.5548 188.108 97.304 188.183 102.122 191.628C106.129 194.494 110.438 196.869 115.05 198.753C122.979 201.991 131.299 203.666 140.009 203.778C148.72 203.778 157.039 202.159 164.968 198.92C169.576 197.038 173.882 194.647 177.886 191.746C182.708 188.254 189.501 188.146 193.688 192.38V192.38C197.816 196.554 197.837 203.342 193.22 206.968C187.097 211.777 180.415 215.683 173.176 218.686C162.679 223.042 151.623 225.219 140.009 225.219C128.507 225.219 117.507 223.042 107.009 218.686C99.7764 215.685 93.0735 211.783 86.9008 206.979C82.2403 203.353 82.2369 196.518 86.3896 192.32V192.32Z" fill="white"/>
</svg>
