<svg width="38" height="36" viewBox="0 0 38 36" fill="none" xmlns="http://www.w3.org/2000/svg">
<path d="M28.5 24.3C28.5 26.298 26.9627 27.9 25.0455 27.9C23.1282 27.9 21.5909 26.298 21.5909 24.3C21.5909 22.302 23.1455 20.7 25.0455 20.7C26.9455 20.7 28.5 22.32 28.5 24.3ZM12.9545 20.7C11.0545 20.7 9.5 22.32 9.5 24.3C9.5 26.28 11.0545 27.9 12.9545 27.9C14.8545 27.9 16.4091 26.298 16.4091 24.3C16.4091 22.302 14.8718 20.7 12.9545 20.7ZM38 23.4V28.8C38 29.79 37.2227 30.6 36.2727 30.6H34.5455V32.4C34.5455 34.398 33.0082 36 31.0909 36H6.90909C5.99289 36 5.11421 35.6207 4.46636 34.9456C3.81851 34.2705 3.45455 33.3548 3.45455 32.4V30.6H1.72727C0.777273 30.6 0 29.79 0 28.8V23.4C0 22.41 0.777273 21.6 1.72727 21.6H3.45455C3.45455 14.634 8.86091 9 15.5455 9H17.2727V6.714C16.2364 6.102 15.5455 4.932 15.5455 3.6C15.5455 1.62 17.1 0 19 0C20.9 0 22.4545 1.62 22.4545 3.6C22.4545 4.932 21.7636 6.102 20.7273 6.714V9H22.4545C29.1391 9 34.5455 14.634 34.5455 21.6H36.2727C37.2227 21.6 38 22.41 38 23.4ZM34.5455 25.2H31.0909V21.6C31.0909 16.632 27.2218 12.6 22.4545 12.6H15.5455C10.7782 12.6 6.90909 16.632 6.90909 21.6V25.2H3.45455V27H6.90909V32.4H31.0909V27H34.5455V25.2Z" fill="#50A528"/>
</svg>
