<svg width="51" height="58" viewBox="0 0 51 58" fill="none" xmlns="http://www.w3.org/2000/svg">
<path d="M36.1716 51.7213L30.6851 46.2348L27.6983 49.2217L36.1716 57.695L51 42.8667L48.0131 39.8798L36.1716 51.7213Z" fill="#4C5A81"/>
<path d="M10.7516 13.21C11.9215 13.21 12.8699 12.2616 12.8699 11.0917C12.8699 9.92176 11.9215 8.97335 10.7516 8.97335C9.58167 8.97335 8.63326 9.92176 8.63326 11.0917C8.63326 12.2616 9.58167 13.21 10.7516 13.21Z" fill="#4C5A81"/>
<path d="M10.7516 30.1567C11.9215 30.1567 12.8699 29.2083 12.8699 28.0384C12.8699 26.8685 11.9215 25.92 10.7516 25.92C9.58167 25.92 8.63326 26.8685 8.63326 28.0384C8.63326 29.2083 9.58167 30.1567 10.7516 30.1567Z" fill="#4C5A81"/>
<path d="M10.7516 47.1034C11.9215 47.1034 12.8699 46.155 12.8699 44.9851C12.8699 43.8152 11.9215 42.8667 10.7516 42.8667C9.58167 42.8667 8.63326 43.8152 8.63326 44.9851C8.63326 46.155 9.58167 47.1034 10.7516 47.1034Z" fill="#4C5A81"/>
<path d="M38.29 0.5H4.39659C3.27295 0.5 2.19534 0.946362 1.4008 1.74089C0.606274 2.53542 0.159912 3.61304 0.159912 4.73667V51.3401C0.159912 52.4637 0.606274 53.5413 1.4008 54.3359C2.19534 55.1304 3.27295 55.5768 4.39659 55.5768H21.3433V51.3401H4.39659V38.6301H42.5267V4.73667C42.5267 3.61304 42.0803 2.53542 41.2858 1.74089C40.4912 0.946362 39.4136 0.5 38.29 0.5ZM38.29 34.3934H4.39659V21.6834H38.29V34.3934ZM38.29 17.4467H4.39659V4.73667H38.29V17.4467Z" fill="#4C5A81"/>
</svg>
