<svg width="19" height="21" viewBox="0 0 19 21" fill="none" xmlns="http://www.w3.org/2000/svg">
<path d="M2.03154 20.7579C1.48154 20.7579 1.01054 20.5619 0.618541 20.1699C0.226541 19.7779 0.0308749 19.3072 0.0315416 18.7579V4.75789C0.0315416 4.20789 0.227542 3.73689 0.619542 3.34489C1.01154 2.95289 1.48221 2.75722 2.03154 2.75789H3.03154V0.757889H5.03154V2.75789H13.0315V0.757889H15.0315V2.75789H16.0315C16.5815 2.75789 17.0525 2.95389 17.4445 3.34589C17.8365 3.73789 18.0322 4.20856 18.0315 4.75789V18.7579C18.0315 19.3079 17.8355 19.7789 17.4435 20.1709C17.0515 20.5629 16.5809 20.7586 16.0315 20.7579H2.03154ZM2.03154 18.7579H16.0315V8.75789H2.03154V18.7579ZM2.03154 6.75789H16.0315V4.75789H2.03154V6.75789ZM9.03154 12.7579C8.74821 12.7579 8.51054 12.6619 8.31854 12.4699C8.12654 12.2779 8.03088 12.0406 8.03154 11.7579C8.03154 11.4746 8.12754 11.2369 8.31954 11.0449C8.51154 10.8529 8.74888 10.7572 9.03154 10.7579C9.31488 10.7579 9.55254 10.8539 9.74454 11.0459C9.93654 11.2379 10.0322 11.4752 10.0315 11.7579C10.0315 12.0412 9.93554 12.2789 9.74354 12.4709C9.55154 12.6629 9.31421 12.7586 9.03154 12.7579ZM5.03154 12.7579C4.74821 12.7579 4.51054 12.6619 4.31854 12.4699C4.12654 12.2779 4.03088 12.0406 4.03154 11.7579C4.03154 11.4746 4.12754 11.2369 4.31954 11.0449C4.51154 10.8529 4.74888 10.7572 5.03154 10.7579C5.31488 10.7579 5.55254 10.8539 5.74454 11.0459C5.93654 11.2379 6.03221 11.4752 6.03154 11.7579C6.03154 12.0412 5.93554 12.2789 5.74354 12.4709C5.55154 12.6629 5.31421 12.7586 5.03154 12.7579ZM13.0315 12.7579C12.7482 12.7579 12.5105 12.6619 12.3185 12.4699C12.1265 12.2779 12.0309 12.0406 12.0315 11.7579C12.0315 11.4746 12.1275 11.2369 12.3195 11.0449C12.5115 10.8529 12.7489 10.7572 13.0315 10.7579C13.3149 10.7579 13.5525 10.8539 13.7445 11.0459C13.9365 11.2379 14.0322 11.4752 14.0315 11.7579C14.0315 12.0412 13.9355 12.2789 13.7435 12.4709C13.5515 12.6629 13.3142 12.7586 13.0315 12.7579ZM9.03154 16.7579C8.74821 16.7579 8.51054 16.6619 8.31854 16.4699C8.12654 16.2779 8.03088 16.0406 8.03154 15.7579C8.03154 15.4746 8.12754 15.2369 8.31954 15.0449C8.51154 14.8529 8.74888 14.7572 9.03154 14.7579C9.31488 14.7579 9.55254 14.8539 9.74454 15.0459C9.93654 15.2379 10.0322 15.4752 10.0315 15.7579C10.0315 16.0412 9.93554 16.2789 9.74354 16.4709C9.55154 16.6629 9.31421 16.7586 9.03154 16.7579ZM5.03154 16.7579C4.74821 16.7579 4.51054 16.6619 4.31854 16.4699C4.12654 16.2779 4.03088 16.0406 4.03154 15.7579C4.03154 15.4746 4.12754 15.2369 4.31954 15.0449C4.51154 14.8529 4.74888 14.7572 5.03154 14.7579C5.31488 14.7579 5.55254 14.8539 5.74454 15.0459C5.93654 15.2379 6.03221 15.4752 6.03154 15.7579C6.03154 16.0412 5.93554 16.2789 5.74354 16.4709C5.55154 16.6629 5.31421 16.7586 5.03154 16.7579ZM13.0315 16.7579C12.7482 16.7579 12.5105 16.6619 12.3185 16.4699C12.1265 16.2779 12.0309 16.0406 12.0315 15.7579C12.0315 15.4746 12.1275 15.2369 12.3195 15.0449C12.5115 14.8529 12.7489 14.7572 13.0315 14.7579C13.3149 14.7579 13.5525 14.8539 13.7445 15.0459C13.9365 15.2379 14.0322 15.4752 14.0315 15.7579C14.0315 16.0412 13.9355 16.2789 13.7435 16.4709C13.5515 16.6629 13.3142 16.7586 13.0315 16.7579Z" fill="#F7BC2C"/>
</svg>
