<svg width="19" height="21" viewBox="0 0 19 21" fill="none" xmlns="http://www.w3.org/2000/svg">
<path d="M2.42801 20.7579C1.87801 20.7579 1.40701 20.5619 1.01501 20.1699C0.623011 19.7779 0.427344 19.3072 0.428011 18.7579V4.75789C0.428011 4.20789 0.624011 3.73689 1.01601 3.34489C1.40801 2.95289 1.87868 2.75722 2.42801 2.75789H3.42801V0.757889H5.42801V2.75789H13.428V0.757889H15.428V2.75789H16.428C16.978 2.75789 17.449 2.95389 17.841 3.34589C18.233 3.73789 18.4287 4.20856 18.428 4.75789V18.7579C18.428 19.3079 18.232 19.7789 17.84 20.1709C17.448 20.5629 16.9773 20.7586 16.428 20.7579H2.42801ZM2.42801 18.7579H16.428V8.75789H2.42801V18.7579ZM2.42801 6.75789H16.428V4.75789H2.42801V6.75789ZM9.42801 12.7579C9.14468 12.7579 8.90701 12.6619 8.71501 12.4699C8.52301 12.2779 8.42734 12.0406 8.42801 11.7579C8.42801 11.4746 8.52401 11.2369 8.71601 11.0449C8.90801 10.8529 9.14534 10.7572 9.42801 10.7579C9.71134 10.7579 9.94901 10.8539 10.141 11.0459C10.333 11.2379 10.4287 11.4752 10.428 11.7579C10.428 12.0412 10.332 12.2789 10.14 12.4709C9.94801 12.6629 9.71068 12.7586 9.42801 12.7579ZM5.42801 12.7579C5.14468 12.7579 4.90701 12.6619 4.71501 12.4699C4.52301 12.2779 4.42734 12.0406 4.42801 11.7579C4.42801 11.4746 4.52401 11.2369 4.71601 11.0449C4.90801 10.8529 5.14534 10.7572 5.42801 10.7579C5.71134 10.7579 5.94901 10.8539 6.14101 11.0459C6.33301 11.2379 6.42868 11.4752 6.42801 11.7579C6.42801 12.0412 6.33201 12.2789 6.14001 12.4709C5.94801 12.6629 5.71068 12.7586 5.42801 12.7579ZM13.428 12.7579C13.1447 12.7579 12.907 12.6619 12.715 12.4699C12.523 12.2779 12.4273 12.0406 12.428 11.7579C12.428 11.4746 12.524 11.2369 12.716 11.0449C12.908 10.8529 13.1453 10.7572 13.428 10.7579C13.7113 10.7579 13.949 10.8539 14.141 11.0459C14.333 11.2379 14.4287 11.4752 14.428 11.7579C14.428 12.0412 14.332 12.2789 14.14 12.4709C13.948 12.6629 13.7107 12.7586 13.428 12.7579ZM9.42801 16.7579C9.14468 16.7579 8.90701 16.6619 8.71501 16.4699C8.52301 16.2779 8.42734 16.0406 8.42801 15.7579C8.42801 15.4746 8.52401 15.2369 8.71601 15.0449C8.90801 14.8529 9.14534 14.7572 9.42801 14.7579C9.71134 14.7579 9.94901 14.8539 10.141 15.0459C10.333 15.2379 10.4287 15.4752 10.428 15.7579C10.428 16.0412 10.332 16.2789 10.14 16.4709C9.94801 16.6629 9.71068 16.7586 9.42801 16.7579ZM5.42801 16.7579C5.14468 16.7579 4.90701 16.6619 4.71501 16.4699C4.52301 16.2779 4.42734 16.0406 4.42801 15.7579C4.42801 15.4746 4.52401 15.2369 4.71601 15.0449C4.90801 14.8529 5.14534 14.7572 5.42801 14.7579C5.71134 14.7579 5.94901 14.8539 6.14101 15.0459C6.33301 15.2379 6.42868 15.4752 6.42801 15.7579C6.42801 16.0412 6.33201 16.2789 6.14001 16.4709C5.94801 16.6629 5.71068 16.7586 5.42801 16.7579ZM13.428 16.7579C13.1447 16.7579 12.907 16.6619 12.715 16.4699C12.523 16.2779 12.4273 16.0406 12.428 15.7579C12.428 15.4746 12.524 15.2369 12.716 15.0449C12.908 14.8529 13.1453 14.7572 13.428 14.7579C13.7113 14.7579 13.949 14.8539 14.141 15.0459C14.333 15.2379 14.4287 15.4752 14.428 15.7579C14.428 16.0412 14.332 16.2789 14.14 16.4709C13.948 16.6629 13.7107 16.7586 13.428 16.7579Z" fill="#419389"/>
</svg>
