<svg width="19" height="21" viewBox="0 0 19 21" fill="none" xmlns="http://www.w3.org/2000/svg">
<path d="M2.5894 20.1333C2.0394 20.1333 1.5684 19.9373 1.1764 19.5453C0.784403 19.1533 0.588736 18.6827 0.589403 18.1333V4.13334C0.589403 3.58334 0.785403 3.11234 1.1774 2.72034C1.5694 2.32834 2.04007 2.13267 2.5894 2.13334H3.5894V0.133339H5.5894V2.13334H13.5894V0.133339H15.5894V2.13334H16.5894C17.1394 2.13334 17.6104 2.32934 18.0024 2.72134C18.3944 3.11334 18.5901 3.58401 18.5894 4.13334V18.1333C18.5894 18.6833 18.3934 19.1543 18.0014 19.5463C17.6094 19.9383 17.1387 20.134 16.5894 20.1333H2.5894ZM2.5894 18.1333H16.5894V8.13334H2.5894V18.1333ZM2.5894 6.13334H16.5894V4.13334H2.5894V6.13334ZM9.5894 12.1333C9.30607 12.1333 9.0684 12.0373 8.8764 11.8453C8.6844 11.6533 8.58874 11.416 8.5894 11.1333C8.5894 10.85 8.6854 10.6123 8.8774 10.4203C9.0694 10.2283 9.30674 10.1327 9.5894 10.1333C9.87274 10.1333 10.1104 10.2293 10.3024 10.4213C10.4944 10.6133 10.5901 10.8507 10.5894 11.1333C10.5894 11.4167 10.4934 11.6543 10.3014 11.8463C10.1094 12.0383 9.87207 12.134 9.5894 12.1333ZM5.5894 12.1333C5.30607 12.1333 5.0684 12.0373 4.8764 11.8453C4.6844 11.6533 4.58874 11.416 4.5894 11.1333C4.5894 10.85 4.6854 10.6123 4.8774 10.4203C5.0694 10.2283 5.30674 10.1327 5.5894 10.1333C5.87274 10.1333 6.1104 10.2293 6.3024 10.4213C6.4944 10.6133 6.59007 10.8507 6.5894 11.1333C6.5894 11.4167 6.4934 11.6543 6.3014 11.8463C6.1094 12.0383 5.87207 12.134 5.5894 12.1333ZM13.5894 12.1333C13.3061 12.1333 13.0684 12.0373 12.8764 11.8453C12.6844 11.6533 12.5887 11.416 12.5894 11.1333C12.5894 10.85 12.6854 10.6123 12.8774 10.4203C13.0694 10.2283 13.3067 10.1327 13.5894 10.1333C13.8727 10.1333 14.1104 10.2293 14.3024 10.4213C14.4944 10.6133 14.5901 10.8507 14.5894 11.1333C14.5894 11.4167 14.4934 11.6543 14.3014 11.8463C14.1094 12.0383 13.8721 12.134 13.5894 12.1333ZM9.5894 16.1333C9.30607 16.1333 9.0684 16.0373 8.8764 15.8453C8.6844 15.6533 8.58874 15.416 8.5894 15.1333C8.5894 14.85 8.6854 14.6123 8.8774 14.4203C9.0694 14.2283 9.30674 14.1327 9.5894 14.1333C9.87274 14.1333 10.1104 14.2293 10.3024 14.4213C10.4944 14.6133 10.5901 14.8507 10.5894 15.1333C10.5894 15.4167 10.4934 15.6543 10.3014 15.8463C10.1094 16.0383 9.87207 16.134 9.5894 16.1333ZM5.5894 16.1333C5.30607 16.1333 5.0684 16.0373 4.8764 15.8453C4.6844 15.6533 4.58874 15.416 4.5894 15.1333C4.5894 14.85 4.6854 14.6123 4.8774 14.4203C5.0694 14.2283 5.30674 14.1327 5.5894 14.1333C5.87274 14.1333 6.1104 14.2293 6.3024 14.4213C6.4944 14.6133 6.59007 14.8507 6.5894 15.1333C6.5894 15.4167 6.4934 15.6543 6.3014 15.8463C6.1094 16.0383 5.87207 16.134 5.5894 16.1333ZM13.5894 16.1333C13.3061 16.1333 13.0684 16.0373 12.8764 15.8453C12.6844 15.6533 12.5887 15.416 12.5894 15.1333C12.5894 14.85 12.6854 14.6123 12.8774 14.4203C13.0694 14.2283 13.3067 14.1327 13.5894 14.1333C13.8727 14.1333 14.1104 14.2293 14.3024 14.4213C14.4944 14.6133 14.5901 14.8507 14.5894 15.1333C14.5894 15.4167 14.4934 15.6543 14.3014 15.8463C14.1094 16.0383 13.8721 16.134 13.5894 16.1333Z" fill="#F59877"/>
</svg>
