<svg width="39" height="38" viewBox="0 0 39 38" fill="none" xmlns="http://www.w3.org/2000/svg">
<path d="M28.0447 22.091C28.5108 22.091 28.9578 21.9059 29.2874 21.5763C29.617 21.2467 29.8021 20.7997 29.8021 20.3336C29.8021 19.8675 29.617 19.4205 29.2874 19.0909C28.9578 18.7613 28.5108 18.5762 28.0447 18.5762C27.5786 18.5762 27.1316 18.7613 26.802 19.0909C26.4724 19.4205 26.2873 19.8675 26.2873 20.3336C26.2873 20.7997 26.4724 21.2467 26.802 21.5763C27.1316 21.9059 27.5786 22.091 28.0447 22.091ZM28.0447 29.1208C28.5108 29.1208 28.9578 28.9356 29.2874 28.6061C29.617 28.2765 29.8021 27.8295 29.8021 27.3634C29.8021 26.8973 29.617 26.4502 29.2874 26.1207C28.9578 25.7911 28.5108 25.6059 28.0447 25.6059C27.5786 25.6059 27.1316 25.7911 26.802 26.1207C26.4724 26.4502 26.2873 26.8973 26.2873 27.3634C26.2873 27.8295 26.4724 28.2765 26.802 28.6061C27.1316 28.9356 27.5786 29.1208 28.0447 29.1208ZM21.015 20.3336C21.015 20.7997 20.8298 21.2467 20.5002 21.5763C20.1706 21.9059 19.7236 22.091 19.2575 22.091C18.7914 22.091 18.3444 21.9059 18.0148 21.5763C17.6852 21.2467 17.5001 20.7997 17.5001 20.3336C17.5001 19.8675 17.6852 19.4205 18.0148 19.0909C18.3444 18.7613 18.7914 18.5762 19.2575 18.5762C19.7236 18.5762 20.1706 18.7613 20.5002 19.0909C20.8298 19.4205 21.015 19.8675 21.015 20.3336ZM21.015 27.3634C21.015 27.8295 20.8298 28.2765 20.5002 28.6061C20.1706 28.9356 19.7236 29.1208 19.2575 29.1208C18.7914 29.1208 18.3444 28.9356 18.0148 28.6061C17.6852 28.2765 17.5001 27.8295 17.5001 27.3634C17.5001 26.8973 17.6852 26.4502 18.0148 26.1207C18.3444 25.7911 18.7914 25.6059 19.2575 25.6059C19.7236 25.6059 20.1706 25.7911 20.5002 26.1207C20.8298 26.4502 21.015 26.8973 21.015 27.3634ZM10.4703 22.091C10.9364 22.091 11.3834 21.9059 11.713 21.5763C12.0426 21.2467 12.2278 20.7997 12.2278 20.3336C12.2278 19.8675 12.0426 19.4205 11.713 19.0909C11.3834 18.7613 10.9364 18.5762 10.4703 18.5762C10.0042 18.5762 9.55722 18.7613 9.22763 19.0909C8.89805 19.4205 8.71289 19.8675 8.71289 20.3336C8.71289 20.7997 8.89805 21.2467 9.22763 21.5763C9.55722 21.9059 10.0042 22.091 10.4703 22.091ZM10.4703 29.1208C10.9364 29.1208 11.3834 28.9356 11.713 28.6061C12.0426 28.2765 12.2278 27.8295 12.2278 27.3634C12.2278 26.8973 12.0426 26.4502 11.713 26.1207C11.3834 25.7911 10.9364 25.6059 10.4703 25.6059C10.0042 25.6059 9.55722 25.7911 9.22763 26.1207C8.89805 26.4502 8.71289 26.8973 8.71289 27.3634C8.71289 27.8295 8.89805 28.2765 9.22763 28.6061C9.55722 28.9356 10.0042 29.1208 10.4703 29.1208Z" fill="white"/>
<path fill-rule="evenodd" clip-rule="evenodd" d="M10.4685 0.5625C10.8181 0.5625 11.1534 0.701369 11.4006 0.948556C11.6478 1.19574 11.7866 1.531 11.7866 1.88058V3.2215C12.95 3.19866 14.2312 3.19866 15.6407 3.19866H22.869C24.2802 3.19866 25.5614 3.19866 26.7248 3.2215V1.88058C26.7248 1.531 26.8637 1.19574 27.1109 0.948556C27.3581 0.701369 27.6933 0.5625 28.0429 0.5625C28.3925 0.5625 28.7278 0.701369 28.9749 0.948556C29.2221 1.19574 29.361 1.531 29.361 1.88058V3.33398C29.8179 3.36913 30.2503 3.41306 30.6597 3.46754C32.7195 3.74522 34.3873 4.32869 35.7036 5.64325C37.0182 6.95957 37.6016 8.62738 37.8793 10.6871C38.1482 12.6906 38.1482 15.2476 38.1482 18.4778V22.1895C38.1482 25.4197 38.1482 27.9785 37.8793 29.9802C37.6016 32.04 37.0182 33.7078 35.7036 35.0241C34.3873 36.3386 32.7195 36.9221 30.6597 37.1998C28.6563 37.4687 26.0992 37.4687 22.869 37.4687H15.6424C12.4123 37.4687 9.85344 37.4687 7.85172 37.1998C5.79201 36.9221 4.1242 36.3386 2.80788 35.0241C1.49331 33.7078 0.909844 32.04 0.632169 29.9802C0.363281 27.9768 0.363281 25.4197 0.363281 22.1895V18.4778C0.363281 15.2476 0.363281 12.6888 0.632169 10.6871C0.909844 8.62738 1.49331 6.95957 2.80788 5.64325C4.1242 4.32869 5.79201 3.74522 7.85172 3.46754C8.26121 3.41306 8.69529 3.36913 9.15047 3.33398V1.88058C9.15047 1.531 9.28934 1.19574 9.53652 0.948556C9.78371 0.701369 10.119 0.5625 10.4685 0.5625ZM8.20145 6.08085C6.43523 6.31811 5.41591 6.7645 4.67252 7.50789C3.92912 8.25129 3.48273 9.2706 3.24548 11.0386C3.20506 11.3373 3.17167 11.6537 3.14355 11.9858H35.3679C35.3398 11.6519 35.3064 11.3373 35.266 11.0368C35.0287 9.2706 34.5823 8.25129 33.839 7.50789C33.0956 6.7645 32.0762 6.31811 30.3083 6.08085C28.5034 5.83833 26.122 5.83481 22.7706 5.83481H15.7409C12.3894 5.83481 10.0099 5.83833 8.20145 6.08085ZM2.99944 18.5762C2.99944 17.0754 2.99944 15.7696 3.02228 14.622H35.4892C35.512 15.7696 35.512 17.0754 35.512 18.5762V22.0911C35.512 25.4425 35.5085 27.8239 35.266 29.6305C35.0287 31.3967 34.5823 32.4161 33.839 33.1594C33.0956 33.9028 32.0762 34.3492 30.3083 34.5865C28.5034 34.829 26.122 34.8325 22.7706 34.8325H15.7409C12.3894 34.8325 10.0099 34.829 8.20145 34.5865C6.43523 34.3492 5.41591 33.9028 4.67252 33.1594C3.92912 32.4161 3.48273 31.3967 3.24548 29.6288C3.00295 27.8239 2.99944 25.4425 2.99944 22.0911V18.5762Z" fill="white"/>
</svg>
