<svg width="28" height="28" viewBox="0 0 28 28" fill="none" xmlns="http://www.w3.org/2000/svg">
<path d="M25.0832 4.66675H22.5554V6.2223H24.8887V23.3334H3.11093V6.2223H5.44426V4.66675H2.91649C2.73467 4.66979 2.55524 4.70861 2.38843 4.78101C2.22162 4.85341 2.07071 4.95796 1.94431 5.08869C1.81792 5.21941 1.71851 5.37376 1.65178 5.54292C1.58504 5.71207 1.55229 5.89271 1.55538 6.07453V23.4812C1.55229 23.663 1.58504 23.8436 1.65178 24.0128C1.71851 24.182 1.81792 24.3363 1.94431 24.467C2.07071 24.5978 2.22162 24.7023 2.38843 24.7747C2.55524 24.8471 2.73467 24.8859 2.91649 24.889H25.0832C25.265 24.8859 25.4444 24.8471 25.6112 24.7747C25.778 24.7023 25.9289 24.5978 26.0553 24.467C26.1817 24.3363 26.2811 24.182 26.3479 24.0128C26.4146 23.8436 26.4474 23.663 26.4443 23.4812V6.07453C26.4474 5.89271 26.4146 5.71207 26.3479 5.54292C26.2811 5.37376 26.1817 5.21941 26.0553 5.08869C25.9289 4.95796 25.778 4.85341 25.6112 4.78101C25.4444 4.70861 25.265 4.66979 25.0832 4.66675Z" fill="#4C5A81"/>
<path d="M6.22223 10.8889H7.77778V12.4445H6.22223V10.8889Z" fill="#4C5A81"/>
<path d="M10.8889 10.8889H12.4445V12.4445H10.8889V10.8889Z" fill="#4C5A81"/>
<path d="M15.5555 10.8889H17.1111V12.4445H15.5555V10.8889Z" fill="#4C5A81"/>
<path d="M20.2222 10.8889H21.7778V12.4445H20.2222V10.8889Z" fill="#4C5A81"/>
<path d="M6.22223 14.7778H7.77778V16.3334H6.22223V14.7778Z" fill="#4C5A81"/>
<path d="M10.8889 14.7778H12.4445V16.3334H10.8889V14.7778Z" fill="#4C5A81"/>
<path d="M15.5555 14.7778H17.1111V16.3334H15.5555V14.7778Z" fill="#4C5A81"/>
<path d="M20.2222 14.7778H21.7778V16.3334H20.2222V14.7778Z" fill="#4C5A81"/>
<path d="M6.22223 18.6667H7.77778V20.2223H6.22223V18.6667Z" fill="#4C5A81"/>
<path d="M10.8889 18.6667H12.4445V20.2223H10.8889V18.6667Z" fill="#4C5A81"/>
<path d="M15.5555 18.6667H17.1111V20.2223H15.5555V18.6667Z" fill="#4C5A81"/>
<path d="M20.2222 18.6667H21.7778V20.2223H20.2222V18.6667Z" fill="#4C5A81"/>
<path d="M7.77778 7.77789C7.98406 7.77789 8.18189 7.69594 8.32775 7.55008C8.47361 7.40422 8.55556 7.20639 8.55556 7.00011V2.33344C8.55556 2.12716 8.47361 1.92933 8.32775 1.78347C8.18189 1.63761 7.98406 1.55566 7.77778 1.55566C7.5715 1.55566 7.37367 1.63761 7.22781 1.78347C7.08194 1.92933 7 2.12716 7 2.33344V7.00011C7 7.20639 7.08194 7.40422 7.22781 7.55008C7.37367 7.69594 7.5715 7.77789 7.77778 7.77789Z" fill="#4C5A81"/>
<path d="M20.2222 7.77789C20.4285 7.77789 20.6263 7.69594 20.7722 7.55008C20.9181 7.40422 21 7.20639 21 7.00011V2.33344C21 2.12716 20.9181 1.92933 20.7722 1.78347C20.6263 1.63761 20.4285 1.55566 20.2222 1.55566C20.016 1.55566 19.8181 1.63761 19.6723 1.78347C19.5264 1.92933 19.4445 2.12716 19.4445 2.33344V7.00011C19.4445 7.20639 19.5264 7.40422 19.6723 7.55008C19.8181 7.69594 20.016 7.77789 20.2222 7.77789Z" fill="#4C5A81"/>
<path d="M10.1111 4.66675H17.8889V6.2223H10.1111V4.66675Z" fill="#4C5A81"/>
</svg>
