<svg width="1963" height="769" viewBox="0 0 1963 769" fill="none" xmlns="http://www.w3.org/2000/svg">
<rect width="1955" height="768" transform="translate(1 1)" fill="white"/>
<mask id="mask0" mask-type="alpha" maskUnits="userSpaceOnUse" x="0" y="0" width="1963" height="769">
<rect x="0.871094" y="0.605957" width="1961.9" height="768" fill="#C4C4C4"/>
</mask>
<g mask="url(#mask0)">
<path fill-rule="evenodd" clip-rule="evenodd" d="M1442.35 246.64C1408.63 273.545 1362.59 280.746 1322.69 264.352C1282.08 247.664 1239.68 233.857 1195.67 223.234C932.889 159.796 669.164 223.471 469.163 374.741C436.482 399.459 392.895 404.962 354.606 390.369C328.433 380.393 301.332 371.965 273.385 365.219C-81.9936 279.427 -439.633 497.971 -525.424 853.35C-611.216 1208.73 -392.672 1566.37 -37.2927 1652.16C68.0528 1677.59 173.597 1676.28 272.2 1652.59C312.169 1642.99 354.822 1654.13 384.078 1683.01C492.388 1789.91 630.252 1869.64 788.964 1907.96C1159.18 1997.33 1531.27 1834.41 1724.4 1529.69C1747.56 1493.15 1789.5 1472.41 1832.69 1475C2160.07 1494.64 2464.51 1277.81 2544.17 947.835C2633.62 577.289 2405.75 204.386 2035.21 114.933C1819.62 62.8898 1603.24 118.257 1442.35 246.64Z" fill="#F4F9FE"/>
</g>
<path d="M688.076 691.08C688.244 690.761 688.575 690.561 688.936 690.561H762.606C762.966 690.561 763.298 690.761 763.466 691.08L772.163 707.604C772.503 708.251 772.034 709.029 771.302 709.029H680.239C679.507 709.029 679.038 708.251 679.379 707.604L688.076 691.08Z" fill="#839CB8"/>
<path d="M678.353 691.08C678.521 690.761 678.852 690.561 679.213 690.561H752.883C753.244 690.561 753.575 690.761 753.743 691.08L762.44 707.604C762.781 708.251 762.311 709.029 761.58 709.029H670.516C669.785 709.029 669.315 708.251 669.656 707.604L678.353 691.08Z" fill="#91BFF2"/>
<path d="M691.262 617.661C691.262 617.124 691.697 616.689 692.234 616.689H749.581C750.118 616.689 750.553 617.124 750.553 617.661V690.561H691.262V617.661Z" fill="#839CB8"/>
<circle opacity="0.5" r="10.2059" transform="matrix(-0.997713 0.0675983 0.0675983 0.997713 669.3 493.789)" fill="#113F73"/>
<circle opacity="0.5" r="8.74795" transform="matrix(-0.511249 0.859433 0.859433 0.511249 762.03 309.528)" fill="#113F73"/>
<path d="M763.024 318.219C761.187 318.431 759.269 318.064 757.557 317.046C755.357 315.737 753.94 313.615 753.461 311.291L666.28 484.118C668.963 483.265 671.984 483.52 674.594 485.072C675.774 485.774 676.761 486.677 677.538 487.711L763.024 318.219Z" fill="#C8DFF9"/>
<path d="M768.086 303.212L972.056 303.314C970.196 304.787 968.938 307.008 968.759 309.561C968.619 311.548 969.155 313.426 970.17 314.972L768.95 314.881C769.164 314.603 769.364 314.309 769.548 314C771.671 310.432 770.962 305.965 768.086 303.212Z" fill="#C8DFF9"/>
<path d="M686.402 617.661C686.402 617.124 686.838 616.689 687.374 616.689H744.722C745.259 616.689 745.694 617.124 745.694 617.661V690.561H686.402V617.661Z" fill="#C8DFF9"/>
<path opacity="0.5" d="M694.201 616.689H736.926C736.418 605.33 727.048 596.277 715.564 596.277C704.079 596.277 694.71 605.33 694.201 616.689Z" fill="#113F73"/>
<path d="M678.848 497.401L719.793 596.696C718.426 596.422 717.011 596.278 715.563 596.278C710.145 596.278 705.197 598.293 701.428 601.615L663.667 502.301C665.47 503.495 667.665 504.129 669.99 503.971C674.1 503.693 677.477 501.017 678.848 497.401Z" fill="#C8DFF9"/>
<path d="M674.549 511.77C674.25 511.022 674.614 510.173 675.362 509.874C676.109 509.576 676.958 509.939 677.257 510.687L674.549 511.77ZM707.178 585.531C707.477 586.278 707.113 587.127 706.365 587.426C705.618 587.725 704.769 587.361 704.47 586.613L707.178 585.531ZM677.257 510.687L707.178 585.531L704.47 586.613L674.549 511.77L677.257 510.687Z" fill="#91BFF2"/>
<path opacity="0.3" d="M753.035 322.73C753.278 322.251 753.863 322.06 754.342 322.302C754.821 322.545 755.012 323.13 754.769 323.609L753.035 322.73ZM676.886 478.637C676.643 479.115 676.058 479.307 675.58 479.064C675.101 478.821 674.91 478.236 675.152 477.757L676.886 478.637ZM754.769 323.609C747.543 337.854 731.374 370.102 715.359 402.046C699.346 433.987 683.487 465.623 676.886 478.637L675.152 477.757C681.751 464.749 697.607 433.119 713.621 401.175C729.635 369.234 745.807 336.98 753.035 322.73L754.769 323.609Z" fill="#91BFF2"/>
<path opacity="0.3" d="M949.538 308.556C950.075 308.557 950.51 308.992 950.509 309.529C950.508 310.066 950.073 310.501 949.536 310.5L949.538 308.556ZM782.849 310.935C782.312 310.934 781.877 310.498 781.878 309.961C781.879 309.425 782.315 308.99 782.851 308.991L782.849 310.935ZM949.536 310.5C933.563 310.478 899.189 310.597 865.157 310.716C831.128 310.835 797.441 310.955 782.849 310.935L782.851 308.991C797.437 309.011 831.118 308.891 865.15 308.772C899.179 308.653 933.56 308.534 949.538 308.556L949.536 310.5Z" fill="#91BFF2"/>
<circle opacity="0.5" cx="669.299" cy="493.789" r="5.86991" transform="rotate(3.87605 669.299 493.789)" fill="#113F73"/>
<circle opacity="0.5" cx="762.03" cy="309.527" r="5.86991" transform="rotate(3.87605 762.03 309.527)" fill="#113F73"/>
<path d="M996.683 318.288C996.683 319.898 995.378 321.204 993.767 321.204H964.607C962.997 321.204 961.691 319.898 961.691 318.288V311.484H961.718C962.222 302.273 969.851 294.96 979.187 294.96C988.524 294.96 996.152 302.273 996.657 311.484H996.683V318.288Z" fill="#839CB8"/>
<circle cx="973.839" cy="309.054" r="4.37397" fill="#839CB8"/>
<path d="M1213.17 691.081C1213.33 690.762 1213.66 690.562 1214.03 690.562H1287.7C1288.06 690.562 1288.39 690.762 1288.56 691.081L1297.25 707.605C1297.59 708.252 1297.12 709.03 1296.39 709.03H1205.33C1204.6 709.03 1204.13 708.252 1204.47 707.605L1213.17 691.081Z" fill="#839CB8"/>
<path d="M1203.44 691.081C1203.61 690.762 1203.94 690.562 1204.3 690.562H1277.97C1278.33 690.562 1278.66 690.762 1278.83 691.081L1287.53 707.605C1287.87 708.252 1287.4 709.03 1286.67 709.03H1195.61C1194.87 709.03 1194.41 708.252 1194.75 707.605L1203.44 691.081Z" fill="#91BFF2"/>
<path d="M1216.35 617.662C1216.35 617.125 1216.79 616.69 1217.32 616.69H1274.67C1275.21 616.69 1275.64 617.125 1275.64 617.662V690.562H1216.35V617.662Z" fill="#839CB8"/>
<ellipse opacity="0.5" cx="1287.89" cy="493.789" rx="10.206" ry="10.206" transform="rotate(3.87605 1287.89 493.789)" fill="#113F73"/>
<circle opacity="0.5" cx="1287.89" cy="493.789" r="5.86991" transform="rotate(3.87605 1287.89 493.789)" fill="#113F73"/>
<circle opacity="0.5" cx="1169.65" cy="477.497" r="8.74795" transform="rotate(3.87605 1169.65 477.497)" fill="#113F73"/>
<circle opacity="0.5" cx="1169.65" cy="477.497" r="8.74795" transform="rotate(3.87605 1169.65 477.497)" fill="#839CB8"/>
<path d="M1176.24 483.254C1177.45 481.863 1178.24 480.075 1178.38 478.088C1178.55 475.534 1177.61 473.163 1175.97 471.448L1281.64 485.716C1279.42 487.439 1277.91 490.07 1277.7 493.099C1277.61 494.469 1277.79 495.795 1278.2 497.021L1176.24 483.254Z" fill="#C8DFF9"/>
<path d="M1211.49 617.662C1211.49 617.125 1211.93 616.69 1212.46 616.69H1269.81C1270.35 616.69 1270.78 617.125 1270.78 617.662V690.562H1211.49V617.662Z" fill="#C8DFF9"/>
<path opacity="0.5" d="M1262.99 616.69H1220.26C1220.77 605.331 1230.14 596.278 1241.62 596.278C1253.11 596.278 1262.48 605.331 1262.99 616.69Z" fill="#113F73"/>
<path d="M1278.34 497.401L1237.39 596.696C1238.76 596.422 1240.18 596.278 1241.62 596.278C1247.04 596.278 1251.99 598.293 1255.76 601.616L1293.52 502.301C1291.72 503.496 1289.52 504.129 1287.2 503.972C1283.09 503.693 1279.71 501.017 1278.34 497.401Z" fill="#C8DFF9"/>
<path d="M1282.64 511.77C1282.94 511.022 1282.57 510.174 1281.83 509.875C1281.08 509.576 1280.23 509.94 1279.93 510.688L1282.64 511.77ZM1250.01 585.531C1249.71 586.279 1250.07 587.127 1250.82 587.426C1251.57 587.725 1252.42 587.361 1252.72 586.614L1250.01 585.531ZM1279.93 510.688L1250.01 585.531L1252.72 586.614L1282.64 511.77L1279.93 510.688Z" fill="#91BFF2"/>
<path fill-rule="evenodd" clip-rule="evenodd" d="M1169.95 468.754C1165.48 468.6 1161.63 471.848 1160.99 476.233L1148.8 462.629L1122.27 484.932C1120.3 482.448 1117.33 480.771 1113.91 480.54C1111.75 480.394 1109.69 480.846 1107.88 481.756L1150.6 446.269L1169.95 468.754Z" fill="#91BFF2"/>
<path d="M1125.61 586.938L1125.07 587.198C1125.18 587.029 1125.3 586.859 1125.41 586.689C1118.86 585.501 1121.83 578.495 1118.01 584.095L1124.55 546.409C1124.84 548.058 1125.8 549.581 1127.33 550.541C1129.66 552.007 1132.6 551.708 1134.59 550L1125.61 586.938Z" fill="#237EE5"/>
<circle cx="1130.27" cy="546.917" r="6.13347" transform="rotate(4.09827 1130.27 546.917)" fill="#65A5ED"/>
<path d="M1112.39 501.714C1112.33 502.391 1112.27 503.084 1112.21 503.791L1124.58 544.676C1125.54 542.24 1128 540.604 1130.75 540.813C1132.55 540.95 1134.11 541.851 1135.13 543.174L1123.85 489.18L1112.39 501.714Z" fill="#237EE5"/>
<path d="M1128.48 584.417C1128.69 582.482 1127.43 580.689 1125.54 580.222L1119.76 578.795C1117.33 578.195 1114.98 580.017 1114.95 582.521L1114.68 603.311C1114.66 605.117 1115.88 606.702 1117.64 607.135L1118.88 607.44C1120.75 607.902 1122.67 606.926 1123.4 605.146L1127.13 596.099C1127.2 595.93 1127.25 595.751 1127.27 595.569L1128.48 584.417Z" fill="#65A5ED"/>
<path d="M1115.07 580.509C1116.2 578.805 1118.51 578.344 1120.21 579.48C1122.2 580.804 1122.43 583.635 1120.69 585.269L1113.22 592.276C1112.37 593.08 1111.07 593.188 1110.09 592.537C1108.93 591.763 1108.62 590.193 1109.39 589.032L1115.07 580.509Z" fill="#65A5ED"/>
<path d="M1112.39 503.818L1170.89 513.178L1175.42 484.069C1173.73 485.552 1171.48 486.388 1169.06 486.224C1166.95 486.082 1165.07 485.206 1163.65 483.863L1160.93 499.396L1124.67 493.846C1123.81 499.813 1118.5 504.205 1112.39 503.818Z" fill="#91BFF2"/>
<circle cx="1113.13" cy="492.178" r="11.6639" transform="rotate(3.87605 1113.13 492.178)" fill="#86A8CF"/>
<circle opacity="0.5" cx="1169.65" cy="477.457" r="5.86991" transform="rotate(3.87605 1169.65 477.457)" fill="#113F73"/>
<path opacity="0.3" d="M1270.19 488.792C1270.73 488.865 1271.1 489.356 1271.02 489.888C1270.95 490.419 1270.46 490.791 1269.93 490.717L1270.19 488.792ZM1187.42 479.678C1186.89 479.607 1186.52 479.118 1186.59 478.586C1186.66 478.054 1187.15 477.68 1187.68 477.751L1187.42 479.678ZM1269.93 490.717C1252.65 488.329 1219.07 483.878 1187.42 479.678L1187.68 477.751C1219.32 481.95 1252.91 486.402 1270.19 488.792L1269.93 490.717Z" fill="#91BFF2"/>
<rect x="964.605" y="321.204" width="29.1598" height="5.83197" fill="#C8DFF9"/>
<path d="M944.195 331.896C944.195 329.212 946.371 327.036 949.055 327.036H1009.32C1012 327.036 1014.18 329.212 1014.18 331.896V341.616H944.195V331.896Z" fill="#91BFF2"/>
<path opacity="0.2" d="M944.195 341.616H1014.18L1020.01 454.367H937.391L944.195 341.616Z" fill="url(#paint0_linear)"/>
<g opacity="0.5">
<mask id="mask1" mask-type="alpha" maskUnits="userSpaceOnUse" x="937" y="341" width="84" height="114">
<path d="M944.195 341.615L1014.18 341.615L1020.01 454.367L937.391 454.367L944.195 341.615Z" fill="url(#paint1_linear)"/>
</mask>
<g mask="url(#mask1)">
<circle opacity="0.7" cx="995.646" cy="366.429" r="2.91598" transform="rotate(1.89326 995.646 366.429)" fill="#1858A0"/>
<circle cx="1007.18" cy="399.875" r="2.91598" transform="rotate(1.89326 1007.18 399.875)" fill="#1858A0"/>
<circle cx="991.742" cy="428.539" r="1.39037" transform="rotate(1.89326 991.742 428.539)" fill="#1858A0"/>
<circle r="1.38262" transform="matrix(-0.999454 -0.0330376 -0.0330376 0.999454 967.182 367.437)" fill="#1858A0"/>
<circle cx="974.834" cy="407.559" r="2.91598" transform="rotate(1.89326 974.834 407.559)" fill="#1858A0"/>
<circle cx="947.697" cy="395.969" r="2.91598" transform="rotate(1.89326 947.697 395.969)" fill="#1858A0"/>
<circle opacity="0.1" cx="958.754" cy="437.824" r="4.68843" transform="rotate(1.89326 958.754 437.824)" fill="#1858A0"/>
<circle opacity="0.2" cx="1004.92" cy="419.817" r="4.42524" transform="rotate(1.89326 1004.92 419.817)" fill="#1858A0"/>
<circle opacity="0.2" cx="981.61" cy="443.1" r="3.44057" transform="rotate(1.89326 981.61 443.1)" fill="#1858A0"/>
<circle opacity="0.3" cx="980.295" cy="359.958" r="2.91598" transform="rotate(1.89326 980.295 359.958)" fill="#1858A0"/>
<circle cx="987.947" cy="393.405" r="2.91598" transform="rotate(1.89326 987.947 393.405)" fill="#1858A0"/>
<circle cx="974.256" cy="427.9" r="3.89056" transform="rotate(1.89326 974.256 427.9)" fill="#1858A0"/>
<circle opacity="0.1" cx="952.493" cy="367.587" r="5.10136" transform="rotate(1.89326 952.493 367.587)" fill="#1858A0"/>
<circle opacity="0.1" r="3.17094" transform="matrix(-0.999454 -0.0330376 -0.0330376 0.999454 1004.82 349.749)" fill="#1858A0"/>
<circle opacity="0.2" cx="952.064" cy="418.498" r="2.91598" transform="rotate(1.89326 952.064 418.498)" fill="#1858A0"/>
<circle cx="1005.85" cy="378.532" r="1.97547" transform="rotate(1.89326 1005.85 378.532)" fill="#1858A0"/>
<circle opacity="0.6" r="1.78301" transform="matrix(-0.999454 -0.0330376 -0.0330376 0.999454 999.061 437.665)" fill="#1858A0"/>
<circle cx="963.98" cy="349.435" r="3.75825" transform="rotate(1.89326 963.98 349.435)" fill="#1858A0"/>
<circle cx="992.331" cy="352.052" r="1.40976" transform="rotate(1.89326 992.331 352.052)" fill="#1858A0"/>
</g>
</g>
<g opacity="0.5" filter="url(#filter0_f)">
<mask id="mask2" mask-type="alpha" maskUnits="userSpaceOnUse" x="937" y="341" width="84" height="114">
<path d="M944.195 341.616L1014.18 341.616L1020.01 454.367L937.391 454.367L944.195 341.616Z" fill="url(#paint2_linear)"/>
</mask>
<g mask="url(#mask2)">
<circle opacity="0.7" cx="995.646" cy="366.429" r="2.91598" transform="rotate(1.89326 995.646 366.429)" fill="#1858A0"/>
<circle cx="1007.18" cy="399.876" r="2.91598" transform="rotate(1.89326 1007.18 399.876)" fill="#1858A0"/>
<circle cx="991.742" cy="428.54" r="1.39037" transform="rotate(1.89326 991.742 428.54)" fill="#1858A0"/>
<circle r="1.38262" transform="matrix(-0.999454 -0.0330376 -0.0330376 0.999454 967.182 367.438)" fill="#1858A0"/>
<circle cx="974.834" cy="407.56" r="2.91598" transform="rotate(1.89326 974.834 407.56)" fill="#1858A0"/>
<circle cx="947.697" cy="395.97" r="2.91598" transform="rotate(1.89326 947.697 395.97)" fill="#1858A0"/>
<circle opacity="0.1" cx="958.754" cy="437.824" r="4.68843" transform="rotate(1.89326 958.754 437.824)" fill="#1858A0"/>
<circle opacity="0.2" cx="1004.92" cy="419.818" r="4.42524" transform="rotate(1.89326 1004.92 419.818)" fill="#1858A0"/>
<circle opacity="0.2" cx="981.61" cy="443.101" r="3.44057" transform="rotate(1.89326 981.61 443.101)" fill="#1858A0"/>
<circle opacity="0.3" cx="980.295" cy="359.959" r="2.91598" transform="rotate(1.89326 980.295 359.959)" fill="#1858A0"/>
<circle cx="987.947" cy="393.405" r="2.91598" transform="rotate(1.89326 987.947 393.405)" fill="#1858A0"/>
<circle cx="974.256" cy="427.901" r="3.89056" transform="rotate(1.89326 974.256 427.901)" fill="#1858A0"/>
<circle opacity="0.1" cx="952.493" cy="367.588" r="5.10136" transform="rotate(1.89326 952.493 367.588)" fill="#1858A0"/>
<circle opacity="0.1" r="3.17094" transform="matrix(-0.999454 -0.0330376 -0.0330376 0.999454 1004.82 349.75)" fill="#1858A0"/>
<circle opacity="0.2" cx="952.064" cy="418.499" r="2.91598" transform="rotate(1.89326 952.064 418.499)" fill="#1858A0"/>
<circle cx="1005.85" cy="378.533" r="1.97547" transform="rotate(1.89326 1005.85 378.533)" fill="#1858A0"/>
<circle opacity="0.6" r="1.78301" transform="matrix(-0.999454 -0.0330376 -0.0330376 0.999454 999.061 437.666)" fill="#1858A0"/>
<circle cx="963.98" cy="349.436" r="3.75825" transform="rotate(1.89326 963.98 349.436)" fill="#1858A0"/>
<circle cx="992.331" cy="352.052" r="1.40976" transform="rotate(1.89326 992.331 352.052)" fill="#1858A0"/>
</g>
</g>
<path d="M983.166 373.599H988.867L994.569 379.199V383.325L1000.57 389.219V399.83L998.77 401.598V408.966L992.768 414.861H987.967C985.806 418.162 983.066 417.612 981.965 416.924L979.865 414.861V376.841L983.166 373.599Z" fill="#237EE5"/>
<path d="M979.866 399.982H984.738L989.914 405.158V408.812M987.966 414.901L984.921 411.856" stroke="#113F73" stroke-width="1.32545"/>
<path d="M994.602 383.331L988.512 388.812V393.075" stroke="#113F73" stroke-width="1.32545"/>
<path d="M998.82 401.534L993.948 397.271H990.903" stroke="#113F73" stroke-width="1.32545"/>
<path d="M974.237 373.599H968.535L962.834 379.199V383.325L956.832 389.219V399.83L958.633 401.598V408.966L964.634 414.861H969.435C971.596 418.162 974.337 417.612 975.437 416.924L977.538 414.861V376.841L974.237 373.599Z" fill="#237EE5"/>
<path d="M977.537 399.982H972.665L967.488 405.158V408.812M969.449 414.881L972.494 411.836" stroke="#113F73" stroke-width="1.32545"/>
<path d="M962.777 383.332L968.867 388.813V393.076" stroke="#113F73" stroke-width="1.32545"/>
<path d="M958.637 401.587L963.509 397.324H966.554" stroke="#113F73" stroke-width="1.32545"/>
<g style="mix-blend-mode:multiply">
<ellipse cx="983.562" cy="727.837" rx="32.9093" ry="5.49332" fill="#C8DFF9"/>
</g>
<path opacity="0.5" d="M667.047 709.619L766.676 709.619L1309.05 709.619" stroke="#1858A0" stroke-width="1.94399"/>
<g opacity="0.7">
<path d="M941.177 523.559L940.896 530.764C940.085 550.626 959.471 606.832 979.234 606.798C979.268 606.798 979.303 606.797 979.338 606.797C979.372 606.797 979.407 606.798 979.442 606.798C999.205 606.832 1018.59 550.626 1017.78 530.764L1017.5 523.559C1017.33 519.607 1015.67 516.012 1013.04 513.407C1010.27 510.612 1006.45 508.832 1002.3 508.835L979.354 508.772L979.338 508.772L979.322 508.772L956.377 508.835C952.224 508.832 948.409 510.612 945.636 513.407C943.006 516.012 941.342 519.607 941.177 523.559Z" fill="#237EE5"/>
<path d="M941.051 526.801C943.025 549.757 960.968 597.765 979.234 597.733C979.268 597.733 979.303 597.733 979.338 597.733C979.372 597.733 979.407 597.733 979.442 597.733C997.707 597.765 1015.65 549.757 1017.62 526.801L1017.78 530.765C1018.59 550.626 999.205 606.832 979.442 606.798C979.407 606.798 979.372 606.798 979.338 606.797C979.303 606.798 979.268 606.798 979.234 606.798C959.471 606.832 940.085 550.626 940.896 530.765L941.051 526.801Z" fill="#1D6BC3"/>
<path d="M1006.65 502.259L952.366 502.263C940.889 502.262 931.181 492.016 930.695 479.358L930.438 472.384C929.961 459.754 938.884 449.497 950.387 449.489L1004.67 449.484C1016.15 449.486 1025.86 459.732 1026.34 472.39L1026.6 479.364C1027.06 492.031 1018.13 502.26 1006.65 502.259Z" fill="#237EE5"/>
<path d="M1011.56 491.448C1010.35 491.851 1009.08 492.053 1007.8 492.065L950.5 492.01C946.977 492.011 943.611 490.505 940.998 487.766C938.412 485.018 936.884 481.381 936.732 477.507L936.612 474.287C936.365 467.913 940.019 462.204 945.478 460.388C946.689 459.986 947.961 459.784 949.236 459.771L1006.54 459.826C1013.82 459.842 1019.98 466.335 1020.28 474.338L1020.4 477.558C1020.67 483.923 1017.04 489.624 1011.56 491.448Z" fill="#91BFF2"/>
<path opacity="0.7" d="M945.938 461.786C947.02 461.426 948.155 461.238 949.318 461.231L1006.62 461.286C1013.16 461.295 1018.69 467.142 1018.97 474.331L1019.09 477.551C1019.21 480.421 1018.46 483.138 1017.01 485.395C1015.59 487.606 1013.49 489.255 1011.12 490.043C1010.04 490.403 1008.9 490.591 1007.74 490.598L950.44 490.543C943.902 490.534 938.363 484.686 938.09 477.498L937.971 474.278C937.846 471.408 938.593 468.691 940.051 466.434C941.467 464.222 943.569 462.574 945.938 461.786ZM945.065 458.975C939.142 460.945 935.01 467.035 935.3 474.28L935.42 477.5C935.77 486.308 942.546 493.485 950.556 493.479L1007.86 493.534C1009.3 493.527 1010.71 493.311 1012 492.883C1017.92 490.912 1022.06 484.823 1021.77 477.577L1021.65 474.357C1021.3 465.549 1014.52 458.372 1006.51 458.378L949.21 458.324C947.754 458.302 946.353 458.546 945.065 458.975Z" fill="white"/>
<path d="M930.686 479.36C931.17 491.985 940.784 499.515 952.266 499.525L1006.58 499.561C1018.06 499.571 1027.1 492.072 1026.61 479.447C1027.1 492.072 1018.17 502.318 1006.67 502.317L952.355 502.28C940.898 502.262 931.179 492.013 930.686 479.36Z" fill="#1858A0"/>
<path d="M962.72 473.122L964.358 473.135L964.418 474.981L964.485 476.785L962.841 476.832L961.188 476.819L959.534 476.806L957.896 476.793L956.243 476.78L954.589 476.768L952.944 476.768L952.89 474.891L952.83 473.045L954.468 473.058L954.407 471.194L956.061 471.207L957.714 471.22L959.353 471.233L961.006 471.246L962.66 471.259L962.72 473.122Z" fill="#1858A0"/>
<path d="M1001.85 473.403L1003.49 473.416L1003.55 475.262L1003.61 477.065L1001.97 477.113L1000.32 477.1L998.663 477.087L997.025 477.074L995.371 477.061L993.718 477.048L992.073 477.048L992.019 475.172L991.959 473.326L993.597 473.338L993.536 471.475L995.19 471.488L996.843 471.501L998.481 471.513L1000.13 471.526L1001.79 471.539L1001.85 473.403Z" fill="#1858A0"/>
<path d="M933.065 607.206L933.513 607.401C933.417 607.267 933.32 607.132 933.222 606.998C938.508 605.832 935.88 600.228 939.159 604.663L932.69 574.229C932.504 575.577 931.771 576.845 930.557 577.672C928.705 578.935 926.305 578.782 924.639 577.454L933.065 607.206Z" fill="#237EE5"/>
<circle r="4.98933" transform="matrix(-0.994058 0.108856 0.108856 0.994058 928.052 574.816)" fill="#65A5ED"/>
<path d="M941.176 523.559L940.894 530.764C940.815 532.701 940.928 534.982 941.215 537.524C935.911 535.335 932.029 530.236 932.115 524.236C932.228 516.338 938.812 510.028 946.82 510.143C947.691 510.156 948.824 510.259 949.741 510.421C948.217 511.187 946.829 512.203 945.634 513.407C943.005 516.012 941.341 519.607 941.176 523.559Z" fill="#113F73"/>
<path d="M932.114 524.465C932.129 530.365 935.979 535.363 941.215 537.524C941.277 538.073 941.347 538.634 941.425 539.207L932.615 572.82C931.759 570.869 929.707 569.614 927.48 569.868C926.021 570.035 924.781 570.815 923.988 571.921L932.088 524.303L932.095 524.346C932.101 524.385 932.107 524.425 932.114 524.465Z" fill="#237EE5"/>
<path d="M930.658 605.245C930.428 603.678 931.392 602.182 932.914 601.745L937.569 600.409C939.527 599.847 941.498 601.255 941.601 603.29L942.449 620.182C942.522 621.65 941.575 622.975 940.163 623.38L939.165 623.667C937.66 624.099 936.065 623.365 935.415 621.94L932.11 614.7C932.048 614.564 932.005 614.42 931.984 614.273L930.658 605.245Z" fill="#65A5ED"/>
<path d="M941.437 601.658C940.462 600.308 938.577 600.004 937.227 600.978C935.652 602.116 935.547 604.424 937.012 605.699L943.297 611.167C944.017 611.795 945.075 611.843 945.85 611.283C946.771 610.619 946.978 609.333 946.314 608.413L941.437 601.658Z" fill="#65A5ED"/>
<path d="M1017.47 523.559L1017.75 530.764C1017.83 532.701 1017.72 534.982 1017.43 537.524C1022.74 535.335 1026.62 530.236 1026.53 524.236C1026.42 516.338 1019.84 510.028 1011.83 510.143C1010.96 510.156 1009.82 510.259 1008.91 510.421C1010.43 511.187 1011.82 512.203 1013.01 513.407C1015.64 516.012 1017.31 519.607 1017.47 523.559Z" fill="#113F73"/>
<path opacity="0.4" d="M1004.86 515.582C1008.35 515.085 1009.13 513.461 1006.23 512.53C1006.22 512.523 1006.21 512.521 1006.19 512.518C1006.18 512.516 1006.17 512.514 1006.16 512.507C1004.01 511.825 1001.02 511.393 997.823 511.384L979.036 511.349L960.25 511.384C957.05 511.393 954.059 511.825 951.911 512.507C951.904 512.514 951.891 512.516 951.878 512.518C951.865 512.521 951.853 512.523 951.846 512.53C948.946 513.461 949.722 515.085 953.216 515.582C966.974 517.51 991.099 517.51 1004.86 515.582Z" fill="#113F73"/>
<ellipse cx="945.253" cy="523.926" rx="3.43399" ry="14.0805" transform="rotate(16.1018 945.253 523.926)" fill="#113F73"/>
<path d="M947.682 511.796V518.995C946.79 521.241 944.876 526.046 944.36 527.302C943.843 528.557 940.575 529.609 939.006 529.978C938.668 527.456 938.065 521.912 938.36 519.918C938.729 517.426 942.698 513.365 943.344 512.811C943.861 512.368 946.452 511.95 947.682 511.796Z" fill="#113F73"/>
<ellipse rx="3.43399" ry="14.0805" transform="matrix(-0.96077 0.277345 0.277345 0.96077 1013.04 523.926)" fill="#113F73"/>
<path d="M1010.6 511.796V518.995C1011.5 521.241 1013.41 526.046 1013.93 527.302C1014.44 528.557 1017.71 529.609 1019.28 529.978C1019.62 527.456 1020.22 521.912 1019.92 519.918C1019.56 517.426 1015.59 513.365 1014.94 512.811C1014.42 512.368 1011.83 511.95 1010.6 511.796Z" fill="#113F73"/>
</g>
<path d="M829.649 742.749L829.852 731.136L838.089 730.576C840.037 736.597 859.465 735.507 858.588 742.175L829.649 742.749Z" fill="#1858A0"/>
<path d="M802.602 740.263L803.208 728.849L810.807 728.99C811.312 730.14 812.035 730.396 812.996 731.162C817.722 734.928 826.558 734.915 825.731 739.554L802.602 740.263Z" fill="#1858A0"/>
<path d="M829.852 731.146V727.454H838.292V731.146C834.494 732.623 831.082 731.762 829.852 731.146Z" fill="#C8DFF9"/>
<path d="M803.055 728.972V725.716H810.783V728.972C807.434 730.274 804.14 729.515 803.055 728.972Z" fill="#C8DFF9"/>
<path opacity="0.8" d="M852.659 519.796C852.785 519.338 853.201 519.021 853.676 519.021L881.174 519.021C881.871 519.021 882.376 519.684 882.192 520.355L872.327 556.248C872.095 557.092 871.327 557.677 870.452 557.677L842.248 557.677L852.659 519.796Z" fill="#1858A0"/>
<path d="M853.393 522.638C853.503 522.238 853.867 521.961 854.281 521.96L878.408 521.925C879.017 521.924 879.46 522.504 879.298 523.092L870.251 556.011L844.211 556.048L853.393 522.638Z" fill="#E9F2FC"/>
<path d="M842.775 665.736C842.564 652.232 841.719 611.81 841.191 593.348C835.7 595.398 819.301 600.538 801.366 591.887C799.696 599.184 798.201 610.349 801.366 627.757C800.663 636.021 801.366 655.186 801.366 670.22C800.575 677.693 799.467 699.232 801.366 725.607C801.366 725.607 806.158 728.999 812.18 725.607C813.235 708.639 816.328 674.925 816.75 671.338C817.172 667.751 820.536 646.746 822.604 637.251C824.313 648.065 824.512 659.652 825.763 665.736C825.763 665.736 826.335 712.508 827.214 727.454C827.214 727.454 833.887 729.893 840.929 727.454C841.632 714.002 842.986 679.24 842.775 665.736Z" fill="#65A5ED"/>
<path opacity="0.8" d="M830.619 487.997C830.844 489.798 829.212 491.187 828.367 491.656C825.89 489.179 825.834 484.244 826.116 482.086C828.93 488.56 830.338 485.745 830.619 487.997Z" fill="#91BFF2"/>
<path d="M823.582 503.195C823.582 508.149 824.895 512.203 825.552 513.61C815.419 519.465 809.133 516.049 807.257 513.61C808.382 510.007 807.726 507.23 807.257 506.292C805.568 502.07 801.514 491.993 798.812 485.463C795.435 477.3 805.286 477.863 814.293 473.359C823.3 468.856 825.552 478.707 825.834 480.678C826.678 485.463 828.93 492.5 829.211 495.314C829.493 498.129 828.648 498.41 828.367 498.973C828.142 499.424 825.083 501.976 823.582 503.195Z" fill="#C8DFF9"/>
<path d="M794.574 526.376L795.563 525.684C794.297 539.399 797.199 551.516 798.2 556.279C792.675 549.039 792.038 536.381 792.679 529.526C792.798 528.245 793.52 527.114 794.574 526.376Z" fill="#1858A0"/>
<g style="mix-blend-mode:multiply" opacity="0.3">
<path d="M794.574 526.376L795.563 525.684C794.297 539.399 797.199 551.516 798.2 556.279C792.675 549.039 792.038 536.381 792.679 529.526C792.798 528.245 793.52 527.114 794.574 526.376Z" fill="#113F73"/>
</g>
<path d="M870.244 548.217C870.684 547.426 871.523 545.359 871.523 543.882C871.523 542.036 872.842 539.926 873.37 539.135C873.792 538.502 875.128 535.706 875.743 534.388C876.447 534.475 877.537 535.39 876.271 538.344C875.831 539.575 875.427 541.667 877.326 540.19C879.225 538.713 878.82 535.706 878.381 534.388L878.908 532.541C881.897 534.212 884.447 537.289 883.128 543.355C882.753 545.083 881.397 546.132 879.097 547.912C877.887 548.848 876.416 549.986 874.688 551.531C874.672 551.546 874.655 551.561 874.638 551.576C874.648 551.581 874.658 551.586 874.668 551.591C873.819 552.86 872.872 554.308 871.861 555.853C865.991 564.829 857.955 577.114 854.355 577.114C852.103 577.864 849.053 573.43 846.324 568.189L856.729 560.234C857.104 559.651 858.343 558.612 860.42 556.872C862.698 554.963 865.984 552.209 870.24 548.288C870.241 548.264 870.243 548.24 870.244 548.217Z" fill="#C8DFF9"/>
<path opacity="0.5" d="M875.781 534.242C874.734 536.309 872.57 540.553 872.288 540.993C871.934 541.543 871.581 542.956 871.581 543.858C871.581 544.744 870.82 546.694 870.241 548.132L865.797 552.074C865.005 552.754 864.195 553.444 863.401 554.122L863.401 554.122C860.293 556.772 857.413 559.227 856.754 560.095L857.644 561.735L870.776 548.671C871.12 548.425 871.457 548.101 871.769 547.683C871.793 547.673 871.86 547.503 872.009 547.223C872.255 546.319 872.489 545.152 872.664 544.142L872.664 544.141C872.733 543.739 872.796 543.374 872.852 543.083C873.033 542.142 873.243 541.607 874.044 539.559L874.044 539.559L874.259 539.008C874.598 537.731 874.967 536.711 875.26 535.9C875.512 535.202 875.708 534.66 875.781 534.242Z" fill="#91BFF2"/>
<path d="M868.107 550.333C867.937 550.19 867.919 549.935 868.067 549.769L869.577 548.072C869.719 547.913 869.961 547.895 870.125 548.032L874.604 551.77C874.806 551.939 874.837 552.238 874.674 552.444L873.363 554.108C873.193 554.324 872.878 554.356 872.668 554.179L868.107 550.333Z" fill="#65A5ED"/>
<rect width="4.6027" height="4.54833" rx="0.97252" transform="matrix(0.777497 0.628887 -0.650124 0.759828 872.203 548.689)" fill="#113F73"/>
<rect width="4.40666" height="4.54833" rx="0.97252" transform="matrix(0.777497 0.628887 -0.650124 0.759828 872.355 548.813)" fill="#1858A0"/>
<path d="M872.117 550.088C872.292 549.884 872.603 549.855 872.812 550.024L874.556 551.435C874.765 551.604 874.792 551.906 874.618 552.11L873.201 553.766C873.026 553.97 872.715 553.999 872.506 553.83L870.762 552.419C870.554 552.25 870.526 551.948 870.7 551.744L871.409 550.916L872.117 550.088Z" fill="#E9F2FC"/>
<path d="M847.961 541.859C846.889 542.762 846.011 544.594 845.705 545.397C843.899 547.137 842.578 549.217 842.729 544.114C842.918 537.736 841.938 535.019 843.501 532.99C846.486 529.115 847.353 528.562 850.066 529.1L848.789 533.822C847.646 534.584 847.029 533.771 847.092 535.391C847.182 537.672 848.453 536.099 849.077 535.027C850.446 532.302 851.777 532.534 852.27 532.991C851.69 534.244 850.478 536.923 850.277 537.616C850.026 538.483 849.301 540.73 847.961 541.859Z" fill="#C8DFF9"/>
<path d="M804.026 519.134C804.746 517.677 805.509 515.631 805.596 513.666C805.619 513.163 805.965 512.716 806.463 512.641C811.962 511.819 822.085 510.758 825.936 512.012C826.248 512.113 826.452 512.393 826.509 512.716C826.9 514.945 827.669 517.929 828.592 519.599C829.997 520.061 831.313 520.595 832.489 521.201C834.228 521.718 835.747 522.084 837.087 522.407C843.267 523.896 845.625 524.464 848.05 534.652C850.16 543.514 854.732 555.4 856.754 560.235L846.349 568.19C844.285 564.225 842.404 559.798 841.193 556.807C841.544 567.181 842.037 589.09 841.193 593.732C835.302 596.457 819.091 599.956 801.367 592.149C802.158 589.512 803.266 581.494 801.367 570.522C800.716 566.762 799.847 563.161 798.967 559.512C796.636 549.85 794.224 539.852 795.564 525.685C797.059 524.63 800.786 521.887 803.74 519.355C803.829 519.279 803.924 519.206 804.026 519.134Z" fill="#1858A0"/>
<path opacity="0.5" fill-rule="evenodd" clip-rule="evenodd" d="M828.565 519.553C827.653 517.874 826.895 514.924 826.507 512.716C826.451 512.393 826.246 512.113 825.934 512.012C822.083 510.758 811.961 511.819 806.461 512.641C805.963 512.716 805.617 513.163 805.595 513.667C805.51 515.558 804.8 517.524 804.105 518.968C814.083 518.75 822.893 519.049 828.565 519.553Z" fill="#113F73"/>
<path d="M825.834 479.555C825.365 479.555 823.92 480.174 823.02 481.525" stroke="#113F73" stroke-width="1.12589"/>
<path d="M828.932 493.345C828.557 493.439 827.468 493.514 826.117 493.064" stroke="#113F73" stroke-width="0.861306"/>
<path d="M826.167 482.339C825.578 482.042 824.358 482.276 824.37 484.012" stroke="#113F73" stroke-width="0.481455"/>
<mask id="path-138-inside-1" fill="white">
<ellipse cx="825.968" cy="483.305" rx="0.353841" ry="1.17205" transform="rotate(-4.09103 825.968 483.305)"/>
</mask>
<ellipse cx="825.968" cy="483.305" rx="0.353841" ry="1.17205" transform="rotate(-4.09103 825.968 483.305)" fill="#113F73"/>
<path d="M825.635 483.329C825.654 483.604 825.636 483.828 825.606 483.962C825.589 484.034 825.579 484.041 825.595 484.013C825.601 484.004 825.72 483.808 826.002 483.788L826.1 485.16C826.48 485.133 826.687 484.865 826.769 484.731C826.862 484.579 826.915 484.41 826.947 484.265C827.015 483.966 827.033 483.601 827.007 483.23L825.635 483.329ZM826.002 483.788C826.284 483.768 826.43 483.945 826.437 483.953C826.458 483.978 826.446 483.972 826.42 483.904C826.371 483.776 826.321 483.556 826.301 483.281L824.929 483.379C824.955 483.75 825.026 484.109 825.135 484.394C825.188 484.533 825.264 484.693 825.378 484.83C825.478 484.951 825.721 485.187 826.1 485.16L826.002 483.788ZM826.301 483.281C826.281 483.006 826.3 482.781 826.33 482.647C826.346 482.576 826.357 482.568 826.34 482.596C826.334 482.605 826.215 482.802 825.933 482.822L825.835 481.45C825.456 481.477 825.248 481.745 825.166 481.879C825.074 482.031 825.021 482.2 824.988 482.345C824.921 482.643 824.902 483.008 824.929 483.379L826.301 483.281ZM825.933 482.822C825.651 482.842 825.505 482.665 825.498 482.656C825.478 482.631 825.49 482.637 825.516 482.705C825.565 482.834 825.615 483.054 825.635 483.329L827.007 483.23C826.98 482.86 826.91 482.501 826.801 482.215C826.748 482.076 826.671 481.916 826.558 481.779C826.458 481.658 826.214 481.422 825.835 481.45L825.933 482.822Z" fill="#113F73" mask="url(#path-138-inside-1)"/>
<path opacity="0.7" d="M817.615 494.522C816.062 495.023 815.339 494.731 815.172 494.522C815.788 500.052 814.946 506.069 808.985 506.069C809.102 506.091 808.219 506.448 808.333 506.471C807.997 506.462 807.755 506.562 807.406 506.547C807.552 506.965 808.264 510.047 807.541 512.487C809.751 512.26 814.333 511.77 814.984 511.62C815.636 511.47 815.782 509.843 815.774 509.049C819.523 507.341 822.898 505.648 823.58 505.122V503.197C823.537 503.246 823.489 503.297 823.436 503.35L823.491 503.11C820.704 502.723 817.421 500.772 817.615 498.581C817.615 498.031 817.551 497.126 817.615 496.678C817.615 495.81 817.475 495.013 817.615 494.522Z" fill="#91BFF2"/>
<path opacity="0.7" d="M821.428 620.707L822.61 637.312L819.254 623.064C817.419 622.729 815.115 616.156 814.191 613.367C815.515 616.758 819.567 619.673 821.428 620.707Z" fill="#1858A0"/>
<path opacity="0.3" d="M841.552 609.389C835.482 609.445 836.831 595.273 836.831 595.273L841.202 593.724L841.552 609.389Z" fill="#1858A0"/>
<path d="M813.932 505.858C814.55 502.594 815.945 496.415 817.599 494.576C814.245 495.461 812.769 492.225 813.022 489.865C813.275 487.506 813.553 486.874 817.109 487.169C820.842 490.076 820.985 493.446 819.679 481.271C821.485 480.833 823.779 477.894 824.7 476.479C824.516 475.633 828.371 472.003 821.161 467.389C820.031 466.666 818.638 466.38 817.109 466.407C816.575 466.942 815.153 468.13 813.736 468.603C811.964 469.193 810.829 467.74 809.63 468.27C809.188 468.991 808.067 470.551 807.122 471.023C805.942 471.614 806.361 469.538 803.829 471.305C802.464 472.165 801.355 472.983 800.656 473.61C800.169 474.046 799.718 474.506 799.304 474.985C798.879 475.751 797.649 477.483 796.129 478.286C794.608 479.089 795.495 482.811 796.129 484.572C796.308 485.818 796.734 487.011 797.426 488.09C799.632 491.531 806.311 501.839 807.524 506.949C808.948 506.172 810.143 505.878 813.932 505.858Z" fill="#113F73"/>
<path d="M858.592 742.162L829.621 742.723V743.901L858.564 743.354L858.592 742.162Z" fill="#113F73"/>
<path d="M825.731 739.545L802.566 740.233V741.308L825.701 740.632L825.731 739.545Z" fill="#113F73"/>
<path d="M843.766 736.589C843.925 736.133 844.38 734.89 845.821 735.002" stroke="#F4F9FE" stroke-width="0.640244"/>
<path d="M837.922 733.68C838.175 733.267 838.882 732.148 840.267 732.563" stroke="#F4F9FE" stroke-width="0.640244"/>
<path d="M845.855 737.186C846.015 736.73 846.47 735.486 847.911 735.599" stroke="#F4F9FE" stroke-width="0.640244"/>
<path d="M839.84 734.706C840.093 734.293 840.8 733.174 842.185 733.589" stroke="#F4F9FE" stroke-width="0.640244"/>
<path d="M847.836 737.569C847.995 737.113 848.45 735.869 849.891 735.982" stroke="#F4F9FE" stroke-width="0.640244"/>
<path d="M841.696 735.498C841.948 735.085 842.656 733.966 844.04 734.381" stroke="#F4F9FE" stroke-width="0.640244"/>
<path d="M816.757 734.824C816.953 734.463 817.504 733.483 818.855 733.737" stroke="#F4F9FE" stroke-width="0.640244"/>
<path d="M811.516 731.765C811.795 731.451 812.573 730.602 813.841 731.1" stroke="#F4F9FE" stroke-width="0.640244"/>
<path d="M818.675 735.552C818.87 735.191 819.422 734.211 820.773 734.464" stroke="#F4F9FE" stroke-width="0.640244"/>
<path d="M813.227 732.827C813.506 732.513 814.284 731.664 815.552 732.162" stroke="#F4F9FE" stroke-width="0.640244"/>
<path d="M820.488 736.241C820.683 735.88 821.234 734.901 822.585 735.154" stroke="#F4F9FE" stroke-width="0.640244"/>
<path d="M814.903 733.689C815.182 733.375 815.959 732.526 817.228 733.023" stroke="#F4F9FE" stroke-width="0.640244"/>
<path opacity="0.5" d="M829.742 736.286L829.864 731.161C833.105 732.581 836.576 731.836 838.284 731.161C838.893 732.612 842.319 734.049 844.19 734.651C841.115 737.848 829.742 736.286 829.742 736.286Z" fill="#091F39"/>
<path opacity="0.5" d="M803.055 732.895L803.226 729.014C806.33 730.186 809.603 729.502 810.783 729.014C811.364 729.888 812.04 730.769 813.647 731.627C812.222 733.325 806.894 733.538 803.055 732.895Z" fill="#091F39"/>
<path d="M864.316 531.692V508.727" stroke="#91BFF2" stroke-width="0.971994"/>
<path d="M864.316 494.634L864.316 469.084" stroke="url(#paint3_linear)" stroke-width="0.971994"/>
<circle opacity="0.2" cx="864.317" cy="532.664" r="4.85997" fill="#C8DFF9"/>
<circle r="1.94399" transform="matrix(-1 0 0 1 864.318 532.664)" fill="#237EE5"/>
<path d="M865.13 469.084H867.63L870.285 471.739V473.614M869.286 476.738L867.724 475.176" stroke="#65A5ED" stroke-width="0.679993"/>
<path d="M872.691 460.542L869.567 463.354V465.541" stroke="#65A5ED" stroke-width="0.679993"/>
<path d="M874.855 469.881L872.356 467.694H870.794" stroke="#65A5ED" stroke-width="0.679993"/>
<path d="M866.825 455.549H869.75L872.675 458.422V460.539L875.754 463.563V469.007L874.83 469.914V473.694L871.751 476.718H869.288C868.18 478.412 866.773 478.129 866.209 477.777L865.131 476.718V457.213L866.825 455.549Z" stroke="#91BFF2" stroke-width="0.777595"/>
<path d="M863.421 469.084H860.921L858.266 471.74V473.614M859.272 476.727L860.834 475.165" stroke="#65A5ED" stroke-width="0.679993"/>
<path d="M855.848 460.542L858.972 463.354V465.541" stroke="#65A5ED" stroke-width="0.679993"/>
<path d="M853.723 469.908L856.222 467.721H857.784" stroke="#65A5ED" stroke-width="0.679993"/>
<path d="M861.726 455.549H858.801L855.876 458.422V460.539L852.797 463.563V469.006L853.721 469.913V473.694L856.8 476.718H859.263C860.371 478.411 861.777 478.129 862.342 477.776L863.419 476.718V457.212L861.726 455.549Z" stroke="#91BFF2" stroke-width="0.777595"/>
<path d="M861.459 451.486H857.478L853.496 455.396V458.278L849.305 462.394V469.804L850.562 471.039V475.76L854.753 479.876H858.106C859.615 482.182 861.529 481.797 862.298 481.317L863.765 479.876H864.869L866.336 481.317C867.104 481.797 869.018 482.182 870.527 479.876H873.88L878.071 475.76V471.039L879.329 469.804V462.394L875.138 458.278V455.396L871.156 451.486H867.174L864.869 453.75L863.765 453.75L861.459 451.486Z" stroke="#237EE5" stroke-opacity="0.2" stroke-width="1.05849"/>
<circle cx="864.317" cy="501.659" r="7.29705" fill="#65A5ED"/>
<circle opacity="0.2" cx="864.317" cy="501.658" r="9.38082" stroke="#65A5ED" stroke-width="0.971994"/>
<path fill-rule="evenodd" clip-rule="evenodd" d="M864.276 497.767C863.846 497.767 863.497 498.116 863.497 498.546V500.883H861.161C860.731 500.883 860.383 501.231 860.383 501.661C860.383 502.091 860.731 502.44 861.161 502.44H863.497V504.775C863.497 505.205 863.846 505.554 864.276 505.554C864.706 505.554 865.055 505.205 865.055 504.775V502.44H867.391C867.821 502.44 868.169 502.091 868.169 501.661C868.169 501.231 867.821 500.883 867.391 500.883H865.055V498.546C865.055 498.116 864.706 497.767 864.276 497.767Z" fill="#F4F9FE"/>
<g style="mix-blend-mode:multiply">
<ellipse cx="824.095" cy="742.927" rx="50.0758" ry="8.73973" fill="#C8DFF9"/>
</g>
<path d="M856.725 560.642L846.428 568.478C845.924 568.861 845.195 568.668 844.946 568.087L841.672 560.446C841.468 559.971 841.672 559.419 842.136 559.191L853.635 553.53C854.149 553.276 854.769 553.521 854.973 554.057L857.046 559.523C857.198 559.926 857.068 560.381 856.725 560.642Z" fill="#113F73"/>
<defs>
<filter id="filter0_f" x="942.744" y="343.611" width="69.3938" height="104.874" filterUnits="userSpaceOnUse" color-interpolation-filters="sRGB">
<feFlood flood-opacity="0" result="BackgroundImageFix"/>
<feBlend mode="normal" in="SourceGraphic" in2="BackgroundImageFix" result="shape"/>
<feGaussianBlur stdDeviation="0.971994" result="effect1_foregroundBlur"/>
</filter>
<linearGradient id="paint0_linear" x1="978.7" y1="341.616" x2="978.7" y2="454.367" gradientUnits="userSpaceOnUse">
<stop stop-color="#237EE5" stop-opacity="0.7"/>
<stop offset="0.130208" stop-color="#237EE5" stop-opacity="0.5"/>
<stop offset="0.338542" stop-color="#237EE5" stop-opacity="0.424837"/>
<stop offset="1" stop-color="#237EE5" stop-opacity="0"/>
</linearGradient>
<linearGradient id="paint1_linear" x1="978.7" y1="341.615" x2="978.7" y2="454.367" gradientUnits="userSpaceOnUse">
<stop offset="0.385417" stop-color="#237EE5" stop-opacity="0.7"/>
<stop offset="1" stop-color="#237EE5" stop-opacity="0"/>
</linearGradient>
<linearGradient id="paint2_linear" x1="978.7" y1="341.616" x2="978.7" y2="454.367" gradientUnits="userSpaceOnUse">
<stop offset="0.385417" stop-color="#237EE5" stop-opacity="0.7"/>
<stop offset="1" stop-color="#237EE5" stop-opacity="0"/>
</linearGradient>
<linearGradient id="paint3_linear" x1="2.2886e+06" y1="477.032" x2="2.2886e+06" y2="494.534" gradientUnits="userSpaceOnUse">
<stop stop-color="#91BFF2" stop-opacity="0"/>
<stop offset="1" stop-color="#91BFF2"/>
</linearGradient>
</defs>
</svg>
