<svg width="18" height="14" viewBox="0 0 18 14" fill="none" xmlns="http://www.w3.org/2000/svg">
<path d="M5.76626 10.662L2.29626 7.19202C2.10928 7.00504 1.85569 6.9 1.59126 6.9C1.32683 6.9 1.07324 7.00504 0.886259 7.19202C0.699281 7.379 0.594238 7.63259 0.594238 7.89702C0.594238 8.02795 0.620027 8.1576 0.670132 8.27856C0.720237 8.39953 0.793677 8.50944 0.886259 8.60202L5.06626 12.782C5.45626 13.172 6.08626 13.172 6.47626 12.782L17.0563 2.20202C17.2432 2.01504 17.3483 1.76145 17.3483 1.49702C17.3483 1.23259 17.2432 0.978998 17.0563 0.792021C16.8693 0.605043 16.6157 0.5 16.3513 0.5C16.0868 0.5 15.8332 0.605043 15.6463 0.792021L5.76626 10.662Z" fill="black"/>
</svg>
