<svg width="39" height="35" viewBox="0 0 39 35" fill="none" xmlns="http://www.w3.org/2000/svg">
<path d="M9.7253 14.358L16.5623 3.40482C16.8273 2.97189 17.1996 2.61513 17.643 2.36928C18.0865 2.12343 18.5859 1.99688 19.0926 2.00195C19.4917 1.98751 19.8896 2.0534 20.2628 2.19573C20.636 2.33805 20.977 2.55392 21.2656 2.83057C21.5542 3.10723 21.7845 3.43906 21.9429 3.80645C22.1014 4.17383 22.1847 4.56933 22.1881 4.96956V12.8202H34.0048C34.4415 12.8344 34.8702 12.9411 35.2627 13.1332C35.6553 13.3253 36.0029 13.5986 36.2825 13.9349C36.5622 14.2713 36.7677 14.6632 36.8854 15.0848C37.0032 15.5065 37.0306 15.9483 36.9657 16.3814L34.8124 30.3021C34.7205 31.0461 34.3607 31.7308 33.8006 32.2276C33.2405 32.7244 32.5186 32.9991 31.7707 33H14.1128C13.2723 33.0033 12.4426 32.8092 11.6903 32.4334L9.75222 31.4622M9.7253 14.358V31.3813H3.34587C2.98892 31.3813 2.6466 31.2391 2.3942 30.9862C2.1418 30.7332 2 30.3901 2 30.0323V15.7069C2 15.3491 2.1418 15.006 2.3942 14.7531C2.6466 14.5001 2.98892 14.358 3.34587 14.358H9.7253Z" stroke="#FF8A1E" stroke-width="3" stroke-linecap="round" stroke-linejoin="round"/>
</svg>
