<svg width="25" height="26" viewBox="0 0 25 26" fill="none" xmlns="http://www.w3.org/2000/svg">
<path d="M17.2643 13.9028C18.4593 12.9626 19.3315 11.6734 19.7596 10.2144C20.1877 8.75547 20.1505 7.19934 19.653 5.76254C19.1556 4.32574 18.2226 3.07972 16.984 2.19782C15.7455 1.31593 14.2628 0.842014 12.7423 0.842014C11.2218 0.842014 9.73914 1.31593 8.50055 2.19782C7.26195 3.07972 6.32903 4.32574 5.83157 5.76254C5.33411 7.19934 5.29685 8.75547 5.72498 10.2144C6.1531 11.6734 7.02532 12.9626 8.22029 13.9028C6.17269 14.7231 4.38608 16.0838 3.05094 17.8396C1.7158 19.5955 0.88217 21.6808 0.638929 23.8731C0.621322 24.0332 0.635414 24.1952 0.680401 24.3498C0.725388 24.5044 0.800389 24.6487 0.901121 24.7743C1.10456 25.028 1.40046 25.1905 1.72372 25.2261C2.04699 25.2617 2.37114 25.1673 2.62486 24.9639C2.87859 24.7605 3.04111 24.4646 3.07667 24.1413C3.34431 21.7586 4.48042 19.5581 6.26793 17.9602C8.05544 16.3622 10.369 15.4788 12.7667 15.4788C15.1643 15.4788 17.4779 16.3622 19.2654 17.9602C21.0529 19.5581 22.189 21.7586 22.4567 24.1413C22.4898 24.4408 22.6327 24.7174 22.8578 24.9177C23.0829 25.1181 23.3742 25.2279 23.6756 25.2261H23.8096C24.1291 25.1893 24.4212 25.0278 24.6221 24.7766C24.823 24.5255 24.9165 24.2051 24.8822 23.8853C24.6378 21.6867 23.7997 19.5961 22.4577 17.8376C21.1157 16.079 19.3204 14.7188 17.2643 13.9028ZM12.7423 13.0374C11.778 13.0374 10.8354 12.7515 10.0336 12.2157C9.23186 11.68 8.60696 10.9186 8.23794 10.0277C7.86893 9.13681 7.77238 8.15652 7.9605 7.21077C8.14862 6.26502 8.61297 5.39629 9.29482 4.71444C9.97666 4.0326 10.8454 3.56825 11.7911 3.38013C12.7369 3.19201 13.7172 3.28856 14.6081 3.65757C15.4989 4.02659 16.2604 4.65149 16.7961 5.45326C17.3318 6.25503 17.6178 7.19765 17.6178 8.16193C17.6178 9.45498 17.1041 10.6951 16.1898 11.6094C15.2755 12.5237 14.0354 13.0374 12.7423 13.0374Z" fill="#6AAFE0"/>
</svg>
