<svg width="28" height="28" viewBox="0 0 28 28" fill="none" xmlns="http://www.w3.org/2000/svg">
<path d="M13.7353 13.3747C15.7468 13.3747 17.3112 11.7357 17.3112 9.72431C17.3112 7.71288 15.6723 6.14844 13.6608 6.14844C11.6494 6.14844 10.085 7.78738 10.085 9.72431C10.085 11.7357 11.7239 13.3747 13.7353 13.3747ZM13.6608 7.63839C13.7353 7.63839 13.7353 7.63839 13.6608 7.63839C14.8528 7.63839 15.8213 8.60685 15.8213 9.79881C15.8213 10.9908 14.8528 11.8847 13.6608 11.8847C12.4689 11.8847 11.5749 10.9163 11.5749 9.79881C11.5749 8.60685 12.5434 7.63839 13.6608 7.63839Z" fill="white"/>
<path d="M24.7606 12.9277C23.3451 11.6613 21.4827 10.9908 19.5458 11.0653H18.9498C18.8008 11.6613 18.5773 12.1828 18.2793 12.6297C18.7263 12.5552 19.0988 12.5552 19.5458 12.5552C20.9612 12.4807 22.3767 12.9277 23.4941 13.7472V19.111H24.9841V13.1512L24.7606 12.9277Z" fill="white"/>
<path d="M17.832 6.29735C18.2045 5.40338 19.2475 4.9564 20.2159 5.32888C21.1099 5.70137 21.5569 6.74433 21.1844 7.7128C20.8864 8.38328 20.2159 8.83026 19.5455 8.83026C19.3965 8.83026 19.173 8.83026 19.024 8.75576C19.0985 9.12825 19.0985 9.50074 19.0985 9.79873V10.2457C19.2475 10.2457 19.3965 10.3202 19.5455 10.3202C21.4079 10.3202 22.8978 8.83026 22.8978 7.04232C22.8978 5.17989 21.4079 3.68994 19.62 3.68994C18.428 3.68994 17.385 4.28592 16.7891 5.32888C17.1615 5.55238 17.534 5.85037 17.832 6.29735Z" fill="white"/>
<path d="M9.33953 12.7042C9.04154 12.2572 8.81805 11.7357 8.66905 11.1398H8.07307C6.13614 11.0653 4.27371 11.7358 2.85826 12.9277L2.63477 13.1512V19.111H4.12471V13.7472C5.31667 12.9277 6.65762 12.4807 8.07307 12.5552C8.52006 12.5552 8.96704 12.6297 9.33953 12.7042Z" fill="white"/>
<path d="M8.07352 10.2458C8.22252 10.2458 8.37151 10.2458 8.52051 10.1713V9.72433C8.52051 9.35185 8.52051 8.97936 8.595 8.68137C8.44601 8.75587 8.22252 8.75587 8.07352 8.75587C7.10506 8.75587 6.28559 7.9364 6.28559 6.96793C6.28559 5.99947 7.10506 5.17999 8.07352 5.17999C8.8185 5.17999 9.48897 5.62698 9.78696 6.29746C10.085 5.92497 10.5319 5.55248 10.9044 5.25449C9.93596 3.69005 7.92453 3.16857 6.36008 4.13703C4.79564 5.1055 4.27416 7.11693 5.24262 8.68137C5.8386 9.64984 6.88157 10.2458 8.07352 10.2458Z" fill="white"/>
<path d="M19.8437 17.3975L19.6947 17.174C18.2047 15.5351 16.1188 14.5666 13.8839 14.6411C11.649 14.5666 9.48855 15.5351 7.9986 17.174L7.84961 17.3975V23.0593C7.84961 23.7298 8.37109 24.3257 9.11606 24.3257H18.6517C19.3222 24.3257 19.9182 23.7298 19.9182 23.0593V17.3975H19.8437ZM18.3537 22.8358H9.33956V17.919C10.5315 16.727 12.1705 16.131 13.8839 16.131C15.5228 16.0565 17.1618 16.727 18.3537 17.919V22.8358Z" fill="white"/>
</svg>
