<svg width="19" height="20" viewBox="0 0 19 20" fill="none" xmlns="http://www.w3.org/2000/svg">
<path d="M15.3251 16.7247C14.6867 15.7996 13.8607 15.0493 12.9122 14.5331C11.9637 14.0168 10.9186 13.7487 9.85924 13.7497C8.79991 13.7487 7.75482 14.0168 6.80632 14.5331C5.85781 15.0493 5.03179 15.7996 4.39334 16.7247M15.3251 16.7247C16.571 15.5119 17.4497 13.9133 17.8463 12.1408C18.2429 10.3683 18.1378 8.50579 17.545 6.80018C16.9522 5.09457 15.8996 3.62648 14.5269 2.5906C13.1542 1.55472 11.5262 1 9.85878 1C8.19138 1 6.56337 1.55472 5.19065 2.5906C3.81794 3.62648 2.76538 5.09457 2.17256 6.80018C1.57974 8.50579 1.47467 10.3683 1.87129 12.1408C2.26791 13.9133 3.14747 15.5119 4.39334 16.7247M15.3251 16.7247C13.8212 18.1929 11.8746 19.0028 9.85924 18.9997C7.84359 19.0031 5.89754 18.1931 4.39334 16.7247M12.6004 7.74971C12.6004 8.54535 12.3116 9.30842 11.7975 9.87103C11.2835 10.4336 10.5862 10.7497 9.85924 10.7497C9.13223 10.7497 8.435 10.4336 7.92093 9.87103C7.40686 9.30842 7.11806 8.54535 7.11806 7.74971C7.11806 6.95406 7.40686 6.19099 7.92093 5.62838C8.435 5.06578 9.13223 4.74971 9.85924 4.74971C10.5862 4.74971 11.2835 5.06578 11.7975 5.62838C12.3116 6.19099 12.6004 6.95406 12.6004 7.74971Z" stroke="white" stroke-width="1.5" stroke-linecap="round" stroke-linejoin="round"/>
</svg>
