<svg width="18" height="19" viewBox="0 0 18 19" fill="none" xmlns="http://www.w3.org/2000/svg">
<path fill-rule="evenodd" clip-rule="evenodd" d="M2.91254 0.5H2.84928C2.55956 0.5 2.31032 0.5 2.09019 0.556765C1.7494 0.645879 1.43781 0.8365 1.18994 1.10751C0.942069 1.37852 0.767599 1.71933 0.68586 2.09219C0.635254 2.33309 0.635254 2.60445 0.635254 2.92289V6.38416C0.635254 6.70122 0.635254 6.97396 0.687125 7.21487C0.768557 7.5878 0.942746 7.92879 1.19039 8.20004C1.43804 8.47129 1.74947 8.66222 2.09019 8.75167C2.31032 8.80705 2.55829 8.80705 2.84928 8.80705H6.01218C6.3019 8.80705 6.55113 8.80705 6.77127 8.75029C7.11206 8.66117 7.42365 8.47055 7.67152 8.19955C7.91939 7.92854 8.09386 7.58772 8.1756 7.21487C8.2262 6.97396 8.2262 6.7026 8.2262 6.38416V2.92289C8.2262 2.60584 8.2262 2.33309 8.17433 2.09219C8.0929 1.71925 7.91871 1.37826 7.67106 1.10701C7.42342 0.835759 7.11198 0.64483 6.77127 0.55538C6.55113 0.5 6.30316 0.5 6.01218 0.5H2.91254ZM2.38497 1.90389C2.43937 1.89005 2.52413 1.88451 2.91254 1.88451H5.94892C6.33859 1.88451 6.42209 1.88866 6.47649 1.90389C6.59014 1.93363 6.69404 1.99724 6.77666 2.08767C6.85929 2.17809 6.91742 2.29179 6.9446 2.41616C6.95725 2.47431 6.96104 2.56569 6.96104 2.99212V6.31494C6.96104 6.74137 6.95725 6.83274 6.94333 6.89228C6.91615 7.01665 6.85803 7.13035 6.7754 7.22077C6.69277 7.31119 6.58887 7.3748 6.47522 7.40455C6.42335 7.41701 6.33985 7.42254 5.94892 7.42254H2.91254C2.52287 7.42254 2.43937 7.41839 2.38497 7.40316C2.27132 7.37342 2.16742 7.30981 2.08479 7.21939C2.00216 7.12896 1.94404 7.01526 1.91686 6.89089C1.90547 6.83413 1.90041 6.74275 1.90041 6.31494V2.99212C1.90041 2.56569 1.90421 2.47431 1.91812 2.41478C1.9453 2.29041 2.00343 2.1767 2.08606 2.08628C2.16868 1.99586 2.27258 1.93225 2.38623 1.90251L2.38497 1.90389ZM11.7686 0.5H11.7054C11.4157 0.5 11.1664 0.5 10.9463 0.556765C10.6055 0.645879 10.2939 0.8365 10.046 1.10751C9.79817 1.37852 9.6237 1.71933 9.54197 2.09219C9.49136 2.33309 9.49136 2.60445 9.49136 2.92289V6.38416C9.49136 6.70122 9.49136 6.97396 9.54323 7.21487C9.62466 7.5878 9.79885 7.92879 10.0465 8.20004C10.2941 8.47129 10.6056 8.66222 10.9463 8.75167C11.1664 8.80705 11.4144 8.80705 11.7054 8.80705H14.8683C15.158 8.80705 15.4072 8.80705 15.6274 8.75029C15.9682 8.66117 16.2798 8.47055 16.5276 8.19955C16.7755 7.92854 16.95 7.58772 17.0317 7.21487C17.0823 6.97396 17.0823 6.7026 17.0823 6.38416V2.92289C17.0823 2.60584 17.0823 2.33309 17.0304 2.09219C16.949 1.71925 16.7748 1.37826 16.5272 1.10701C16.2795 0.835759 15.9681 0.64483 15.6274 0.55538C15.4072 0.5 15.1593 0.5 14.8683 0.5H11.7686ZM11.2411 1.90389C11.2955 1.89005 11.3802 1.88451 11.7686 1.88451H14.805C15.1947 1.88451 15.2782 1.88866 15.3326 1.90389C15.4462 1.93363 15.5501 1.99724 15.6328 2.08767C15.7154 2.17809 15.7735 2.29179 15.8007 2.41616C15.8134 2.47431 15.8171 2.56569 15.8171 2.99212V6.31494C15.8171 6.74137 15.8121 6.83274 15.7994 6.89228C15.7723 7.01665 15.7141 7.13035 15.6315 7.22077C15.5489 7.31119 15.445 7.3748 15.3313 7.40455C15.2782 7.41839 15.1947 7.42254 14.805 7.42254H11.7686C11.379 7.42254 11.2955 7.41839 11.2411 7.40316C11.1274 7.37342 11.0235 7.30981 10.9409 7.21939C10.8583 7.12896 10.8001 7.01526 10.773 6.89089C10.7616 6.83413 10.7565 6.74275 10.7565 6.31494V2.99212C10.7565 2.56569 10.7603 2.47431 10.7742 2.41478C10.8014 2.29041 10.8595 2.1767 10.9422 2.08628C11.0248 1.99586 11.1287 1.93225 11.2423 1.90251L11.2411 1.90389ZM2.84928 10.1916H6.01218C6.3019 10.1916 6.55113 10.1916 6.77127 10.2483C7.11206 10.3374 7.42365 10.5281 7.67152 10.7991C7.91939 11.0701 8.09386 11.4109 8.1756 11.7837C8.2262 12.0247 8.2262 12.296 8.2262 12.6145V16.0757C8.2262 16.3928 8.2262 16.6655 8.17433 16.9064C8.0929 17.2794 7.91871 17.6204 7.67106 17.8916C7.42342 18.1629 7.11198 18.3538 6.77127 18.4432C6.55113 18.4986 6.30316 18.4986 6.01218 18.4986H2.84928C2.55956 18.4986 2.31032 18.4986 2.09019 18.4418C1.7494 18.3527 1.43781 18.1621 1.18994 17.8911C0.942069 17.6201 0.767599 17.2793 0.68586 16.9064C0.635254 16.6655 0.635254 16.3942 0.635254 16.0757V12.6145C0.635254 12.2974 0.635254 12.0247 0.687125 11.7837C0.768557 11.4108 0.942746 11.0698 1.19039 10.7986C1.43804 10.5273 1.74947 10.3364 2.09019 10.2469C2.31032 10.1916 2.55829 10.1916 2.84928 10.1916ZM2.91254 11.5761C2.52287 11.5761 2.43937 11.5802 2.38497 11.5955C2.27132 11.6252 2.16742 11.6888 2.08479 11.7792C2.00216 11.8696 1.94404 11.9834 1.91686 12.1077C1.90547 12.1645 1.90041 12.2559 1.90041 12.6837V16.0065C1.90041 16.4329 1.90421 16.5243 1.91812 16.5838C1.9453 16.7082 2.00343 16.8219 2.08606 16.9123C2.16868 17.0028 2.27258 17.0664 2.38623 17.0961C2.43937 17.11 2.52287 17.1141 2.91254 17.1141H5.94892C6.33859 17.1141 6.42209 17.1086 6.47649 17.0947C6.59014 17.065 6.69404 17.0014 6.77666 16.9109C6.85929 16.8205 6.91742 16.7068 6.9446 16.5825C6.95725 16.5243 6.96104 16.4329 6.96104 16.0065V12.6837C6.96104 12.2572 6.95725 12.1659 6.94333 12.1063C6.91615 11.982 6.85803 11.8683 6.7754 11.7778C6.69277 11.6874 6.58887 11.6238 6.47522 11.5941C6.42335 11.5816 6.33985 11.5761 5.94892 11.5761H2.91254ZM11.7686 10.1916H11.7054C11.4157 10.1916 11.1664 10.1916 10.9463 10.2483C10.6055 10.3374 10.2939 10.5281 10.046 10.7991C9.79817 11.0701 9.6237 11.4109 9.54197 11.7837C9.49136 12.0247 9.49136 12.296 9.49136 12.6145V16.0757C9.49136 16.3928 9.49136 16.6655 9.54323 16.9064C9.62466 17.2794 9.79885 17.6204 10.0465 17.8916C10.2941 18.1629 10.6056 18.3538 10.9463 18.4432C11.1664 18.5 11.4157 18.5 11.7054 18.5H14.8683C15.158 18.5 15.4072 18.5 15.6274 18.4432C15.9679 18.3539 16.2793 18.1632 16.5269 17.8922C16.7745 17.6212 16.9488 17.2805 17.0304 16.9078C17.0823 16.6669 17.0823 16.3942 17.0823 16.0771V12.6145C17.0823 12.2974 17.0823 12.0247 17.0304 11.7837C16.949 11.4108 16.7748 11.0698 16.5272 10.7986C16.2795 10.5273 15.9681 10.3364 15.6274 10.2469C15.4072 10.1916 15.1593 10.1916 14.8683 10.1916H11.7686ZM11.2411 11.5955C11.2955 11.5816 11.3802 11.5761 11.7686 11.5761H14.805C15.1947 11.5761 15.2782 11.5802 15.3326 11.5955C15.4462 11.6252 15.5501 11.6888 15.6328 11.7792C15.7154 11.8696 15.7735 11.9834 15.8007 12.1077C15.8134 12.1659 15.8171 12.2572 15.8171 12.6837V16.0065C15.8171 16.4329 15.8121 16.5243 15.7994 16.5838C15.7723 16.7082 15.7141 16.8219 15.6315 16.9123C15.5489 17.0028 15.445 17.0664 15.3313 17.0961C15.2782 17.11 15.1947 17.1141 14.805 17.1141H11.7686C11.379 17.1141 11.2955 17.1086 11.2411 17.0947C11.1274 17.065 11.0235 17.0014 10.9409 16.9109C10.8583 16.8205 10.8001 16.7068 10.773 16.5825C10.7616 16.5257 10.7565 16.4343 10.7565 16.0065V12.6837C10.7565 12.2572 10.7603 12.1659 10.7742 12.1063C10.8014 11.982 10.8595 11.8683 10.9422 11.7778C11.0248 11.6874 11.1287 11.6238 11.2423 11.5941L11.2411 11.5955Z" fill="white"/>
</svg>
