<svg width="20" height="28" viewBox="0 0 20 28" fill="none" xmlns="http://www.w3.org/2000/svg">
<path d="M7.14366 5.59848C6.76504 5.59848 6.40194 5.746 6.13422 6.0086C5.8665 6.2712 5.71609 6.62736 5.71609 6.99873L5.71609 23.2277L2.44697 20.0071C2.17816 19.7434 1.81357 19.5953 1.4334 19.5953C1.05324 19.5953 0.68865 19.7434 0.419834 20.0071C0.151019 20.2708 -3.19391e-07 20.6284 -3.05924e-07 21.0013C-2.92457e-07 21.3742 0.151019 21.7318 0.419834 21.9954L6.13009 27.5965C6.33084 27.7908 6.58576 27.9224 6.86269 27.9747C7.13963 28.027 7.42616 27.9977 7.68613 27.8905C7.94683 27.7855 8.17 27.6071 8.32751 27.3778C8.48501 27.1486 8.56981 26.8787 8.57122 26.6023L8.57122 6.99873C8.57122 6.62736 8.42082 6.2712 8.1531 6.0086C7.88538 5.746 7.52227 5.59848 7.14366 5.59848ZM12.3114 0.109479C12.0507 0.214527 11.8276 0.392917 11.6701 0.622167C11.5126 0.851417 11.4278 1.12127 11.4263 1.39771L11.4263 21.0013C11.4263 21.3726 11.5768 21.7288 11.8445 21.9914C12.1122 22.254 12.4753 22.4015 12.8539 22.4015C13.2325 22.4015 13.5956 22.254 13.8633 21.9914C14.1311 21.7288 14.2815 21.3726 14.2815 21.0013L14.2815 4.77232L17.5506 7.99291C17.6833 8.12415 17.8412 8.22832 18.0152 8.29941C18.1891 8.3705 18.3757 8.4071 18.5642 8.4071C18.7526 8.4071 18.9392 8.3705 19.1132 8.29941C19.2871 8.22832 19.445 8.12415 19.5777 7.99291C19.7115 7.86274 19.8177 7.70787 19.8902 7.53723C19.9627 7.3666 20 7.18358 20 6.99873C20 6.81388 19.9627 6.63086 19.8902 6.46022C19.8177 6.28959 19.7115 6.13472 19.5777 6.00455L13.8675 0.403533C13.6667 0.209237 13.4118 0.077619 13.1349 0.0252851C12.8579 -0.0270468 12.5714 0.00224821 12.3114 0.109479Z" fill="#404F79"/>
</svg>
