<svg width="22" height="17" viewBox="0 0 22 17" fill="none" xmlns="http://www.w3.org/2000/svg">
<path d="M1.87081 7.64119H10.8105V9.13114H1.87081V7.64119ZM0.380859 3.91632H7.8306V5.40627H0.380859V3.91632Z" fill="white"/>
<path d="M21.1787 8.09254L18.9438 2.87772C18.8863 2.74374 18.7908 2.62956 18.6692 2.54931C18.5475 2.46906 18.4049 2.42628 18.2591 2.42627H16.0242V0.936319C16.0242 0.73874 15.9457 0.549253 15.806 0.409543C15.6663 0.269833 15.4768 0.191345 15.2792 0.191345H3.35965V1.68129H14.5343V11.0352C14.195 11.2326 13.8981 11.495 13.6605 11.8075C13.423 12.1199 13.2495 12.4762 13.1501 12.8559H8.46868C8.28736 12.1536 7.85614 11.5416 7.25586 11.1346C6.65557 10.7275 5.92744 10.5533 5.20793 10.6447C4.48843 10.7361 3.82695 11.0868 3.34749 11.631C2.86804 12.1752 2.60352 12.8756 2.60352 13.6009C2.60352 14.3262 2.86804 15.0265 3.34749 15.5708C3.82695 16.115 4.48843 16.4656 5.20793 16.557C5.92744 16.6484 6.65557 16.4742 7.25586 16.0672C7.85614 15.6601 8.28736 15.0481 8.46868 14.3458H13.1501C13.3122 14.9852 13.6828 15.5523 14.2033 15.9574C14.7239 16.3624 15.3646 16.5824 16.0242 16.5824C16.6838 16.5824 17.3245 16.3624 17.8451 15.9574C18.3656 15.5523 18.7363 14.9852 18.8983 14.3458H20.4941C20.6916 14.3458 20.8811 14.2674 21.0208 14.1276C21.1605 13.9879 21.239 13.7985 21.239 13.6009V8.38606C21.239 8.28514 21.2185 8.18528 21.1787 8.09254ZM5.59457 15.0908C5.29989 15.0908 5.01182 15.0034 4.7668 14.8397C4.52178 14.676 4.33081 14.4433 4.21804 14.1711C4.10527 13.8988 4.07576 13.5992 4.13325 13.3102C4.19074 13.0212 4.33265 12.7557 4.54102 12.5473C4.74939 12.3389 5.01488 12.197 5.3039 12.1396C5.59292 12.0821 5.8925 12.1116 6.16475 12.2243C6.437 12.3371 6.6697 12.5281 6.83342 12.7731C6.99714 13.0181 7.08452 13.3062 7.08452 13.6009C7.08452 13.996 6.92754 14.375 6.64813 14.6544C6.36871 14.9338 5.98973 15.0908 5.59457 15.0908ZM16.0242 3.91621H17.7674L19.3647 7.64108H16.0242V3.91621ZM16.0242 15.0908C15.7295 15.0908 15.4415 15.0034 15.1964 14.8397C14.9514 14.676 14.7604 14.4433 14.6477 14.1711C14.5349 13.8988 14.5054 13.5992 14.5629 13.3102C14.6204 13.0212 14.7623 12.7557 14.9707 12.5473C15.179 12.3389 15.4445 12.197 15.7335 12.1396C16.0226 12.0821 16.3221 12.1116 16.5944 12.2243C16.8666 12.3371 17.0993 12.5281 17.2631 12.7731C17.4268 13.0181 17.5142 13.3062 17.5142 13.6009C17.5142 13.996 17.3572 14.375 17.0778 14.6544C16.7983 14.9338 16.4194 15.0908 16.0242 15.0908ZM19.7491 12.8559H18.8983C18.7342 12.2178 18.363 11.6522 17.8429 11.2477C17.3227 10.8432 16.6831 10.6228 16.0242 10.621V9.13103H19.7491V12.8559Z" fill="white"/>
</svg>
