<svg width="23" height="33" viewBox="0 0 23 33" fill="none" xmlns="http://www.w3.org/2000/svg">
<path d="M3.59375 30.6837L8.37436 24.3095M17.9356 30.6837L14.7485 24.3095L9.9679 19.5289L11.5614 9.96768M11.5614 3.59354C11.5614 4.01617 11.7293 4.42149 12.0282 4.72034C12.327 5.01918 12.7323 5.18707 13.155 5.18707C13.5776 5.18707 13.9829 5.01918 14.2818 4.72034C14.5806 4.42149 14.7485 4.01617 14.7485 3.59354C14.7485 3.1709 14.5806 2.76558 14.2818 2.46674C13.9829 2.16789 13.5776 2 13.155 2C12.7323 2 12.327 2.16789 12.0282 2.46674C11.7293 2.76558 11.5614 3.1709 11.5614 3.59354Z" stroke="#2667C7" stroke-width="3.18707" stroke-linecap="round" stroke-linejoin="round"/>
<path d="M2 16.3419L5.18707 11.5613L11.5612 9.96777L16.3418 14.7484L21.1224 16.3419" stroke="#2667C7" stroke-width="3.18707" stroke-linecap="round" stroke-linejoin="round"/>
</svg>
