<svg width="16" height="14" viewBox="0 0 16 14" fill="none" xmlns="http://www.w3.org/2000/svg">
<path d="M3.41917 1.53C3.55165 1.38782 3.62377 1.19978 3.62035 1.00548C3.61692 0.811175 3.53821 0.62579 3.40079 0.488377C3.26338 0.350964 3.078 0.272252 2.88369 0.268824C2.68939 0.265396 2.50135 0.337519 2.35917 0.469999L0.359171 2.47C0.218721 2.61062 0.139832 2.80125 0.139832 3C0.139832 3.19875 0.218721 3.38937 0.359171 3.53L2.35917 5.53C2.42783 5.60369 2.51063 5.66279 2.60263 5.70378C2.69463 5.74477 2.79395 5.76681 2.89465 5.76859C2.99535 5.77037 3.09538 5.75184 3.18877 5.71412C3.28216 5.6764 3.36699 5.62026 3.43821 5.54904C3.50943 5.47782 3.56557 5.39298 3.60329 5.2996C3.64102 5.20621 3.65954 5.10618 3.65776 5.00548C3.65599 4.90477 3.63394 4.80546 3.59295 4.71346C3.55196 4.62146 3.49286 4.53866 3.41917 4.47L2.69917 3.75H12.8892C13.0881 3.75 13.2788 3.67098 13.4195 3.53033C13.5602 3.38968 13.6392 3.19891 13.6392 3C13.6392 2.80109 13.5602 2.61032 13.4195 2.46967C13.2788 2.32902 13.0881 2.25 12.8892 2.25H2.69917L3.41917 1.53ZM12.3592 8.47C12.2187 8.61062 12.1398 8.80125 12.1398 9C12.1398 9.19875 12.2187 9.38937 12.3592 9.53L13.0792 10.25H2.88917C2.69026 10.25 2.49949 10.329 2.35884 10.4697C2.21819 10.6103 2.13917 10.8011 2.13917 11C2.13917 11.1989 2.21819 11.3897 2.35884 11.5303C2.49949 11.671 2.69026 11.75 2.88917 11.75H13.0792L12.3592 12.47C12.2855 12.5387 12.2264 12.6215 12.1854 12.7135C12.1444 12.8055 12.1224 12.9048 12.1206 13.0055C12.1188 13.1062 12.1373 13.2062 12.175 13.2996C12.2128 13.393 12.2689 13.4778 12.3401 13.549C12.4114 13.6203 12.4962 13.6764 12.5896 13.7141C12.683 13.7518 12.783 13.7704 12.8837 13.7686C12.9844 13.7668 13.0837 13.7448 13.1757 13.7038C13.2677 13.6628 13.3505 13.6037 13.4192 13.53L15.4192 11.53C15.5596 11.3894 15.6385 11.1987 15.6385 11C15.6385 10.8012 15.5596 10.6106 15.4192 10.47L13.4192 8.47C13.2785 8.32955 13.0879 8.25066 12.8892 8.25066C12.6904 8.25066 12.4998 8.32955 12.3592 8.47Z" fill="#8C8C8C"/>
</svg>
