<svg width="18" height="20" viewBox="0 0 18 20" fill="none" xmlns="http://www.w3.org/2000/svg">
<path d="M14.534 1.36L13.309 0H3.662C2.966 0 2.697 0.516 2.697 0.919V4.549H4.05V1.653C4.05 1.499 4.18 1.369 4.33 1.369H11.233C11.385 1.369 11.461 1.396 11.461 1.521V6.341H16.374C16.567 6.341 16.642 6.441 16.642 6.587V18.357C16.642 18.603 16.542 18.64 16.392 18.64H4.33C4.25562 18.6382 4.18485 18.6076 4.13261 18.5546C4.08037 18.5016 4.05076 18.4304 4.05 18.356V17.28H2.706V18.975C2.688 19.575 3.008 20 3.662 20H17.06C17.76 20 17.999 19.493 17.999 19.031V5.187L17.649 4.807L14.534 1.36ZM12.836 1.52L13.223 1.954L15.819 4.807L15.962 4.98H13.309C13.109 4.98 12.982 4.947 12.929 4.88C12.876 4.815 12.845 4.71 12.836 4.567V1.52ZM11.746 10.667H16.323V12.001H11.745L11.746 10.667ZM11.746 8.001H16.323V9.334H11.745L11.746 8.001ZM11.746 13.334H16.323V14.668H11.745L11.746 13.334ZM0 5.626V16.293H10.465V5.626H0ZM5.233 11.83L4.593 12.808H5.233V14H2.016L4.35 10.49L2.282 7.334H4.01L5.234 9.17L6.457 7.334H8.184L6.112 10.49L8.449 14H6.656L5.233 11.83Z" fill="#4C5A81"/>
</svg>
