<svg width="28" height="28" viewBox="0 0 28 28" fill="none" xmlns="http://www.w3.org/2000/svg">
<g clip-path="url(#clip0_1487_377)">
<path d="M12.25 5.25L13.125 3.5L14.875 2.625L13.125 1.75L12.25 0L11.375 1.75L9.625 2.625L11.375 3.5L12.25 5.25ZM4.375 8.75L5.83297 5.83352L8.75 4.375L5.83297 2.91648L4.375 0L2.91703 2.91648L0 4.375L2.91703 5.83352L4.375 8.75ZM23.625 15.75L22.167 18.6665L19.25 20.125L22.167 21.5835L23.625 24.5L25.083 21.5835L28 20.125L25.083 18.6665L23.625 15.75ZM27.487 5.1532L22.8468 0.512969C22.5055 0.170625 22.0577 0 21.6098 0C21.1619 0 20.714 0.170625 20.3722 0.512969L0.512969 20.3722C-0.170625 21.0558 -0.170625 22.1638 0.512969 22.8468L5.1532 27.487C5.495 27.8288 5.94289 27.9995 6.39023 27.9995C6.83812 27.9995 7.28602 27.8288 7.62781 27.487L27.487 7.62727C28.1706 6.94477 28.1706 5.83625 27.487 5.1532ZM19.6574 11.1267L16.8733 8.34258L21.6092 3.60664L24.3934 6.39078L19.6574 11.1267Z" fill="black"/>
</g>
<defs>
<clipPath id="clip0_1487_377">
<rect width="28" height="28" fill="white"/>
</clipPath>
</defs>
</svg>
