<svg width="13" height="14" viewBox="0 0 13 14" fill="none" xmlns="http://www.w3.org/2000/svg">
<path d="M8.44669 12.6869C8.47676 12.9124 8.4016 13.1529 8.22873 13.3107C8.1592 13.3804 8.07661 13.4357 7.98568 13.4734C7.89476 13.5111 7.79729 13.5305 7.69886 13.5305C7.60042 13.5305 7.50296 13.5111 7.41203 13.4734C7.32111 13.4357 7.23852 13.3804 7.16899 13.3107L4.1551 10.2968C4.07313 10.2167 4.0108 10.1187 3.97299 10.0105C3.93518 9.90224 3.92291 9.78674 3.93714 9.67299V5.82484L0.337012 1.21758C0.214959 1.0609 0.159887 0.86227 0.183828 0.665107C0.207769 0.467943 0.308778 0.288271 0.464782 0.16535C0.607585 0.0601274 0.765419 0 0.93077 0H11.4531C11.6184 0 11.7762 0.0601274 11.919 0.16535C12.0751 0.288271 12.1761 0.467943 12.2 0.665107C12.2239 0.86227 12.1689 1.0609 12.0468 1.21758L8.44669 5.82484V12.6869ZM2.46402 1.50318L5.44032 5.30624V9.45503L6.94351 10.9582V5.29873L9.91981 1.50318H2.46402Z" fill="white"/>
</svg>
