<svg width="24" height="24" viewBox="0 0 24 24" fill="none" xmlns="http://www.w3.org/2000/svg">
<path d="M12 18C12.34 18 12.6252 17.8848 12.8556 17.6544C13.086 17.424 13.2008 17.1392 13.2 16.8V13.2H16.83C17.17 13.2 17.45 13.0848 17.67 12.8544C17.89 12.624 18 12.3392 18 12C18 11.66 17.8848 11.3748 17.6544 11.1444C17.424 10.914 17.1392 10.7992 16.8 10.8H13.2V7.17C13.2 6.83 13.0848 6.55 12.8544 6.33C12.624 6.11 12.3392 6 12 6C11.66 6 11.3748 6.1152 11.1444 6.3456C10.914 6.576 10.7992 6.8608 10.8 7.2V10.8H7.17C6.83 10.8 6.55 10.9152 6.33 11.1456C6.11 11.376 6 11.6608 6 12C6 12.34 6.1152 12.6252 6.3456 12.8556C6.576 13.086 6.8608 13.2008 7.2 13.2H10.8V16.83C10.8 17.17 10.9152 17.45 11.1456 17.67C11.376 17.89 11.6608 18 12 18ZM12 24C10.34 24 8.78 23.6848 7.32 23.0544C5.86 22.424 4.59 21.5692 3.51 20.49C2.43 19.41 1.5752 18.14 0.9456 16.68C0.316 15.22 0.0008 13.66 0 12C0 10.34 0.3152 8.78 0.9456 7.32C1.576 5.86 2.4308 4.59 3.51 3.51C4.59 2.43 5.86 1.5752 7.32 0.9456C8.78 0.316 10.34 0.0008 12 0C13.66 0 15.22 0.3152 16.68 0.9456C18.14 1.576 19.41 2.4308 20.49 3.51C21.57 4.59 22.4252 5.86 23.0556 7.32C23.686 8.78 24.0008 10.34 24 12C24 13.66 23.6848 15.22 23.0544 16.68C22.424 18.14 21.5692 19.41 20.49 20.49C19.41 21.57 18.14 22.4252 16.68 23.0556C15.22 23.686 13.66 24.0008 12 24ZM12 21.6C14.66 21.6 16.9252 20.6652 18.7956 18.7956C20.666 16.926 21.6008 14.6608 21.6 12C21.6 9.34 20.6652 7.0748 18.7956 5.2044C16.926 3.334 14.6608 2.3992 12 2.4C9.34 2.4 7.0748 3.3348 5.2044 5.2044C3.334 7.074 2.3992 9.3392 2.4 12C2.4 14.66 3.3348 16.9252 5.2044 18.7956C7.074 20.666 9.3392 21.6008 12 21.6Z" fill="#717EA0"/>
</svg>
