<svg width="34" height="34" viewBox="0 0 34 34" fill="none" xmlns="http://www.w3.org/2000/svg">
<path d="M27.2085 13.2636C26.3402 11.2751 24.9107 9.58307 23.0951 8.39488C21.2795 7.20668 19.1568 6.5739 16.987 6.5741C11.2061 6.5741 6.45101 10.9747 5.89355 16.6083" stroke="#363636" stroke-width="1.5" stroke-linecap="round" stroke-linejoin="round"/>
<path d="M22.5642 13.264H27.4699C27.5577 13.264 27.6447 13.2467 27.7259 13.2131C27.807 13.1795 27.8808 13.1302 27.9429 13.0681C28.005 13.006 28.0543 12.9322 28.0879 12.8511C28.1215 12.7699 28.1388 12.6829 28.1388 12.5951V7.68945M6.82275 22.1834C8.54418 26.1212 12.4731 28.8729 17.0443 28.8729C22.8263 28.8729 27.5803 24.4723 28.1388 18.8386" stroke="#363636" stroke-width="1.5" stroke-linecap="round" stroke-linejoin="round"/>
<path d="M11.4681 22.183H6.5625C6.38509 22.183 6.21494 22.2535 6.08949 22.3789C5.96403 22.5044 5.89355 22.6745 5.89355 22.8519V27.7576" stroke="#363636" stroke-width="1.5" stroke-linecap="round" stroke-linejoin="round"/>
<path d="M18.7237 13.0762L14.9058 17.6577H20.2509L16.433 22.2393" stroke="#363636" stroke-width="1.16232" stroke-linecap="round" stroke-linejoin="round"/>
</svg>
