<svg width="47" height="47" viewBox="0 0 47 47" fill="none" xmlns="http://www.w3.org/2000/svg">
<path d="M9.75 31.5V38.0905L12.4012 36.4998L20.7347 31.5H29C30.9302 31.5 32.5 29.9303 32.5 28V14C32.5 12.0698 30.9302 10.5 29 10.5H8C6.06975 10.5 4.5 12.0698 4.5 14V28C4.5 29.9303 6.06975 31.5 8 31.5H9.75ZM8 14H29V28H19.7652L13.25 31.9095V28H8V14Z" fill="black"/>
<path d="M36 3.5H15C13.0697 3.5 11.5 5.06975 11.5 7H32.5C34.4302 7 36 8.56975 36 10.5V24.5C37.9302 24.5 39.5 22.9303 39.5 21V7C39.5 5.06975 37.9302 3.5 36 3.5Z" fill="black"/>
</svg>
