<svg width="47" height="47" viewBox="0 0 47 47" fill="none" xmlns="http://www.w3.org/2000/svg">
<path d="M31.25 33C27.7778 33 24.3472 32.2433 20.9583 30.73C17.5694 29.2167 14.4861 27.0706 11.7083 24.2917C8.93056 21.5128 6.785 18.4294 5.27167 15.0417C3.75833 11.6539 3.00111 8.22333 3 4.75C3 4.25 3.16667 3.83333 3.5 3.5C3.83333 3.16667 4.25 3 4.75 3H11.5C11.8889 3 12.2361 3.13222 12.5417 3.39667C12.8472 3.66111 13.0278 3.97333 13.0833 4.33333L14.1667 10.1667C14.2222 10.6111 14.2083 10.9861 14.125 11.2917C14.0417 11.5972 13.8889 11.8611 13.6667 12.0833L9.625 16.1667C10.1806 17.1944 10.84 18.1872 11.6033 19.145C12.3667 20.1028 13.2072 21.0267 14.125 21.9167C14.9861 22.7778 15.8889 23.5767 16.8333 24.3133C17.7778 25.05 18.7778 25.7233 19.8333 26.3333L23.75 22.4167C24 22.1667 24.3267 21.9794 24.73 21.855C25.1333 21.7306 25.5289 21.6956 25.9167 21.75L31.6667 22.9167C32.0556 23.0278 32.375 23.2294 32.625 23.5217C32.875 23.8139 33 24.14 33 24.5V31.25C33 31.75 32.8333 32.1667 32.5 32.5C32.1667 32.8333 31.75 33 31.25 33Z" fill="black"/>
</svg>
