<svg width="47" height="47" viewBox="0 0 47 47" fill="none" xmlns="http://www.w3.org/2000/svg">
<path d="M10.5455 25.2727C9.67045 25.2727 8.92167 24.9614 8.29909 24.3389C7.67651 23.7163 7.3647 22.967 7.36364 22.0909V6.18182C7.36364 5.30682 7.67545 4.55803 8.29909 3.93545C8.92273 3.31288 9.67151 3.00106 10.5455 3H32.8182C33.6932 3 34.4425 3.31182 35.0661 3.93545C35.6898 4.55909 36.0011 5.30788 36 6.18182V22.0909C36 22.9659 35.6887 23.7152 35.0661 24.3389C34.4436 24.9625 33.6942 25.2738 32.8182 25.2727H10.5455ZM21.6818 17.7955L10.5455 10.0398V22.0909H32.8182V10.0398L21.6818 17.7955ZM21.6818 13.8977L32.8182 6.18182H10.5455L21.6818 13.8977ZM4.18182 31.6364C3.30682 31.6364 2.55803 31.3251 1.93545 30.7025C1.31288 30.0799 1.00106 29.3306 1 28.4545V8.56818H4.18182V28.4545H30.4318V31.6364H4.18182Z" fill="black"/>
</svg>
