<svg width="47" height="47" viewBox="0 0 47 47" fill="none" xmlns="http://www.w3.org/2000/svg">
<path d="M16.0275 30.825L21 27.8075L25.9725 30.825L24.655 25.1725L29.075 21.3475L23.2525 20.88L21 15.525L18.7475 20.88L12.925 21.3475L17.345 25.1725L16.0275 30.825ZM4 44V13.4C4 12.465 4.3332 11.6649 4.9996 10.9996C5.666 10.3343 6.46613 10.0011 7.4 10H34.6C35.535 10 36.3357 10.3332 37.0021 10.9996C37.6685 11.666 38.0011 12.4661 38 13.4V33.8C38 34.735 37.6674 35.5357 37.0021 36.2021C36.3368 36.8685 35.5361 37.2011 34.6 37.2H10.8L4 44ZM9.355 33.8H34.6V13.4H7.4V35.7125L9.355 33.8Z" fill="black"/>
</svg>
