<svg width="47" height="47" viewBox="0 0 47 47" fill="none" xmlns="http://www.w3.org/2000/svg">
<path d="M5.875 19.5833H4.40625C4.40625 20.394 5.06425 21.052 5.875 21.052V19.5833ZM5.875 27.4166V25.9479C5.48546 25.9479 5.11188 26.1026 4.83644 26.3781C4.56099 26.6535 4.40625 27.0271 4.40625 27.4166H5.875ZM41.125 19.5833V21.052C41.5145 21.052 41.8881 20.8973 42.1636 20.6219C42.439 20.3464 42.5938 19.9728 42.5938 19.5833H41.125ZM41.125 27.4166H42.5938C42.5938 27.0271 42.439 26.6535 42.1636 26.3781C41.8881 26.1026 41.5145 25.9479 41.125 25.9479V27.4166ZM9.79167 11.2604H19.5833V8.32288H9.79167V11.2604ZM19.5833 11.2604H37.2083V8.32288H19.5833V11.2604ZM37.2083 35.7395H19.5833V38.677H37.2083V35.7395ZM19.5833 35.7395H9.79167V38.677H19.5833V35.7395ZM18.1146 9.79163V37.2083H21.0521V9.79163H18.1146ZM7.60617 21.7688C7.83355 21.9961 8.01391 22.266 8.13697 22.563C8.26003 22.8601 8.32337 23.1784 8.32337 23.5C8.32337 23.8215 8.26003 24.1398 8.13697 24.4369C8.01391 24.7339 7.83355 25.0038 7.60617 25.2311L9.682 27.307C10.6919 26.297 11.2593 24.9272 11.2593 23.499C11.2593 22.0707 10.6919 20.701 9.682 19.691L7.60617 21.7688ZM39.3938 25.2311C39.1665 25.0038 38.9861 24.7339 38.863 24.4369C38.74 24.1398 38.6766 23.8215 38.6766 23.5C38.6766 23.1784 38.74 22.8601 38.863 22.563C38.9861 22.266 39.1665 21.9961 39.3938 21.7688L37.318 19.693C36.3081 20.7029 35.7407 22.0727 35.7407 23.5009C35.7407 24.9292 36.3081 26.299 37.318 27.3089L39.3938 25.2311ZM5.875 21.052C6.50363 21.052 7.12833 21.291 7.60617 21.7688L9.682 19.691C9.18252 19.1903 8.58912 18.7951 7.93583 18.5243C7.28254 18.2534 6.58221 18.1142 5.875 18.1145V21.052ZM7.34375 19.5833V13.7083H4.40625V19.5833H7.34375ZM7.34375 33.2916V27.4166H4.40625V33.2916H7.34375ZM7.60617 25.2311C7.3792 25.4589 7.10937 25.6396 6.81225 25.7626C6.51512 25.8856 6.19658 25.9486 5.875 25.9479V28.8854C7.25171 28.8854 8.63233 28.3586 9.68396 27.307L7.60617 25.2311ZM39.3938 21.7688C39.8717 21.291 40.4964 21.052 41.125 21.052V18.1145C39.7483 18.1145 38.3696 18.6413 37.318 19.693L39.3938 21.7688ZM39.6562 13.7083V19.5833H42.5938V13.7083H39.6562ZM39.6562 27.4166V33.2916H42.5938V27.4166H39.6562ZM41.125 25.9479C40.4964 25.9479 39.8717 25.709 39.3938 25.2311L37.318 27.3089C37.8174 27.8097 38.4108 28.2049 39.0641 28.4758C39.7174 28.7467 40.4178 28.8858 41.125 28.8854V25.9479ZM9.79167 35.7395C8.44042 35.7395 7.34375 34.6429 7.34375 33.2916H4.40625C4.40625 34.7199 4.97364 36.0897 5.9836 37.0997C6.99356 38.1097 8.36337 38.677 9.79167 38.677V35.7395ZM37.2083 38.677C38.6366 38.677 40.0064 38.1097 41.0164 37.0997C42.0264 36.0897 42.5938 34.7199 42.5938 33.2916H39.6562C39.6562 34.6429 38.5596 35.7395 37.2083 35.7395V38.677ZM37.2083 11.2604C38.5596 11.2604 39.6562 12.357 39.6562 13.7083H42.5938C42.5938 12.28 42.0264 10.9102 41.0164 9.90023C40.0064 8.89027 38.6366 8.32288 37.2083 8.32288V11.2604ZM9.79167 8.32288C8.36337 8.32288 6.99356 8.89027 5.9836 9.90023C4.97364 10.9102 4.40625 12.28 4.40625 13.7083H7.34375C7.34375 12.357 8.44042 11.2604 9.79167 11.2604V8.32288Z" fill="#363636"/>
</svg>
