<svg width="38" height="38" viewBox="0 0 38 38" fill="none" xmlns="http://www.w3.org/2000/svg">
<path d="M30.0565 13.8239C29.086 11.6015 27.4883 9.71039 25.4591 8.3824C23.43 7.05441 21.0575 6.3472 18.6324 6.34741C12.1715 6.34741 6.85693 11.2657 6.23389 17.5622" stroke="white" stroke-width="1.5" stroke-linecap="round" stroke-linejoin="round"/>
<path d="M24.8659 13.8245H30.3487C30.4468 13.8245 30.5441 13.8052 30.6348 13.7676C30.7255 13.73 30.8079 13.675 30.8773 13.6055C30.9468 13.5361 31.0018 13.4537 31.0394 13.363C31.077 13.2723 31.0963 13.1751 31.0963 13.0769V7.59412M7.27246 23.7932C9.19641 28.1944 13.5876 31.2697 18.6965 31.2697C25.1587 31.2697 30.472 26.3514 31.0963 20.0549" stroke="white" stroke-width="1.5" stroke-linecap="round" stroke-linejoin="round"/>
<path d="M12.4643 23.7928H6.98154C6.78325 23.7928 6.59308 23.8716 6.45287 24.0118C6.31266 24.152 6.23389 24.3422 6.23389 24.5405V30.0233" stroke="white" stroke-width="1.5" stroke-linecap="round" stroke-linejoin="round"/>
<path d="M20.5738 13.6145L16.3066 18.7351H22.2806L18.0135 23.8557" stroke="white" stroke-width="1.16232" stroke-linecap="round" stroke-linejoin="round"/>
</svg>
