<svg width="47" height="47" viewBox="0 0 47 47" fill="none" xmlns="http://www.w3.org/2000/svg">
<path d="M18.3547 6.00146C18.0478 6.05983 17.7715 6.22475 17.5744 6.46711C17.3774 6.70948 17.2723 7.01368 17.2778 7.32598V8.65049H12.5175C11.4579 8.65049 10.6553 9.45315 10.6553 10.5128V38.4521C10.6553 39.6442 11.4579 40.4389 12.5175 40.4389H35.1588C36.2184 40.4389 37.0211 39.6362 37.0211 38.5766V10.5128C37.1535 9.45315 36.3429 8.65049 35.2833 8.65049H30.523V7.32598C30.523 6.9747 30.3835 6.6378 30.1351 6.38941C29.8867 6.14101 29.5498 6.00146 29.1985 6.00146H18.6024C18.5609 5.99951 18.5193 5.99951 18.4779 6.00146C18.4364 5.99951 18.3962 5.99951 18.3547 6.00146ZM19.9269 8.65049H27.874V11.2995H19.9269V8.65049ZM13.3043 11.2995H17.2778V12.624C17.2778 12.9753 17.4174 13.3122 17.6658 13.5606C17.9142 13.809 18.2511 13.9486 18.6024 13.9486H29.1985C29.5498 13.9486 29.8867 13.809 30.1351 13.5606C30.3835 13.3122 30.523 12.9753 30.523 12.624V11.2995H34.4965V37.7898H13.3043V11.2995ZM15.9533 17.9221V23.2202H21.2514V17.9221H15.9533ZM17.2778 19.2466H19.9269V21.8956H17.2778V19.2466ZM23.9004 19.2466V21.8956H31.8475V19.2466H23.9004ZM15.9533 25.8692V31.1673H21.2514V25.8692H15.9533ZM23.9004 27.1937V29.8427H31.8475V27.1937H23.9004Z" fill="black"/>
</svg>
