<svg width="28" height="13" viewBox="0 0 28 13" fill="none" xmlns="http://www.w3.org/2000/svg">
<path d="M17.8456 1.91462C17.8456 2.86429 18.6164 3.63503 19.5661 3.63503H21.1488L16.5313 8.25261C16.478 8.30602 16.4147 8.34839 16.345 8.3773C16.2754 8.40621 16.2007 8.42109 16.1252 8.42109C16.0498 8.42109 15.9751 8.40621 15.9054 8.3773C15.8358 8.34839 15.7725 8.30602 15.7192 8.25261L12.0811 4.61452C11.3284 3.86231 10.3078 3.43976 9.2436 3.43976C8.17943 3.43976 7.15881 3.86231 6.40607 4.61452L1.1462 9.87439C0.977171 10.0319 0.841598 10.2218 0.747568 10.4329C0.653537 10.6439 0.602976 10.8717 0.598901 11.1027C0.594825 11.3337 0.637318 11.5632 0.723845 11.7774C0.810373 11.9916 0.939161 12.1862 1.10253 12.3496C1.2659 12.5129 1.46049 12.6417 1.67472 12.7283C1.88894 12.8148 2.11839 12.8573 2.34939 12.8532C2.58039 12.8491 2.80821 12.7986 3.01924 12.7045C3.23028 12.6105 3.42021 12.4749 3.57771 12.3059L8.83758 7.04603C8.89085 6.99263 8.95413 6.95026 9.0238 6.92135C9.09348 6.89244 9.16817 6.87755 9.2436 6.87755C9.31903 6.87755 9.39372 6.89244 9.46339 6.92135C9.53306 6.95026 9.59634 6.99263 9.64961 7.04603L13.2877 10.6841C14.0404 11.4363 15.0611 11.8589 16.1252 11.8589C17.1894 11.8589 18.21 11.4363 18.9628 10.6841L23.5803 6.06884V7.64932C23.5803 8.1056 23.7616 8.5432 24.0842 8.86583C24.4069 9.18847 24.8445 9.36973 25.3008 9.36973C25.757 9.36973 26.1946 9.18847 26.5173 8.86583C26.8399 8.5432 27.0212 8.1056 27.0212 7.64932V1.91462C27.0212 1.45834 26.8399 1.02075 26.5173 0.698111C26.1946 0.375472 25.757 0.194214 25.3008 0.194214H19.5661C19.1098 0.194214 18.6722 0.375472 18.3495 0.698111C18.0269 1.02075 17.8456 1.45834 17.8456 1.91462Z" fill="#707070"/>
<path d="M17.8456 1.91462C17.8456 2.86429 18.6164 3.63503 19.5661 3.63503H21.1488L16.5313 8.25261C16.478 8.30602 16.4147 8.34839 16.345 8.3773C16.2754 8.40621 16.2007 8.42109 16.1252 8.42109C16.0498 8.42109 15.9751 8.40621 15.9054 8.3773C15.8358 8.34839 15.7725 8.30602 15.7192 8.25261L12.0811 4.61452C11.3284 3.86231 10.3078 3.43976 9.2436 3.43976C8.17943 3.43976 7.15881 3.86231 6.40607 4.61452L1.1462 9.87439C0.977171 10.0319 0.841598 10.2218 0.747568 10.4329C0.653537 10.6439 0.602976 10.8717 0.598901 11.1027C0.594825 11.3337 0.637318 11.5632 0.723845 11.7774C0.810373 11.9916 0.939161 12.1862 1.10253 12.3496C1.2659 12.5129 1.46049 12.6417 1.67472 12.7283C1.88894 12.8148 2.11839 12.8573 2.34939 12.8532C2.58039 12.8491 2.80821 12.7986 3.01924 12.7045C3.23028 12.6105 3.42021 12.4749 3.57771 12.3059L8.83758 7.04603C8.89085 6.99263 8.95413 6.95026 9.0238 6.92135C9.09348 6.89244 9.16817 6.87755 9.2436 6.87755C9.31903 6.87755 9.39372 6.89244 9.46339 6.92135C9.53306 6.95026 9.59634 6.99263 9.64961 7.04603L13.2877 10.6841C14.0404 11.4363 15.0611 11.8589 16.1252 11.8589C17.1894 11.8589 18.21 11.4363 18.9628 10.6841L23.5803 6.06884V7.64932C23.5803 8.1056 23.7616 8.5432 24.0842 8.86583C24.4069 9.18847 24.8445 9.36973 25.3008 9.36973C25.757 9.36973 26.1946 9.18847 26.5173 8.86583C26.8399 8.5432 27.0212 8.1056 27.0212 7.64932V1.91462C27.0212 1.45834 26.8399 1.02075 26.5173 0.698111C26.1946 0.375472 25.757 0.194214 25.3008 0.194214H19.5661C19.1098 0.194214 18.6722 0.375472 18.3495 0.698111C18.0269 1.02075 17.8456 1.45834 17.8456 1.91462Z" fill="white"/>
</svg>
