<svg width="18" height="16" viewBox="0 0 18 16" fill="none" xmlns="http://www.w3.org/2000/svg">
<path d="M14.3411 12H10.6862V14H14.3411V16L17.0823 13L14.3411 10V12ZM7.94506 0C5.93486 0 4.29015 1.8 4.29015 4C4.29015 6.2 5.93486 8 7.94506 8C9.95525 8 11.6 6.2 11.6 4C11.6 1.8 9.95525 0 7.94506 0ZM7.94506 2C8.95015 2 9.77251 2.9 9.77251 4C9.77251 5.1 8.95015 6 7.94506 6C6.93996 6 6.11761 5.1 6.11761 4C6.11761 2.9 6.93996 2 7.94506 2ZM7.94506 9C5.478 9 0.635254 10.3 0.635254 13V16H9.31564C9.04153 15.4 8.95015 14.8 8.85878 14.1H2.37133V13C2.37133 12.4 5.20388 10.9 7.94506 10.9C8.40192 10.9 8.85878 11 9.31564 11C9.58976 10.4 9.86388 9.8 10.3207 9.3C9.40702 9.1 8.58466 9 7.94506 9Z" fill="white"/>
</svg>
