<svg width="71" height="59" viewBox="0 0 71 59" fill="none" xmlns="http://www.w3.org/2000/svg">
<path d="M43.0189 19.6026C43.0189 21.7412 41.2692 23.4909 39.1307 23.4909H4.13642C1.99788 23.4909 0.248169 21.7412 0.248169 19.6026C0.248169 17.4641 1.99788 15.7144 4.13642 15.7144H39.1307C41.2692 15.7144 43.0189 17.4641 43.0189 19.6026ZM0.248169 4.04963C0.248169 6.18816 1.99788 7.93787 4.13642 7.93787H39.1307C41.2692 7.93787 43.0189 6.18816 43.0189 4.04963C43.0189 1.91109 41.2692 0.161377 39.1307 0.161377H4.13642C1.99788 0.161377 0.248169 1.91109 0.248169 4.04963ZM27.4659 35.1556C27.4659 33.0171 25.7162 31.2674 23.5777 31.2674H4.13642C1.99788 31.2674 0.248169 33.0171 0.248169 35.1556C0.248169 37.2942 1.99788 39.0439 4.13642 39.0439H23.5777C25.7162 39.0439 27.4659 37.2942 27.4659 35.1556ZM58.6108 26.8736L61.3714 24.113C61.7312 23.7525 62.1584 23.4666 62.6288 23.2714C63.0992 23.0763 63.6034 22.9759 64.1127 22.9759C64.6219 22.9759 65.1261 23.0763 65.5965 23.2714C66.0669 23.4666 66.4941 23.7525 66.8539 24.113L69.6145 26.8736C71.1309 28.3901 71.1309 30.8397 69.6145 32.3561L66.8539 35.1167L58.6108 26.8736ZM55.8501 29.6343L35.7868 49.6977C35.4368 50.0476 35.2424 50.5142 35.2424 51.0586V56.541C35.2424 57.6297 36.0978 58.4851 37.1865 58.4851H42.669C43.1744 58.4851 43.6799 58.2907 44.0298 57.9019L64.0932 37.8385L55.8501 29.6343Z" fill="white"/>
</svg>
