<svg width="17" height="24" viewBox="0 0 17 24" fill="none" xmlns="http://www.w3.org/2000/svg">
<path d="M-2.43559e-05 10.387C-2.43559e-05 10.2737 0.092703 10.181 0.206037 10.181H1.75149C1.86483 10.181 1.95755 10.2737 1.95755 10.387C1.95755 14.0008 4.88619 16.9295 8.49999 16.9295C12.1138 16.9295 15.0424 14.0008 15.0424 10.387C15.0424 10.2737 15.1351 10.181 15.2485 10.181H16.7939C16.9073 10.181 17 10.2737 17 10.387C17 14.7323 13.7391 18.3178 9.53029 18.8252V21.4628H13.2729C13.6258 21.4628 13.9091 21.8311 13.9091 22.287V23.2143C13.9091 23.3276 13.837 23.4204 13.7494 23.4204H3.25059C3.16301 23.4204 3.09089 23.3276 3.09089 23.2143V22.287C3.09089 21.8311 3.37422 21.4628 3.7271 21.4628H7.57271V18.8381C3.31498 18.3745 -2.43559e-05 14.7684 -2.43559e-05 10.387ZM8.49999 14.7658C6.08135 14.7658 4.12119 12.8288 4.12119 10.4385V4.66883C4.12119 2.27853 6.08135 0.341553 8.49999 0.341553C10.9186 0.341553 12.8788 2.27853 12.8788 4.66883V10.4385C12.8788 12.8288 10.9186 14.7658 8.49999 14.7658ZM10.9212 4.66883C10.9212 3.3655 9.84196 2.29913 8.49999 2.29913C7.15802 2.29913 6.07877 3.3655 6.07877 4.66883V10.4385C6.07877 11.7419 7.15802 12.8082 8.49999 12.8082C9.84196 12.8082 10.9212 11.7419 10.9212 10.4385V4.66883Z" fill="#717EA0"/>
</svg>
