<svg width="16" height="16" viewBox="0 0 16 16" fill="none" xmlns="http://www.w3.org/2000/svg">
<path d="M15 7H3.83L8.71 2.12C9.1 1.73 9.1 1.09 8.71 0.699998C8.61749 0.607295 8.5076 0.533747 8.38663 0.483566C8.26565 0.433384 8.13597 0.407555 8.005 0.407555C7.87403 0.407555 7.74435 0.433384 7.62338 0.483566C7.5024 0.533747 7.39251 0.607295 7.3 0.699998L0.710001 7.29C0.617297 7.38251 0.54375 7.4924 0.493568 7.61337C0.443387 7.73435 0.417557 7.86403 0.417557 7.995C0.417557 8.12597 0.443387 8.25565 0.493568 8.37662C0.54375 8.4976 0.617297 8.60749 0.710001 8.7L7.3 15.29C7.39258 15.3826 7.50249 15.456 7.62346 15.5061C7.74442 15.5562 7.87407 15.582 8.005 15.582C8.13593 15.582 8.26558 15.5562 8.38654 15.5061C8.50751 15.456 8.61742 15.3826 8.71 15.29C8.80258 15.1974 8.87602 15.0875 8.92613 14.9665C8.97623 14.8456 9.00202 14.7159 9.00202 14.585C9.00202 14.4541 8.97623 14.3244 8.92613 14.2035C8.87602 14.0825 8.80258 13.9726 8.71 13.88L3.83 9H15C15.55 9 16 8.55 16 8C16 7.45 15.55 7 15 7Z" fill="#8C8C8C"/>
</svg>
