<svg width="22" height="22" viewBox="0 0 22 22" fill="none" xmlns="http://www.w3.org/2000/svg">
<path d="M20.45 10.2271H19.06C18.8783 8.33662 18.0445 6.5683 16.7016 5.22541C15.3587 3.88251 13.5904 3.04872 11.7 2.86705V1.47705C11.7 1.27814 11.621 1.08737 11.4803 0.946721C11.3397 0.806068 11.1489 0.727051 10.95 0.727051C10.7511 0.727051 10.5603 0.806068 10.4197 0.946721C10.279 1.08737 10.2 1.27814 10.2 1.47705V2.86705C8.31784 3.0578 6.56021 3.89582 5.22707 5.23807C3.89393 6.58033 3.06792 8.34363 2.89 10.2271H1.5C1.40151 10.2271 1.30398 10.2464 1.21299 10.2841C1.12199 10.3218 1.03931 10.3771 0.96967 10.4467C0.900026 10.5164 0.844781 10.599 0.80709 10.69C0.769399 10.781 0.75 10.8786 0.75 10.9771C0.75 11.0755 0.769399 11.1731 0.80709 11.2641C0.844781 11.3551 0.900026 11.4377 0.96967 11.5074C1.03931 11.577 1.12199 11.6323 1.21299 11.67C1.30398 11.7077 1.40151 11.7271 1.5 11.7271H2.89C3.07167 13.6175 3.90546 15.3858 5.24835 16.7287C6.59125 18.0716 8.35957 18.9054 10.25 19.0871V20.4771C10.25 20.676 10.329 20.8667 10.4697 21.0074C10.6103 21.148 10.8011 21.2271 11 21.2271C11.1989 21.2271 11.3897 21.148 11.5303 21.0074C11.671 20.8667 11.75 20.676 11.75 20.4771V19.0871C13.6397 18.9035 15.407 18.0691 16.7496 16.7266C18.0921 15.3841 18.9265 13.6168 19.11 11.7271H20.5C20.5985 11.7271 20.696 11.7077 20.787 11.67C20.878 11.6323 20.9607 11.577 21.0303 11.5074C21.1 11.4377 21.1552 11.3551 21.1929 11.2641C21.2306 11.1731 21.25 11.0755 21.25 10.9771C21.25 10.8786 21.2306 10.781 21.1929 10.69C21.1552 10.599 21.1 10.5164 21.0303 10.4467C20.9607 10.3771 20.878 10.3218 20.787 10.2841C20.696 10.2464 20.5985 10.2271 20.5 10.2271H20.45ZM10.95 17.6171C9.63673 17.6171 8.35296 17.2276 7.26101 16.498C6.16907 15.7684 5.31801 14.7314 4.81544 13.5181C4.31287 12.3048 4.18138 10.9697 4.43759 9.68165C4.69379 8.39362 5.32619 7.21048 6.25481 6.28186C7.18343 5.35324 8.36657 4.72084 9.6546 4.46464C10.9426 4.20843 12.2777 4.33993 13.491 4.84249C14.7043 5.34506 15.7413 6.19612 16.471 7.28806C17.2006 8.38001 17.59 9.66378 17.59 10.9771C17.59 12.739 16.8908 14.4289 15.6458 15.6758C14.4008 16.9226 12.712 17.6244 10.95 17.6271V17.6171Z" fill="black"/>
<path d="M15.4799 10.9868C15.4799 11.8851 15.2134 12.7633 14.7141 13.5101C14.2148 14.2569 13.5051 14.8388 12.675 15.1821C11.8448 15.5255 10.9315 15.6148 10.0505 15.4388C9.16956 15.2628 8.36063 14.8294 7.7261 14.1935C7.09157 13.5576 6.65997 12.7477 6.48592 11.8664C6.31188 10.985 6.40321 10.0719 6.74837 9.24247C7.09352 8.41306 7.67698 7.70471 8.4249 7.20705C9.17281 6.70939 10.0516 6.44481 10.9499 6.44679C11.5456 6.44679 12.1355 6.56429 12.6858 6.79257C13.236 7.02085 13.7359 7.35542 14.1566 7.77713C14.5774 8.19884 14.9109 8.6994 15.138 9.25016C15.365 9.80092 15.4812 10.3911 15.4799 10.9868Z" fill="black"/>
</svg>
