<svg width="50" height="50" viewBox="0 0 50 50" fill="none" xmlns="http://www.w3.org/2000/svg">
<path d="M6.75051 29.5833C7.96607 29.5833 9.13185 29.1004 9.99138 28.2409C10.8509 27.3813 11.3338 26.2156 11.3338 25C11.3338 23.7844 10.8509 22.6187 9.99138 21.7591C9.13185 20.8996 7.96607 20.4167 6.75051 20.4167C5.53495 20.4167 4.36918 20.8996 3.50965 21.7591C2.65012 22.6187 2.16724 23.7844 2.16724 25C2.16724 26.2156 2.65012 27.3813 3.50965 28.2409C4.36918 29.1004 5.53495 29.5833 6.75051 29.5833ZM45.7084 6.66689C46.3161 6.66689 46.899 6.42545 47.3288 5.99569C47.7586 5.56592 48 4.98304 48 4.37526C48 3.76748 47.7586 3.18459 47.3288 2.75482C46.899 2.32506 46.3161 2.08362 45.7084 2.08362C45.1006 2.08362 44.5177 2.32506 44.0879 2.75482C43.6582 3.18459 43.4167 3.76748 43.4167 4.37526C43.4167 4.98304 43.6582 5.56592 44.0879 5.99569C44.5177 6.42545 45.1006 6.66689 45.7084 6.66689ZM45.7084 27.2916C46.3161 27.2916 46.899 27.0502 47.3288 26.6204C47.7586 26.1907 48 25.6078 48 25C48 24.3922 47.7586 23.8093 47.3288 23.3796C46.899 22.9498 46.3161 22.7084 45.7084 22.7084C45.1006 22.7084 44.5177 22.9498 44.0879 23.3796C43.6582 23.8093 43.4167 24.3922 43.4167 25C43.4167 25.6078 43.6582 26.1907 44.0879 26.6204C44.5177 27.0502 45.1006 27.2916 45.7084 27.2916ZM45.7084 47.9164C46.3161 47.9164 46.899 47.6749 47.3288 47.2452C47.7586 46.8154 48 46.2325 48 45.6247C48 45.017 47.7586 44.4341 47.3288 44.0043C46.899 43.5745 46.3161 43.3331 45.7084 43.3331C45.1006 43.3331 44.5177 43.5745 44.0879 44.0043C43.6582 44.4341 43.4167 45.017 43.4167 45.6247C43.4167 46.2325 43.6582 46.8154 44.0879 47.2452C44.5177 47.6749 45.1006 47.9164 45.7084 47.9164Z" stroke="#4C5A81" stroke-width="4" stroke-linejoin="round"/>
<path d="M34.2502 4.37524H20.5003V45.6247H34.2502M11.3338 25H34.2502" stroke="#4C5A81" stroke-width="4" stroke-linecap="round" stroke-linejoin="round"/>
</svg>
