<svg width="52" height="13" viewBox="0 0 52 13" fill="none" xmlns="http://www.w3.org/2000/svg">
<path d="M4.42188 6.85938H1.52344L1.50781 5.42969H4.03906C4.46615 5.42969 4.82812 5.36719 5.125 5.24219C5.42708 5.11198 5.65625 4.92708 5.8125 4.6875C5.96875 4.44271 6.04688 4.14844 6.04688 3.80469C6.04688 3.42448 5.97396 3.11458 5.82812 2.875C5.68229 2.63542 5.45833 2.46094 5.15625 2.35156C4.85938 2.24219 4.47917 2.1875 4.01562 2.1875H2.11719V12H0.15625V0.625H4.01562C4.64062 0.625 5.19792 0.684896 5.6875 0.804688C6.18229 0.924479 6.60156 1.11198 6.94531 1.36719C7.29427 1.61719 7.55729 1.9349 7.73438 2.32031C7.91667 2.70573 8.00781 3.16406 8.00781 3.69531C8.00781 4.16406 7.89583 4.59375 7.67188 4.98438C7.44792 5.36979 7.11719 5.6849 6.67969 5.92969C6.24219 6.17448 5.69792 6.32031 5.04688 6.36719L4.42188 6.85938ZM4.33594 12H0.90625L1.78906 10.4453H4.33594C4.77865 10.4453 5.14844 10.3724 5.44531 10.2266C5.74219 10.0755 5.96354 9.86979 6.10938 9.60938C6.26042 9.34375 6.33594 9.03385 6.33594 8.67969C6.33594 8.3099 6.27083 7.98958 6.14062 7.71875C6.01042 7.44271 5.80469 7.23177 5.52344 7.08594C5.24219 6.9349 4.875 6.85938 4.42188 6.85938H2.21875L2.23438 5.42969H5.10156L5.54688 5.96875C6.17188 5.98958 6.6849 6.1276 7.08594 6.38281C7.49219 6.63802 7.79427 6.96875 7.99219 7.375C8.1901 7.78125 8.28906 8.21875 8.28906 8.6875C8.28906 9.41146 8.13021 10.0182 7.8125 10.5078C7.5 10.9974 7.04948 11.3698 6.46094 11.625C5.8724 11.875 5.16406 12 4.33594 12ZM12.0938 3.54688V12H10.2031V3.54688H12.0938ZM10.0781 1.32812C10.0781 1.04167 10.1719 0.804688 10.3594 0.617188C10.5521 0.424479 10.8177 0.328125 11.1562 0.328125C11.4896 0.328125 11.7526 0.424479 11.9453 0.617188C12.138 0.804688 12.2344 1.04167 12.2344 1.32812C12.2344 1.60938 12.138 1.84375 11.9453 2.03125C11.7526 2.21875 11.4896 2.3125 11.1562 2.3125C10.8177 2.3125 10.5521 2.21875 10.3594 2.03125C10.1719 1.84375 10.0781 1.60938 10.0781 1.32812ZM16.1719 0V12H14.2812V0H16.1719ZM20.25 0V12H18.3594V0H20.25ZM27.0781 10.3047V6.27344C27.0781 5.97135 27.0234 5.71094 26.9141 5.49219C26.8047 5.27344 26.638 5.10417 26.4141 4.98438C26.1953 4.86458 25.9193 4.80469 25.5859 4.80469C25.2786 4.80469 25.013 4.85677 24.7891 4.96094C24.5651 5.0651 24.3906 5.20573 24.2656 5.38281C24.1406 5.5599 24.0781 5.76042 24.0781 5.98438H22.2031C22.2031 5.65104 22.2839 5.32812 22.4453 5.01562C22.6068 4.70312 22.8411 4.42448 23.1484 4.17969C23.4557 3.9349 23.8229 3.74219 24.25 3.60156C24.6771 3.46094 25.1562 3.39062 25.6875 3.39062C26.3229 3.39062 26.8854 3.4974 27.375 3.71094C27.8698 3.92448 28.2578 4.2474 28.5391 4.67969C28.8255 5.10677 28.9688 5.64323 28.9688 6.28906V10.0469C28.9688 10.4323 28.9948 10.7786 29.0469 11.0859C29.1042 11.388 29.1849 11.651 29.2891 11.875V12H27.3594C27.2708 11.7969 27.2005 11.5391 27.1484 11.2266C27.1016 10.9089 27.0781 10.6016 27.0781 10.3047ZM27.3516 6.85938L27.3672 8.02344H26.0156C25.6667 8.02344 25.3594 8.05729 25.0938 8.125C24.8281 8.1875 24.6068 8.28125 24.4297 8.40625C24.2526 8.53125 24.1198 8.68229 24.0312 8.85938C23.9427 9.03646 23.8984 9.23698 23.8984 9.46094C23.8984 9.6849 23.9505 9.89062 24.0547 10.0781C24.1589 10.2604 24.3099 10.4036 24.5078 10.5078C24.7109 10.612 24.9557 10.6641 25.2422 10.6641C25.6276 10.6641 25.9635 10.5859 26.25 10.4297C26.5417 10.2682 26.7708 10.0729 26.9375 9.84375C27.1042 9.60938 27.1927 9.38802 27.2031 9.17969L27.8125 10.0156C27.75 10.2292 27.6432 10.4583 27.4922 10.7031C27.3411 10.9479 27.1432 11.1823 26.8984 11.4062C26.6589 11.625 26.3698 11.8047 26.0312 11.9453C25.6979 12.0859 25.3125 12.1562 24.875 12.1562C24.3229 12.1562 23.8307 12.0469 23.3984 11.8281C22.9661 11.6042 22.6276 11.3047 22.3828 10.9297C22.138 10.5495 22.0156 10.1198 22.0156 9.64062C22.0156 9.19271 22.099 8.79688 22.2656 8.45312C22.4375 8.10417 22.6875 7.8125 23.0156 7.57812C23.349 7.34375 23.7552 7.16667 24.2344 7.04688C24.7135 6.92188 25.2604 6.85938 25.875 6.85938H27.3516ZM30.9453 0H32.8281V10.1953L32.6484 12H30.9453V0ZM38.3438 7.69531V7.85938C38.3438 8.48438 38.2734 9.0599 38.1328 9.58594C37.9974 10.1068 37.7891 10.5599 37.5078 10.9453C37.2318 11.3307 36.888 11.6302 36.4766 11.8438C36.0703 12.0521 35.599 12.1562 35.0625 12.1562C34.5365 12.1562 34.0781 12.0573 33.6875 11.8594C33.2969 11.6615 32.9688 11.3802 32.7031 11.0156C32.4427 10.651 32.2318 10.2161 32.0703 9.71094C31.9089 9.20573 31.7943 8.64844 31.7266 8.03906V7.51562C31.7943 6.90104 31.9089 6.34375 32.0703 5.84375C32.2318 5.33854 32.4427 4.90365 32.7031 4.53906C32.9688 4.16927 33.2943 3.88542 33.6797 3.6875C34.0703 3.48958 34.526 3.39062 35.0469 3.39062C35.5885 3.39062 36.0651 3.49479 36.4766 3.70312C36.8932 3.91146 37.2396 4.20833 37.5156 4.59375C37.7917 4.97396 37.9974 5.42708 38.1328 5.95312C38.2734 6.47917 38.3438 7.0599 38.3438 7.69531ZM36.4609 7.85938V7.69531C36.4609 7.3151 36.4297 6.95833 36.3672 6.625C36.3047 6.28646 36.2005 5.98958 36.0547 5.73438C35.9141 5.47917 35.7214 5.27865 35.4766 5.13281C35.237 4.98177 34.9375 4.90625 34.5781 4.90625C34.2448 4.90625 33.9583 4.96354 33.7188 5.07812C33.4792 5.19271 33.2786 5.34896 33.1172 5.54688C32.9557 5.74479 32.8281 5.97396 32.7344 6.23438C32.6458 6.49479 32.5859 6.77604 32.5547 7.07812V8.49219C32.6016 8.88281 32.7005 9.24219 32.8516 9.57031C33.0078 9.89323 33.2266 10.1536 33.5078 10.3516C33.7891 10.5443 34.151 10.6406 34.5938 10.6406C34.9427 10.6406 35.237 10.5703 35.4766 10.4297C35.7161 10.2891 35.9062 10.0938 36.0469 9.84375C36.1927 9.58854 36.2969 9.29167 36.3594 8.95312C36.4271 8.61458 36.4609 8.25 36.4609 7.85938ZM41.9531 0V12H40.0625V0H41.9531ZM47.7422 12.1562C47.1172 12.1562 46.5521 12.0547 46.0469 11.8516C45.5469 11.6432 45.1198 11.3542 44.7656 10.9844C44.4167 10.6146 44.1484 10.1797 43.9609 9.67969C43.7734 9.17969 43.6797 8.64062 43.6797 8.0625V7.75C43.6797 7.08854 43.776 6.48958 43.9688 5.95312C44.1615 5.41667 44.4297 4.95833 44.7734 4.57812C45.1172 4.19271 45.5234 3.89844 45.9922 3.69531C46.4609 3.49219 46.9688 3.39062 47.5156 3.39062C48.1198 3.39062 48.6484 3.49219 49.1016 3.69531C49.5547 3.89844 49.9297 4.1849 50.2266 4.55469C50.5286 4.91927 50.7526 5.35417 50.8984 5.85938C51.0495 6.36458 51.125 6.92188 51.125 7.53125V8.33594H44.5938V6.98438H49.2656V6.83594C49.2552 6.4974 49.1875 6.17969 49.0625 5.88281C48.9427 5.58594 48.7578 5.34635 48.5078 5.16406C48.2578 4.98177 47.9245 4.89062 47.5078 4.89062C47.1953 4.89062 46.9167 4.95833 46.6719 5.09375C46.4323 5.22396 46.2318 5.41406 46.0703 5.66406C45.9089 5.91406 45.7839 6.21615 45.6953 6.57031C45.612 6.91927 45.5703 7.3125 45.5703 7.75V8.0625C45.5703 8.43229 45.6198 8.77604 45.7188 9.09375C45.8229 9.40625 45.974 9.67969 46.1719 9.91406C46.3698 10.1484 46.6094 10.3333 46.8906 10.4688C47.1719 10.599 47.4922 10.6641 47.8516 10.6641C48.3047 10.6641 48.7083 10.5729 49.0625 10.3906C49.4167 10.2083 49.724 9.95052 49.9844 9.61719L50.9766 10.5781C50.7943 10.8438 50.5573 11.099 50.2656 11.3438C49.974 11.5833 49.6172 11.7786 49.1953 11.9297C48.7786 12.0807 48.2943 12.1562 47.7422 12.1562Z" fill="#1E1E1E"/>
</svg>
