<svg width="36" height="40" viewBox="0 0 36 40" fill="none" xmlns="http://www.w3.org/2000/svg">
<path fill-rule="evenodd" clip-rule="evenodd" d="M12.8596 2.50026C12.8596 1.83715 13.1305 1.2012 13.6128 0.732309C14.095 0.263419 14.749 0 15.431 0L20.5739 0C21.2559 0 21.9099 0.263419 22.3922 0.732309C22.8744 1.2012 23.1453 1.83715 23.1453 2.50026C23.1453 3.16337 22.8744 3.79932 22.3922 4.26821C21.9099 4.7371 21.2559 5.00052 20.5739 5.00052V5.17554C23.1535 5.53476 25.6213 6.43756 27.8047 7.82081L30.1396 5.55058C30.3161 5.36634 30.5291 5.21857 30.7656 5.11608C31.0022 5.01359 31.2576 4.95848 31.5165 4.95403C31.7755 4.94959 32.0327 4.99591 32.2728 5.09022C32.513 5.18453 32.7311 5.32491 32.9142 5.50297C33.0974 5.68104 33.2418 5.89315 33.3388 6.12664C33.4357 6.36014 33.4834 6.61023 33.4788 6.86202C33.4742 7.1138 33.4176 7.36211 33.3122 7.59213C33.2068 7.82215 33.0548 8.02918 32.8653 8.20085L30.8082 10.2011C33.653 13.0024 35.4434 16.6546 35.8901 20.5674C36.3368 24.4803 35.4136 28.4253 33.2698 31.7651C31.1259 35.1048 27.8866 37.6442 24.0752 38.973C20.2639 40.3018 16.1031 40.3423 12.2651 39.0879C8.42717 37.8336 5.13624 35.3578 2.92407 32.0604C0.711897 28.7631 -0.292303 24.8368 0.073723 20.916C0.439749 16.9952 2.15462 13.309 4.94126 10.4528C7.72789 7.59663 11.4235 5.73741 15.431 5.17554V5.00052C14.749 5.00052 14.095 4.7371 13.6128 4.26821C13.1305 3.79932 12.8596 3.16337 12.8596 2.50026ZM32.1453 22.5023C32.1453 26.1494 30.6552 29.6472 28.003 32.2261C25.3507 34.805 21.7534 36.2538 18.0025 36.2538C14.2515 36.2538 10.6543 34.805 8.00196 32.2261C5.34966 29.6472 3.85962 26.1494 3.85962 22.5023C3.85962 18.8552 5.34966 15.3575 8.00196 12.7786C10.6543 10.1997 14.2515 8.75091 18.0025 8.75091C21.7534 8.75091 25.3507 10.1997 28.003 12.7786C30.6552 15.3575 32.1453 18.8552 32.1453 22.5023ZM19.931 14.3765C19.931 13.8792 19.7278 13.4022 19.3662 13.0505C19.0045 12.6989 18.5139 12.5013 18.0025 12.5013C17.491 12.5013 17.0004 12.6989 16.6388 13.0505C16.2771 13.4022 16.0739 13.8792 16.0739 14.3765V23.2774L16.6396 23.8275L22.4356 29.4631C22.6122 29.6473 22.8251 29.7951 23.0616 29.8976C23.2982 30 23.5536 30.0552 23.8125 30.0596C24.0715 30.064 24.3287 30.0177 24.5688 29.9234C24.809 29.8291 25.0271 29.6887 25.2103 29.5107C25.3934 29.3326 25.5378 29.1205 25.6348 28.887C25.7318 28.6535 25.7794 28.4034 25.7748 28.1516C25.7703 27.8998 25.7136 27.6515 25.6082 27.4215C25.5028 27.1915 25.3508 26.9845 25.1613 26.8128L19.931 21.7248V14.3765Z" fill="#FF9E45"/>
</svg>
