<svg width="13" height="14" viewBox="0 0 13 14" fill="none" xmlns="http://www.w3.org/2000/svg">
<path d="M11.3158 3.47112C11.574 3.54049 11.7942 3.70953 11.9279 3.94111C12.0616 4.17269 12.0979 4.44788 12.0288 4.70621L9.93589 12.5173C9.86651 12.7755 9.69747 12.9957 9.46589 13.1294C9.23431 13.2631 8.95913 13.2994 8.7008 13.2303L0.889747 11.1374C0.639766 11.0607 0.429246 10.8901 0.302437 10.6614C0.175628 10.4327 0.142404 10.1638 0.209749 9.91115C0.277756 9.65867 0.440993 9.44239 0.665148 9.30775C0.889304 9.17312 1.15692 9.13063 1.41176 9.18921L6.8703 10.6518L1.86529 1.9829C1.73148 1.75113 1.69522 1.4757 1.76449 1.21719C1.83375 0.958688 2.00287 0.738287 2.23464 0.604476C2.46641 0.470664 2.74184 0.434403 3.00035 0.503669C3.25885 0.572935 3.47925 0.742054 3.61306 0.973822L8.61807 9.64275L10.0807 4.1842C10.1501 3.92595 10.3191 3.70579 10.5507 3.57209C10.7823 3.43839 11.0574 3.40207 11.3158 3.47112Z" fill="#E32828"/>
</svg>
