<svg width="38" height="38" viewBox="0 0 38 38" fill="none" xmlns="http://www.w3.org/2000/svg">
<path d="M2 19C2 10.9862 2 6.9793 4.4888 4.4888C6.981 2 10.9862 2 19 2C27.0138 2 31.0207 2 33.5095 4.4888C36 6.981 36 10.9862 36 19C36 27.0138 36 31.0207 33.5095 33.5095C31.0224 36 27.0138 36 19 36C10.9862 36 6.9793 36 4.4888 33.5095C2 31.0224 2 27.0138 2 19Z" stroke="#4568C1" stroke-width="3"/>
<path d="M10.5 22.4L13.5549 18.7348C14.7653 17.2813 15.3705 16.5554 16.1661 16.5554C16.9634 16.5554 17.5686 17.2813 18.779 18.7348L19.221 19.2652C20.4314 20.7187 21.0366 21.4446 21.8339 21.4446C22.6295 21.4446 23.2347 20.7187 24.4451 19.2652L27.5 15.6" stroke="#4568C1" stroke-width="3" stroke-linecap="round"/>
</svg>
