<svg width="36" height="32" viewBox="0 0 36 32" fill="none" xmlns="http://www.w3.org/2000/svg">
<path d="M6.32617 11.6449L18.7456 4.5481L29.3767 10.623C29.9201 10.9334 30.3717 11.3819 30.6858 11.9231C30.9999 12.4644 31.1652 13.079 31.1651 13.7048V22.0046C31.1652 22.6303 30.9999 23.245 30.6858 23.7862C30.3717 24.3274 29.9201 24.776 29.3767 25.0864L20.5057 30.1553C19.9696 30.4615 19.363 30.6225 18.7456 30.6225C18.1283 30.6225 17.5217 30.4615 16.9856 30.1553L8.11458 25.0864C7.57121 24.776 7.11959 24.3274 6.80551 23.7862C6.49143 23.245 6.32606 22.6303 6.32617 22.0046V17.0332" stroke="black" stroke-width="1.14286" stroke-linecap="round" stroke-linejoin="round"/>
<path d="M17.0615 17.838C17.5785 18.1162 18.1564 18.2619 18.7435 18.2619C19.3306 18.2619 19.9085 18.1162 20.4254 17.838L30.2758 12.5331M18.7435 18.7428V30.2752" stroke="black" stroke-width="1.14286" stroke-linecap="round" stroke-linejoin="round"/>
<path fill-rule="evenodd" clip-rule="evenodd" d="M6.32263 11.6453L18.7421 18.7421L13.4195 20.5163L1 13.4195L6.32263 11.6453ZM18.7421 4.54842L31.1616 11.6453L34.71 8.09684L22.2905 1L18.7421 4.54842Z" stroke="black" stroke-width="1.14286" stroke-linecap="round" stroke-linejoin="round"/>
</svg>
