<svg width="65" height="65" viewBox="0 0 65 65" fill="none" xmlns="http://www.w3.org/2000/svg">
<path d="M46.0915 55.5163L57.2081 44.4796L53.8491 41.1206L46.0915 48.7184L42.9724 45.5993L39.6134 49.0383L46.0915 55.5163ZM10.0222 19.5271H48.4108V13.129H10.0222V19.5271ZM48.4108 64.3137C43.9854 64.3137 40.2127 62.7537 37.0925 59.6335C33.9724 56.5134 32.4134 52.7417 32.4155 48.3185C32.4155 43.8931 33.9756 40.1204 37.0957 37.0003C40.2159 33.8801 43.9875 32.3211 48.4108 32.3232C52.8361 32.3232 56.6089 33.8833 59.729 37.0035C62.8491 40.1236 64.4081 43.8953 64.406 48.3185C64.406 52.7438 62.8459 56.5166 59.7258 59.6367C56.6057 62.7569 52.834 64.3159 48.4108 64.3137ZM0.425049 61.1147V6.73086C0.425049 4.97139 1.05206 3.46464 2.30609 2.21061C3.56012 0.956583 5.0658 0.330636 6.82314 0.332769H51.6098C53.3693 0.332769 54.876 0.959783 56.1301 2.21381C57.3841 3.46784 58.01 4.97352 58.0079 6.73086V28.0845C56.9949 27.6047 55.9552 27.2048 54.8888 26.8849C53.8225 26.565 52.7295 26.325 51.6098 26.1651V6.73086H6.82314V51.6775H26.2574C26.5239 53.3303 26.9377 54.9032 27.4986 56.3961C28.0595 57.889 28.7921 59.3019 29.6963 60.6348L29.2165 61.1147L24.4179 56.3161L19.6193 61.1147L14.8208 56.3161L10.0222 61.1147L5.22362 56.3161L0.425049 61.1147ZM10.0222 45.1194H26.2574C26.4173 43.9998 26.6572 42.9068 26.9771 41.8404C27.297 40.7741 27.6969 39.7344 28.1768 38.7213H10.0222V45.1194ZM10.0222 32.3232H32.7354C34.7615 30.3505 37.1213 28.7904 39.8149 27.643C42.5085 26.4956 45.3738 25.923 48.4108 25.9252H10.0222V32.3232Z" fill="white"/>
</svg>
