<svg width="28" height="28" viewBox="0 0 28 28" fill="none" xmlns="http://www.w3.org/2000/svg">
<path fill-rule="evenodd" clip-rule="evenodd" d="M18.375 8.75C18.375 9.91032 17.9141 11.0231 17.0936 11.8436C16.2731 12.6641 15.1603 13.125 14 13.125C12.8397 13.125 11.7269 12.6641 10.9064 11.8436C10.0859 11.0231 9.625 9.91032 9.625 8.75C9.625 7.58968 10.0859 6.47688 10.9064 5.65641C11.7269 4.83594 12.8397 4.375 14 4.375C15.1603 4.375 16.2731 4.83594 17.0936 5.65641C17.9141 6.47688 18.375 7.58968 18.375 8.75ZM19.2745 13.3525C20.1581 12.3398 20.7315 11.0942 20.9262 9.76438C21.1209 8.43459 20.9286 7.07686 20.3724 5.85338C19.8162 4.62991 18.9195 3.59241 17.7895 2.86484C16.6595 2.13726 15.344 1.75037 14 1.75037C12.656 1.75037 11.3405 2.13726 10.2105 2.86484C9.08047 3.59241 8.18381 4.62991 7.6276 5.85338C7.07139 7.07686 6.87915 8.43459 7.07383 9.76438C7.26852 11.0942 7.84191 12.3398 8.7255 13.3525C7.22832 13.7449 5.90339 14.6223 4.95792 15.8477C4.01245 17.0731 3.49975 18.5773 3.5 20.125V22.75C3.5 23.6783 3.86875 24.5685 4.52513 25.2249C5.1815 25.8813 6.07174 26.25 7 26.25H21C21.9283 26.25 22.8185 25.8813 23.4749 25.2249C24.1313 24.5685 24.5 23.6783 24.5 22.75V20.125C24.5003 18.5773 23.9876 17.0731 23.0421 15.8477C22.0966 14.6223 20.7717 13.7449 19.2745 13.3525ZM14 15.75H10.5C9.33968 15.75 8.22688 16.2109 7.40641 17.0314C6.58594 17.8519 6.125 18.9647 6.125 20.125V22.75C6.125 22.9821 6.21719 23.2046 6.38128 23.3687C6.54538 23.5328 6.76794 23.625 7 23.625H21C21.2321 23.625 21.4546 23.5328 21.6187 23.3687C21.7828 23.2046 21.875 22.9821 21.875 22.75V20.125C21.875 18.9647 21.4141 17.8519 20.5936 17.0314C19.7731 16.2109 18.6603 15.75 17.5 15.75H14Z" fill="black"/>
</svg>
