<svg width="29" height="29" viewBox="0 0 29 29" fill="none" xmlns="http://www.w3.org/2000/svg">
<path d="M24.6141 0.723315L0.758353 24.5801C0.272788 25.0657 -5.11626e-09 25.7242 0 26.4109C5.11626e-09 27.0976 0.272788 27.7561 0.758353 28.2417C1.24392 28.7272 1.90249 29 2.58918 29C3.27587 29 3.93444 28.7272 4.42 28.2417L28.2758 4.38668C28.7462 3.898 29.0062 3.24427 28.9999 2.56596C28.9935 1.88765 28.7213 1.2389 28.2418 0.759117C27.7622 0.279338 27.1136 0.00682083 26.4353 0.000126304C25.7569 -0.00656823 25.103 0.253094 24.6141 0.723315ZM5.35009 1.6442C4.86827 1.64372 4.39108 1.73814 3.94575 1.92207C3.50042 2.10601 3.09569 2.37585 2.75465 2.71619C2.41361 3.05654 2.14295 3.46072 1.95812 3.90567C1.77329 4.35061 1.67792 4.8276 1.67743 5.3094C1.67695 5.79121 1.77138 6.26839 1.95532 6.7137C2.13925 7.15901 2.40911 7.56373 2.74946 7.90476C3.08982 8.24579 3.49401 8.51644 3.93897 8.70126C4.38393 8.88608 4.86094 8.98146 5.34275 8.98194C6.31583 8.98291 7.24944 8.59731 7.93819 7.90995C8.62695 7.22259 9.01444 6.28978 9.01541 5.31674C9.01638 4.34369 8.63076 3.41012 7.94338 2.72138C7.256 2.03265 6.32317 1.64517 5.35009 1.6442ZM23.695 19.9885C22.722 19.9876 21.7883 20.3732 21.0996 21.0605C20.4108 21.7479 20.0233 22.6807 20.0224 23.6537C20.0214 24.6268 20.407 25.5604 21.0944 26.2491C21.7818 26.9378 22.7146 27.3253 23.6877 27.3263C24.1695 27.3268 24.6467 27.2323 25.092 27.0484C25.5374 26.8645 25.9421 26.5946 26.2831 26.2543C26.6242 25.914 26.8948 25.5098 27.0797 25.0648C27.2645 24.6199 27.3599 24.1429 27.3603 23.6611C27.3608 23.1793 27.2664 22.7021 27.0825 22.2568C26.8985 21.8115 26.6287 21.4068 26.2883 21.0657C25.948 20.7247 25.5438 20.4541 25.0988 20.2692C24.6539 20.0844 24.1769 19.989 23.695 19.9885Z" fill="white"/>
</svg>
