<svg width="12" height="12" viewBox="0 0 12 12" fill="none" xmlns="http://www.w3.org/2000/svg">
<path d="M1.17482 1.46909C1.17499 1.20168 1.28129 0.945276 1.47037 0.756192C1.65945 0.567108 1.91586 0.460808 2.18327 0.460641H10.2699C10.5373 0.460808 10.7937 0.567108 10.9828 0.756192C11.1718 0.945276 11.2781 1.20168 11.2783 1.46909L11.2783 9.55568C11.2689 9.81699 11.1586 10.0645 10.9706 10.2462C10.7825 10.4278 10.5313 10.5295 10.2699 10.5299C10.0084 10.5295 9.75722 10.4278 9.56916 10.2462C9.3811 10.0645 9.27079 9.81699 9.26141 9.55568V3.90458L2.18327 10.9827C1.99403 11.172 1.73737 11.2783 1.46974 11.2783C1.20212 11.2783 0.945458 11.172 0.75622 10.9827C0.566982 10.7935 0.460669 10.5368 0.46067 10.2692C0.460669 10.0016 0.566982 9.74492 0.75622 9.55568L7.83437 2.47753L2.18327 2.47753C1.91586 2.47737 1.65945 2.37107 1.47037 2.18198C1.28129 1.9929 1.17499 1.73649 1.17482 1.46909Z" fill="#61C25F"/>
</svg>
