<svg width="38" height="41" viewBox="0 0 38 41" fill="none" xmlns="http://www.w3.org/2000/svg">
<path d="M18.9721 11.4487C19.9804 11.4487 20.7978 10.6313 20.7978 9.62301C20.7978 8.61473 19.9804 7.79736 18.9721 7.79736C17.9639 7.79736 17.1465 8.61473 17.1465 9.62301C17.1465 10.6313 17.9639 11.4487 18.9721 11.4487Z" fill="white"/>
<path d="M8.01953 29.705H29.9273V33.3563H8.01953V29.705ZM15.3221 20.2664L20.4193 25.3673L27.5978 18.1833L29.9273 20.5768V13.2742H22.6247L25.0163 15.6019L20.4175 20.2007L15.3221 15.0998L8.01953 22.4024L10.601 24.9839L15.3221 20.2664Z" fill="white"/>
<path d="M31.7528 4.14582H25.7318C25.5526 3.87588 25.3575 3.6168 25.1476 3.36992L25.1293 3.34801C23.788 1.78571 21.9008 0.794449 19.8532 0.576679C19.2718 0.465977 18.6747 0.465977 18.0933 0.576679C16.0457 0.794449 14.1585 1.78571 12.8172 3.34801L12.7989 3.36992C12.5891 3.61621 12.394 3.87468 12.2147 4.14399L6.19374 4.14582C4.74161 4.14727 3.34937 4.72477 2.32256 5.75158C1.29575 6.77839 0.718247 8.17063 0.716797 9.62276V35.1818C0.718247 36.6339 1.29575 38.0262 2.32256 39.053C3.34937 40.0798 4.74161 40.6573 6.19374 40.6588H31.7528C33.2049 40.6573 34.5972 40.0798 35.624 39.053C36.6508 38.0262 37.2283 36.6339 37.2297 35.1818V9.62276C37.2283 8.17063 36.6508 6.77839 35.624 5.75158C34.5972 4.72477 33.2049 4.14727 31.7528 4.14582ZM33.5784 35.1818C33.5784 35.666 33.3861 36.1304 33.0437 36.4727C32.7013 36.8151 32.237 37.0075 31.7528 37.0075H6.19374C5.70969 37.007 5.24561 36.8145 4.90334 36.4722C4.56107 36.1299 4.36857 35.6659 4.36809 35.1818V9.62276C4.36857 9.13871 4.56107 8.67464 4.90334 8.33237C5.24561 7.99009 5.70969 7.7976 6.19374 7.79711H14.5004C14.7099 6.76536 15.2697 5.83776 16.0849 5.17149C16.9 4.50521 17.9205 4.14124 18.9733 4.14124C20.0261 4.14124 21.0465 4.50521 21.8617 5.17149C22.6768 5.83776 23.2366 6.76536 23.4461 7.79711H31.7528C32.2368 7.7976 32.7009 7.99009 33.0432 8.33237C33.3855 8.67464 33.578 9.13871 33.5784 9.62276V35.1818Z" fill="white"/>
</svg>
