<svg width="32" height="32" viewBox="0 0 32 32" fill="none" xmlns="http://www.w3.org/2000/svg">
<path d="M0.822266 3.62882C0.822266 2.16504 2.01026 0.977051 3.47404 0.977051H28.4764C29.9402 0.977051 31.1282 2.16504 31.1282 3.62882V28.6312C31.1282 29.3345 30.8488 30.009 30.3515 30.5063C29.8542 31.0036 29.1797 31.283 28.4764 31.283H12.5658C12.2644 31.283 11.9753 31.1633 11.7622 30.9501C11.5491 30.737 11.4293 30.4479 11.4293 30.1465C11.4293 29.8451 11.5491 29.5561 11.7622 29.3429C11.9753 29.1298 12.2644 29.0101 12.5658 29.0101H28.4764C28.5769 29.0101 28.6733 28.9701 28.7443 28.8991C28.8154 28.8281 28.8553 28.7317 28.8553 28.6312V11.5841H3.09521V16.13C3.09521 16.4314 2.97548 16.7205 2.76235 16.9336C2.54922 17.1468 2.26015 17.2665 1.95874 17.2665C1.65733 17.2665 1.36826 17.1468 1.15513 16.9336C0.942001 16.7205 0.822266 16.4314 0.822266 16.13V3.62882ZM11.4293 9.31119H28.8553V3.62882C28.8553 3.52835 28.8154 3.432 28.7443 3.36095C28.6733 3.28991 28.5769 3.25 28.4764 3.25H11.4293V9.31119ZM3.09521 9.31119H9.1564V3.25H3.47404C3.37357 3.25 3.27721 3.28991 3.20617 3.36095C3.13512 3.432 3.09521 3.52835 3.09521 3.62882V9.31119Z" fill="white"/>
<path d="M11.8961 19.9183L8.70787 16.5301C8.60238 16.422 8.51948 16.2941 8.464 16.1536C8.40852 16.0132 8.38159 15.8631 8.38476 15.7122C8.38794 15.5612 8.42117 15.4124 8.4825 15.2744C8.54384 15.1365 8.63205 15.0121 8.74199 14.9086C8.85193 14.8051 8.98139 14.7245 9.12282 14.6716C9.26424 14.6187 9.41479 14.5946 9.56566 14.6005C9.71654 14.6064 9.86472 14.6424 10.0015 14.7062C10.1384 14.7701 10.2611 14.8605 10.3626 14.9723L15.354 20.2759C15.5524 20.4867 15.6628 20.7653 15.6628 21.0548C15.6628 21.3442 15.5524 21.6228 15.354 21.8336L10.3626 27.1372C10.2611 27.249 10.1384 27.3394 10.0015 27.4033C9.86472 27.4671 9.71654 27.5031 9.56566 27.509C9.41479 27.515 9.26424 27.4908 9.12282 27.4379C8.98139 27.385 8.85193 27.3044 8.74199 27.2009C8.63205 27.0974 8.54384 26.973 8.4825 26.8351C8.42117 26.6971 8.38794 26.5483 8.38476 26.3973C8.38159 26.2464 8.40852 26.0963 8.464 25.9559C8.51948 25.8154 8.60238 25.6875 8.70787 25.5794L11.8961 22.1912H7.01983C5.97896 22.1912 4.98072 22.6047 4.24471 23.3407C3.5087 24.0767 3.09521 25.075 3.09521 26.1158V30.1465C3.09521 30.448 2.97548 30.737 2.76235 30.9501C2.54922 31.1633 2.26015 31.283 1.95874 31.283C1.65733 31.283 1.36826 31.1633 1.15513 30.9501C0.942001 30.737 0.822266 30.448 0.822266 30.1465V26.1158C0.822266 24.4722 1.47522 22.8958 2.63749 21.7335C3.79976 20.5712 5.37614 19.9183 7.01983 19.9183H11.8961Z" fill="white"/>
</svg>
