<svg width="38" height="38" viewBox="0 0 38 38" fill="none" xmlns="http://www.w3.org/2000/svg">
<path d="M20.8566 0V3.84377C29.2182 4.87131 35.1419 12.4637 34.1133 20.8172C33.2372 27.7436 27.7897 33.2429 20.8566 34.0611V37.8668C31.3325 36.8202 38.9513 27.5343 37.9037 17.0686C37.0466 8.03005 29.8658 0.894342 20.8566 0ZM17.0471 0.0570856C13.333 0.418628 9.7902 1.84577 6.89505 4.24337L9.61878 7.05959C11.7521 5.34702 14.3234 4.24337 17.0471 3.86279V0.0570856ZM4.20941 6.92639C1.82786 9.81367 0.362279 13.3449 0 17.0686H3.80942C4.17131 14.3666 5.23795 11.7977 6.93314 9.64747L4.20941 6.92639ZM25.6183 12.3115L16.3234 21.5974L12.2854 17.5633L10.2664 19.5804L16.3234 25.6314L27.6373 14.3285L25.6183 12.3115ZM0.0190471 20.8743C0.399989 24.6039 1.86661 28.1242 4.22845 31.0165L6.93314 28.2954C5.25115 26.1444 4.17884 23.5813 3.82846 20.8743H0.0190471ZM9.61878 31.0926L6.89505 33.6995C9.78026 36.1023 13.3125 37.5986 17.0471 38V34.1943C14.3375 33.8443 11.7719 32.773 9.61878 31.0926Z" fill="#509ADE"/>
</svg>
