<svg width="16" height="16" viewBox="0 0 16 16" fill="none" xmlns="http://www.w3.org/2000/svg">
<path d="M1.23355 8.99479L12.4036 8.99479L7.52355 13.8748C7.13355 14.2648 7.13355 14.9048 7.52355 15.2948C7.61606 15.3875 7.72595 15.461 7.84693 15.5112C7.9679 15.5614 8.09758 15.5872 8.22855 15.5872C8.35952 15.5872 8.4892 15.5614 8.61017 15.5112C8.73115 15.461 8.84104 15.3875 8.93355 15.2948L15.5236 8.70479C15.6163 8.61228 15.6898 8.50239 15.74 8.38141C15.7902 8.26044 15.816 8.13076 15.816 7.99979C15.816 7.86882 15.7902 7.73914 15.74 7.61817C15.6898 7.49719 15.6163 7.3873 15.5236 7.29479L8.93355 0.70479C8.84097 0.612208 8.73106 0.538769 8.61009 0.488664C8.48913 0.438559 8.35948 0.412771 8.22855 0.412771C8.09762 0.412771 7.96797 0.438559 7.84701 0.488664C7.72604 0.538769 7.61613 0.612207 7.52355 0.704789C7.43097 0.797371 7.35753 0.907283 7.30742 1.02825C7.25732 1.14921 7.23153 1.27886 7.23153 1.40979C7.23153 1.54072 7.25732 1.67037 7.30742 1.79133C7.35753 1.9123 7.43097 2.02221 7.52355 2.11479L12.4036 6.99479L1.23355 6.99479C0.683551 6.99479 0.233551 7.44479 0.233551 7.99479C0.233551 8.54479 0.683551 8.99479 1.23355 8.99479Z" fill="#8C8C8C"/>
</svg>
