<svg width="36" height="36" viewBox="0 0 36 36" fill="none" xmlns="http://www.w3.org/2000/svg">
<path d="M3 18C3 26.2845 9.7155 33 18 33C26.2845 33 33 26.2845 33 18C33 9.7155 26.2845 3 18 3C9.7155 3 3 9.7155 3 18ZM30 18C30 21.1826 28.7357 24.2348 26.4853 26.4853C24.2348 28.7357 21.1826 30 18 30C14.8174 30 11.7652 28.7357 9.51472 26.4853C7.26428 24.2348 6 21.1826 6 18C6 14.8174 7.26428 11.7652 9.51472 9.51472C11.7652 7.26428 14.8174 6 18 6C21.1826 6 24.2348 7.26428 26.4853 9.51472C28.7357 11.7652 30 14.8174 30 18ZM27 18C27.0018 19.1822 26.7699 20.3531 26.3176 21.4453C25.8653 22.5376 25.2015 23.5297 24.3645 24.3645L18 18V9C20.387 9 22.6761 9.94821 24.364 11.636C26.0518 13.3239 27 15.6131 27 18Z" fill="black"/>
</svg>
