<svg width="176" height="151" viewBox="0 0 176 151" fill="none" xmlns="http://www.w3.org/2000/svg">
<path d="M127.375 99.9208V81.3465C126.478 71.5392 119.647 71.6245 109.232 72.0597V109.208C125.953 110.987 126.803 104.255 127.375 99.9208ZM18.5179 109.208V72.0599C8.1024 71.6247 1.27194 71.5394 0.375 81.3468V99.9211C0.946996 104.255 1.7968 110.987 18.5179 109.208ZM4.91079 132.425H122.839V150.999H4.91079V132.425ZM81.8138 39.5548C78.9548 15.5213 49.3501 14.1165 45.9362 39.5548H81.8138ZM5.70354 29.3427C8.1473 24.6221 14.7002 24.3469 17.4704 28.8484C19.8586 32.7286 17.9052 37.683 13.9809 39.1138L13.9821 67.416H9.44632V39.1267C5.72239 37.8034 3.67923 33.2529 5.70354 29.3427ZM86.5537 79.0246C86.5537 84.3668 80.866 87.7234 76.3406 85.0523C71.815 82.3815 71.815 75.6679 76.3406 72.9968C80.8662 70.3257 86.5537 73.6824 86.5537 79.0246ZM44.5906 85.0523C49.116 87.7234 54.8037 84.3668 54.8037 79.0246C54.8037 73.6824 49.116 70.3257 44.5906 72.9968C40.065 75.6679 40.065 82.3815 44.5906 85.0523ZM104.696 62.7723V127.782H23.0539V62.7725C23.0539 52.515 31.1775 44.1985 41.1966 44.1985H86.5539C96.5733 44.1985 104.696 52.5147 104.696 62.7723ZM42.3175 89.0716C49.8601 93.5231 59.3392 87.9286 59.3392 79.0251C59.3392 70.1219 49.8601 64.527 42.3175 68.9788C34.7749 73.4305 34.7751 84.6199 42.3175 89.0716ZM86.5537 104.564H41.1961V113.852H86.5539L86.5537 104.564ZM91.0892 79.0251C91.0892 70.1219 81.6101 64.527 74.0675 68.9788C66.5249 73.4305 66.5251 84.6199 74.0675 89.0716C81.6101 93.5231 91.0892 87.9286 91.0892 79.0251Z" fill="#717EA0"/>
<path d="M120.116 5.65747L116.992 8.82097L121.641 13.5325L124.76 10.369L120.114 5.65747H120.116ZM160.886 5.65747L156.238 10.369L159.359 13.5325L164.005 8.82322L160.886 5.65747ZM140.5 7.06147C139.768 7.07047 139.027 7.11322 138.281 7.20547C138.259 7.20547 138.237 7.20097 138.215 7.20547C129.215 8.25172 122.053 15.625 120.809 24.7105C119.815 32.023 122.788 38.6537 127.742 42.9242C129.769 44.6782 131.14 47.0851 131.625 49.7417V63.2417H136.684C137.456 64.585 138.865 65.4917 140.5 65.4917C142.135 65.4917 143.544 64.585 144.316 63.2417H149.375V54.2417H149.584V51.5687C149.584 48.2702 151.274 44.9447 154.021 42.3595C157.695 38.629 160.469 33.3302 160.469 27.244C160.469 16.129 151.447 6.95797 140.5 7.06147ZM140.5 11.5615C149.075 11.44 156.031 18.559 156.031 27.244C156.031 31.9555 153.879 36.1045 150.899 39.124L150.97 39.196C148.009 41.9651 146.094 45.6958 145.557 49.744H135.852C135.364 45.8875 133.733 42.1547 130.651 39.4772C126.73 36.1022 124.394 31.0172 125.175 25.2752C126.145 18.1877 131.816 12.4885 138.765 11.7077C139.339 11.6266 139.916 11.5785 140.496 11.5637L140.5 11.5615ZM109.438 27.244V31.744H116.094V27.244H109.438ZM164.906 27.244V31.744H171.562V27.244H164.906ZM121.641 45.4555L116.995 50.1647L120.116 53.3305L124.758 48.619L121.641 45.4555ZM159.359 45.4555L156.24 48.619L160.884 53.3305L164.005 50.1647L159.359 45.4555ZM136.062 54.244H144.938V58.744H136.062V54.244Z" fill="#717EA0"/>
</svg>
