<svg width="167" height="142" viewBox="0 0 167 142" fill="none" xmlns="http://www.w3.org/2000/svg">
<g opacity="0.45" clip-path="url(#clip0_280_3247)">
<path d="M127.875 90.9208V72.3465C126.978 62.5392 120.147 62.6245 109.732 63.0597V100.208C126.453 101.987 127.303 95.2552 127.875 90.9208ZM19.0179 100.208V63.0599C8.6024 62.6247 1.77194 62.5394 0.875 72.3468V90.921C1.447 95.2552 2.2968 101.987 19.0179 100.208V100.208ZM5.41078 123.425H123.339V141.999H5.41078V123.425ZM82.3138 30.5548C79.4548 6.52133 49.8501 5.11647 46.4362 30.5548H82.3138ZM6.20354 20.3427C8.6473 15.6221 15.2002 15.3469 17.9704 19.8484C20.3586 23.7286 18.4052 28.683 14.4809 30.1138L14.4821 58.416H9.94632V30.1267C6.22239 28.8034 4.17923 24.2529 6.20354 20.3427ZM87.0537 70.0246C87.0537 75.3668 81.366 78.7234 76.8406 76.0523C72.315 73.3815 72.315 66.6679 76.8406 63.9968C81.3662 61.3257 87.0537 64.6824 87.0537 70.0246ZM45.0906 76.0523C49.616 78.7234 55.3037 75.3668 55.3037 70.0246C55.3037 64.6824 49.616 61.3257 45.0906 63.9968C40.565 66.6679 40.565 73.3815 45.0906 76.0523ZM105.196 53.7723V118.782H23.5539V53.7725C23.5539 43.515 31.6775 35.1985 41.6966 35.1985H87.0539C97.0733 35.1985 105.197 43.515 105.197 53.7725L105.196 53.7723ZM42.8175 80.0716C50.3601 84.5231 59.8392 78.9285 59.8392 70.0251C59.8392 61.1218 50.3601 55.527 42.8175 59.9788C35.2749 64.4305 35.2751 75.6199 42.8175 80.0716ZM87.0537 95.5645H41.6961V104.852H87.0539V95.5645H87.0537ZM91.5892 70.0251C91.5892 61.1218 82.1101 55.527 74.5675 59.9788C67.0249 64.4305 67.0251 75.6199 74.5675 80.0716C82.1101 84.5231 91.5892 78.9285 91.5892 70.0251Z" fill="#717EA0"/>
</g>
<path fill-rule="evenodd" clip-rule="evenodd" d="M161.82 13.351L158.944 12.6725L151.171 20.4015L146.768 15.9175L154.349 7.96352L153.686 5.04302C152.083 4.50704 150.408 4.22341 148.719 4.20227C146.876 4.17393 145.047 4.5254 143.346 5.23477C141.703 5.97821 140.219 7.02969 138.972 8.33227C137.585 9.64654 136.486 11.2351 135.746 12.997C134.321 16.5033 134.321 20.4277 135.746 23.9341C128.058 31.4971 120.47 39.1604 112.983 46.922C112.209 47.936 111.84 49.2008 111.936 50.473C112.011 51.8413 112.627 53.1237 113.647 54.0388C114.104 54.5366 114.65 54.9496 115.258 55.2483C115.885 55.5249 116.56 55.6835 117.242 55.7166C118.407 55.6945 119.525 55.252 120.391 54.474C126.099 49.1013 137.037 38.0646 143.25 31.5967C144.935 32.3121 146.746 32.6808 148.575 32.6771C150.416 32.6757 152.238 32.3052 153.933 31.5876C155.629 30.87 157.163 29.8199 158.446 28.4992C161.081 25.812 162.553 22.1958 162.543 18.4323C162.586 16.7102 162.341 14.9929 161.82 13.351ZM118.16 51.8595C118.018 51.9856 117.847 52.0743 117.662 52.1176C117.481 52.1491 117.295 52.1491 117.113 52.1176C116.922 52.0886 116.741 52.0167 116.582 51.9075C116.412 51.8077 116.267 51.6686 116.162 51.5018C115.645 50.9745 115.162 49.9715 115.645 49.4073C120.697 44.0346 131.1 33.5326 137.604 27.1127C137.973 27.5995 138.379 28.0641 138.814 28.4992C139.249 28.9528 139.717 29.3731 140.215 29.7566C133.924 36.2098 123.662 46.5864 118.16 51.8595ZM159.158 18.4323C159.165 21.2533 158.066 23.9636 156.09 25.9843C154.118 27.9191 151.465 29.003 148.702 29.003C145.939 29.003 143.286 27.9191 141.314 25.9843C139.868 24.4758 138.881 22.5877 138.466 20.5399C138.052 18.4921 138.227 16.3686 138.972 14.4166C139.468 13.0882 140.238 11.8786 141.23 10.8661C142.223 9.85356 143.418 9.06071 144.736 8.53877C145.988 8.01481 147.332 7.7465 148.689 7.74965H149.626L142.925 14.6563V17.2228L149.913 24.1775H152.347L159.158 17.481V18.4323ZM119.292 25.162H124.938L127.538 27.806L130.038 25.3206L127.585 22.8205V22.6619L127.796 16.5812L126.984 14.9698L116.438 8.0299L114.259 8.27327L111.195 11.404L110.951 13.6128L117.729 24.3729L119.292 25.162ZM115.808 11.769L124.34 17.3888L124.197 21.5298H120.229L114.727 12.82L115.808 11.769ZM142.007 37.434L144.493 34.9523L155.946 46.697C156.911 47.7109 157.449 49.0569 157.449 50.4564C157.449 51.856 156.911 53.2019 155.946 54.2158C155.221 54.9606 154.288 55.4696 153.269 55.6768C152.25 55.884 151.193 55.7797 150.234 55.3774C149.622 55.106 149.074 54.7105 148.623 54.2158L137.037 42.4048L139.54 39.9046L151.09 51.6825C151.245 51.8538 151.438 51.9864 151.654 52.0697C152.078 52.2421 152.553 52.2421 152.978 52.0697C153.193 51.9863 153.386 51.8537 153.542 51.6825C153.703 51.5226 153.829 51.3303 153.911 51.1183C153.995 50.902 154.04 50.6721 154.043 50.4398C154.04 50.2079 153.996 49.9784 153.914 49.7613C153.833 49.5493 153.707 49.357 153.545 49.1971L142.007 37.434Z" fill="#BCC3D4"/>
<defs>
<clipPath id="clip0_280_3247">
<rect width="127" height="130" fill="white" transform="translate(0.875 12)"/>
</clipPath>
</defs>
</svg>
