<svg width="27" height="23" viewBox="0 0 27 23" fill="none" xmlns="http://www.w3.org/2000/svg">
<path d="M9.00133 13.4365L8.68937 16.0409C8.63259 16.3769 8.85949 16.7131 9.19973 16.769C10.5044 17.0491 11.8938 17.189 13.3686 17.189C14.8433 17.189 16.2328 17.0489 17.5374 16.769C17.8777 16.7129 18.1046 16.3769 18.0478 16.0409L17.7358 13.4365C17.6225 12.4283 17.0551 11.5881 16.2328 11.1121C15.4387 11.7282 14.4461 12.1203 13.3685 12.1203C12.2908 12.1203 11.2983 11.7561 10.5043 11.1121C9.68173 11.5881 9.1146 12.4563 9.00121 13.4365H9.00133Z" fill="white"/>
<path d="M16.4939 7.55267C16.4939 9.2308 15.1335 10.5912 13.4555 10.5912C11.7774 10.5912 10.417 9.2308 10.417 7.55267C10.417 5.87474 11.7774 4.51428 13.4555 4.51428C15.1335 4.51428 16.4939 5.87469 16.4939 7.55267Z" fill="white"/>
<path d="M5.91012 10.6216C5.79698 10.3961 5.5705 10.2552 5.31557 10.2552H3.87195C4.35315 5.43772 8.45788 1.6624 13.4398 1.6624C16.6102 1.6624 19.6108 3.24005 21.3942 5.86026C21.6489 6.22658 22.1585 6.33918 22.5548 6.08568C22.9229 5.83216 23.036 5.32495 22.7813 4.93052C20.6582 1.85949 17.1765 0 13.4399 0C7.55197 0 2.71142 4.50782 2.20189 10.2551H0.673399C0.418679 10.2551 0.1922 10.396 0.0788449 10.6214C-0.0342984 10.8468 -0.0342983 11.1003 0.135515 11.3257L2.45682 14.6501C2.56996 14.8191 2.79644 14.9319 3.02291 14.9319C3.24938 14.9319 3.44744 14.8193 3.58901 14.6501L5.91031 11.3257C5.99501 11.1286 6.02345 10.8468 5.91011 10.6214L5.91012 10.6216Z" fill="white"/>
<path d="M26.6304 11.2403L24.327 7.91439C24.0742 7.54791 23.4842 7.54791 23.2315 7.91439L20.928 11.2403C20.7875 11.4377 20.7595 11.7194 20.8718 11.9449C20.9841 12.1704 21.2088 12.3114 21.4618 12.3114H22.8943C22.417 17.1312 18.3439 20.9082 13.4001 20.9082C10.2541 20.9082 7.27656 19.3298 5.50693 16.7084C5.25417 16.3419 4.74846 16.2293 4.35521 16.4829C3.98999 16.7365 3.87771 17.244 4.13047 17.6386C6.23718 20.711 9.69218 22.5714 13.4 22.5714C19.2426 22.5714 24.0459 18.0615 24.5515 12.3116H26.0682C26.321 12.3116 26.5457 12.1706 26.6582 11.9451C26.7705 11.7196 26.7705 11.4376 26.6302 11.2404L26.6304 11.2403Z" fill="white"/>
</svg>
