<svg width="83" height="83" viewBox="0 0 83 83" fill="none" xmlns="http://www.w3.org/2000/svg">
<path fill-rule="evenodd" clip-rule="evenodd" d="M41.3892 0.334106C42.146 0.334106 42.8718 0.634746 43.4069 1.16989C43.9421 1.70503 44.2427 2.43084 44.2427 3.18764V10.7971C44.2427 11.5539 43.9421 12.2797 43.4069 12.8148C42.8718 13.35 42.146 13.6506 41.3892 13.6506C40.6324 13.6506 39.9065 13.35 39.3714 12.8148C38.8363 12.2797 38.5356 11.5539 38.5356 10.7971V3.18764C38.5356 2.43084 38.8363 1.70503 39.3714 1.16989C39.9065 0.634746 40.6324 0.334106 41.3892 0.334106ZM66.2339 16.39C66.7683 16.925 67.0684 17.6503 67.0684 18.4065C67.0684 19.1627 66.7683 19.8879 66.2339 20.423L64.9289 21.728C64.388 22.232 63.6725 22.5064 62.9332 22.4934C62.194 22.4804 61.4886 22.1809 60.9658 21.6581C60.443 21.1353 60.1435 20.4299 60.1305 19.6907C60.1175 18.9514 60.3919 18.2359 60.8959 17.695L62.2009 16.39C62.736 15.8556 63.4612 15.5555 64.2174 15.5555C64.9736 15.5555 65.6989 15.8556 66.2339 16.39ZM16.5444 16.39C17.0794 15.8556 17.8047 15.5555 18.5609 15.5555C19.3171 15.5555 20.0424 15.8556 20.5774 16.39L21.8862 17.695C22.4058 18.2334 22.693 18.9544 22.6862 19.7026C22.6793 20.4507 22.3789 21.1663 21.8496 21.6951C21.3203 22.224 20.6044 22.5237 19.8562 22.5299C19.108 22.536 18.3874 22.248 17.8494 21.728L16.5444 20.423C16.01 19.8879 15.7099 19.1627 15.7099 18.4065C15.7099 17.6503 16.01 16.925 16.5444 16.39ZM41.1761 25.5669C40.5027 26.442 39.7189 27.8384 38.4671 30.0831L37.8432 31.2017L37.7024 31.4566C37.1697 32.4154 36.5458 33.5492 35.5147 34.333C34.4684 35.132 33.2014 35.4097 32.1627 35.6418L31.8888 35.7027L30.6789 35.9766C28.2439 36.5245 26.7486 36.8745 25.7632 37.2626C25.6035 37.3208 25.4484 37.3907 25.299 37.4719C25.3523 37.5936 25.4474 37.7725 25.5996 38.016C26.1893 38.9519 27.2166 40.1656 28.8717 42.0984L29.6973 43.0648L29.8799 43.2779C30.5952 44.1111 31.4322 45.0775 31.8203 46.3216C32.2008 47.5468 32.0714 48.8213 31.9573 49.9361L31.9306 50.2177L31.8051 51.5037C31.554 54.0871 31.4056 55.7079 31.4551 56.8417C31.4665 57.0585 31.4817 57.2259 31.5007 57.3553C31.592 57.3363 31.6986 57.3096 31.8317 57.2716C32.8476 56.9786 34.2515 56.3394 36.5343 55.2931L37.6682 54.7681L37.9231 54.6501C38.8895 54.2012 40.0765 53.6457 41.3892 53.6457C42.7018 53.6457 43.8889 54.2012 44.8514 54.6501L45.1102 54.7681L46.244 55.2893C48.5268 56.3394 49.9307 56.9786 50.9466 57.2678C51.0798 57.3058 51.1863 57.3363 51.2776 57.3553C51.3025 57.1851 51.3177 57.0136 51.3233 56.8417C51.3727 55.7079 51.2205 54.0871 50.9732 51.5075L50.8477 50.2177L50.821 49.9323C50.7069 48.8213 50.5813 47.5468 50.9618 46.3178C51.3461 45.0813 52.1793 44.1111 52.8984 43.2779L53.081 43.0648L53.9067 42.0984C55.5617 40.1656 56.589 38.9519 57.1787 38.016C57.3309 37.7725 57.426 37.5974 57.4831 37.4719C57.3312 37.3932 57.175 37.3234 57.0151 37.2626C56.0259 36.8745 54.5344 36.5245 52.0994 35.9766L50.8857 35.7027L50.6194 35.6418C49.5769 35.4097 48.3099 35.1282 47.2636 34.333C46.2364 33.553 45.6048 32.4154 45.0759 31.4566C45.0292 31.3715 44.9823 31.2866 44.9351 31.2017L44.3112 30.0831C43.0594 27.8384 42.2719 26.442 41.6022 25.5669C41.5337 25.4762 41.4626 25.3874 41.3892 25.3006C41.3157 25.3874 41.2446 25.4762 41.1761 25.5669ZM57.6923 37.6127L57.6657 37.586C57.6885 37.6012 57.6961 37.6127 57.6923 37.6127ZM57.5554 37.2702C57.5554 37.2474 57.5592 37.2322 57.563 37.2322L57.5554 37.2702ZM51.62 57.4086C51.639 57.401 51.6505 57.401 51.6543 57.4048L51.62 57.4086ZM31.573 57.6863C31.5782 57.6945 31.5821 57.7035 31.5844 57.7129C31.5844 57.7129 31.5768 57.7053 31.573 57.6863ZM25.1126 37.5898L25.086 37.6165C25.086 37.6165 25.0898 37.605 25.1126 37.5898ZM36.6409 22.1009C37.6301 20.8149 39.1216 19.3615 41.3892 19.3615C43.6568 19.3615 45.1482 20.8149 46.1336 22.1009C47.0886 23.3488 48.0778 25.1218 49.1926 27.1231L49.9193 28.4281C50.1687 28.8881 50.4352 29.3387 50.7183 29.7788C51.1904 29.9163 51.6676 30.0356 52.1489 30.1364L53.568 30.4598C55.7253 30.9468 57.6619 31.3843 59.1077 31.9551C60.6562 32.5638 62.3683 33.6025 63.0265 35.7255C63.6772 37.8181 62.8934 39.652 62.0107 41.0597C61.1698 42.3914 59.8572 43.9247 58.381 45.6558L57.4184 46.7782C57.1041 47.1342 56.802 47.501 56.5129 47.8778C56.4779 47.9245 56.4449 47.9728 56.414 48.0223V48.2126C56.4178 48.517 56.452 48.9241 56.5281 49.6698L56.6727 51.165C56.8972 53.4745 57.0912 55.5138 57.0227 57.1004C56.9504 58.7364 56.5661 60.7377 54.8046 62.0769C52.9935 63.4543 50.9504 63.2107 49.3752 62.7618C47.8838 62.3319 46.0728 61.4986 44.0563 60.5703L43.8546 60.479L42.7246 59.9577C42.287 59.7469 41.8415 59.5527 41.3892 59.3756C40.9381 59.5515 40.4939 59.7444 40.0575 59.9539L38.7259 60.5703C36.7056 61.4986 34.8945 62.3319 33.4031 62.7618C31.8279 63.2107 29.7886 63.4543 27.9738 62.0769C26.2084 60.7377 25.8279 58.7364 25.7556 57.1004C25.6833 55.51 25.8812 53.4745 26.1056 51.165L26.2502 49.6698C26.3263 48.9241 26.3606 48.517 26.3644 48.2164V48.0223C26.3335 47.9728 26.3005 47.9245 26.2654 47.8778C25.9765 47.5008 25.6744 47.1341 25.3599 46.7782L24.3973 45.6558C22.9211 43.9247 21.6085 42.3952 20.7676 41.0597C19.8849 39.652 19.1012 37.8181 19.7518 35.7255C20.41 33.6025 22.1221 32.5676 23.6706 31.9589C25.1164 31.3882 27.053 30.9468 29.2103 30.4598L29.4195 30.4141L30.6294 30.1402C31.1108 30.0382 31.588 29.9176 32.06 29.7788C32.343 29.3386 32.6095 28.8881 32.859 28.4281L33.4792 27.3095L33.5857 27.1231C34.7005 25.1218 35.6897 23.3488 36.6447 22.1009H36.6409ZM0.488525 41.2347C0.488525 40.4779 0.789165 39.7521 1.32431 39.217C1.85945 38.6818 2.58525 38.3812 3.34206 38.3812H10.9515C11.7083 38.3812 12.4341 38.6818 12.9692 39.217C13.5044 39.7521 13.805 40.4779 13.805 41.2347C13.805 41.9915 13.5044 42.7174 12.9692 43.2525C12.4341 43.7876 11.7083 44.0883 10.9515 44.0883H3.34206C2.58525 44.0883 1.85945 43.7876 1.32431 43.2525C0.789165 42.7174 0.488525 41.9915 0.488525 41.2347ZM68.9733 41.2347C68.9733 40.4779 69.2739 39.7521 69.8091 39.217C70.3442 38.6818 71.07 38.3812 71.8268 38.3812H79.4363C80.1931 38.3812 80.9189 38.6818 81.454 39.217C81.9892 39.7521 82.2898 40.4779 82.2898 41.2347C82.2898 41.9915 81.9892 42.7174 81.454 43.2525C80.9189 43.7876 80.1931 44.0883 79.4363 44.0883H71.8268C71.07 44.0883 70.3442 43.7876 69.8091 43.2525C69.2739 42.7174 68.9733 41.9915 68.9733 41.2347ZM21.8824 60.7415C22.4168 61.2765 22.7169 62.0018 22.7169 62.758C22.7169 63.5142 22.4168 64.2394 21.8824 64.7745L20.5774 66.0795C20.0365 66.5835 19.321 66.858 18.5817 66.8449C17.8425 66.8319 17.1371 66.5324 16.6143 66.0096C16.0915 65.4868 15.792 64.7814 15.779 64.0422C15.7659 63.3029 16.0404 62.5874 16.5444 62.0465L17.8494 60.7415C18.3845 60.2071 19.1097 59.907 19.8659 59.907C20.6221 59.907 21.3474 60.2071 21.8824 60.7415ZM60.8921 60.7415C61.1571 60.4763 61.4718 60.266 61.8181 60.1224C62.1644 59.9789 62.5356 59.9051 62.9105 59.9051C63.2854 59.9051 63.6566 59.9789 64.0029 60.1224C64.3493 60.266 64.6639 60.4763 64.9289 60.7415L66.2339 62.0465C66.738 62.5874 67.0124 63.3029 66.9993 64.0422C66.9863 64.7814 66.6868 65.4868 66.164 66.0096C65.6412 66.5324 64.9358 66.8319 64.1966 66.8449C63.4573 66.858 62.7419 66.5835 62.2009 66.0795L60.8959 64.7745C60.3615 64.2394 60.0614 63.5142 60.0614 62.758C60.0614 62.0018 60.3615 61.2765 60.8959 60.7415H60.8921ZM41.3892 68.8189C42.146 68.8189 42.8718 69.1195 43.4069 69.6547C43.9421 70.1898 44.2427 70.9156 44.2427 71.6724V79.2818C44.2427 80.0386 43.9421 80.7645 43.4069 81.2996C42.8718 81.8347 42.146 82.1354 41.3892 82.1354C40.6324 82.1354 39.9065 81.8347 39.3714 81.2996C38.8363 80.7645 38.5356 80.0386 38.5356 79.2818V71.6724C38.5356 70.9156 38.8363 70.1898 39.3714 69.6547C39.9065 69.1195 40.6324 68.8189 41.3892 68.8189Z" fill="white"/>
</svg>
