<svg width="96" height="97" viewBox="0 0 96 97" fill="none" xmlns="http://www.w3.org/2000/svg">
<path d="M11.9998 25.8809C11.9998 22.433 13.3694 19.1264 15.8074 16.6885C18.2453 14.2505 21.5519 12.8809 24.9998 12.8809H35.6858C36.4814 12.8809 37.2445 13.1969 37.8071 13.7595C38.3697 14.3221 38.6858 15.0852 38.6858 15.8809C38.6858 16.6765 38.3697 17.4396 37.8071 18.0022C37.2445 18.5648 36.4814 18.8809 35.6858 18.8809H24.9998C23.1432 18.8809 21.3628 19.6184 20.05 20.9311C18.7373 22.2439 17.9998 24.0243 17.9998 25.8809V36.5669C17.9998 37.3625 17.6837 38.1256 17.1211 38.6882C16.5585 39.2508 15.7954 39.5669 14.9998 39.5669C14.2041 39.5669 13.441 39.2508 12.8784 38.6882C12.3158 38.1256 11.9998 37.3625 11.9998 36.5669V25.8809ZM57.3138 15.8809C57.3138 15.0852 57.6298 14.3221 58.1924 13.7595C58.755 13.1969 59.5181 12.8809 60.3138 12.8809H70.9998C74.4476 12.8809 77.7542 14.2505 80.1921 16.6885C82.6301 19.1264 83.9998 22.433 83.9998 25.8809V36.5669C83.9998 37.3625 83.6837 38.1256 83.1211 38.6882C82.5585 39.2508 81.7954 39.5669 80.9998 39.5669C80.2041 39.5669 79.441 39.2508 78.8784 38.6882C78.3158 38.1256 77.9998 37.3625 77.9998 36.5669V25.8809C77.9998 24.0243 77.2623 22.2439 75.9495 20.9311C74.6367 19.6184 72.8563 18.8809 70.9998 18.8809H60.3138C59.5181 18.8809 58.755 18.5648 58.1924 18.0022C57.6298 17.4396 57.3138 16.6765 57.3138 15.8809ZM14.9998 58.1949C15.7954 58.1949 16.5585 58.5109 17.1211 59.0735C17.6837 59.6361 17.9998 60.3992 17.9998 61.1949V71.8809C17.9998 73.7374 18.7373 75.5178 20.05 76.8306C21.3628 78.1434 23.1432 78.8809 24.9998 78.8809H35.6858C36.4814 78.8809 37.2445 79.1969 37.8071 79.7595C38.3697 80.3221 38.6858 81.0852 38.6858 81.8809C38.6858 82.6765 38.3697 83.4396 37.8071 84.0022C37.2445 84.5648 36.4814 84.8809 35.6858 84.8809H24.9998C21.5519 84.8809 18.2453 83.5112 15.8074 81.0732C13.3694 78.6353 11.9998 75.3287 11.9998 71.8809V61.1949C11.9998 60.3992 12.3158 59.6361 12.8784 59.0735C13.441 58.5109 14.2041 58.1949 14.9998 58.1949ZM80.9998 58.1949C81.7954 58.1949 82.5585 58.5109 83.1211 59.0735C83.6837 59.6361 83.9998 60.3992 83.9998 61.1949V71.8809C83.9998 75.3287 82.6301 78.6353 80.1921 81.0732C77.7542 83.5112 74.4476 84.8809 70.9998 84.8809H60.3138C59.5181 84.8809 58.755 84.5648 58.1924 84.0022C57.6298 83.4396 57.3138 82.6765 57.3138 81.8809C57.3138 81.0852 57.6298 80.3221 58.1924 79.7595C58.755 79.1969 59.5181 78.8809 60.3138 78.8809H70.9998C72.8563 78.8809 74.6367 78.1434 75.9495 76.8306C77.2623 75.5178 77.9998 73.7374 77.9998 71.8809V61.1949C77.9998 60.3992 78.3158 59.6361 78.8784 59.0735C79.441 58.5109 80.2041 58.1949 80.9998 58.1949ZM53.9998 49.8809C53.9998 48.2896 53.3676 46.7634 52.2424 45.6382C51.1172 44.513 49.5911 43.8809 47.9998 43.8809C46.4085 43.8809 44.8823 44.513 43.7571 45.6382C42.6319 46.7634 41.9998 48.2896 41.9998 49.8809C41.9998 51.4722 42.6319 52.9983 43.7571 54.1235C44.8823 55.2487 46.4085 55.8809 47.9998 55.8809C49.5911 55.8809 51.1172 55.2487 52.2424 54.1235C53.3676 52.9983 53.9998 51.4722 53.9998 49.8809ZM55.7298 32.1069C55.3325 31.4309 54.7655 30.8704 54.0849 30.481C53.4043 30.0916 52.6338 29.8868 51.8498 29.8869H44.2438C43.4746 29.8871 42.7183 30.0844 42.047 30.4601C41.3758 30.8358 40.8121 31.3773 40.4098 32.0329L38.6598 34.8809H34.4998C32.7758 34.8809 31.1225 35.5657 29.9036 36.7847C28.6846 38.0037 27.9998 39.657 27.9998 41.3809V60.3809C27.9998 62.1048 28.6846 63.7581 29.9036 64.9771C31.1225 66.196 32.7758 66.8809 34.4998 66.8809H61.4998C63.2237 66.8809 64.877 66.196 66.0959 64.9771C67.3149 63.7581 67.9998 62.1048 67.9998 60.3809V41.3809C67.9998 39.657 67.3149 38.0037 66.0959 36.7847C64.877 35.5657 63.2237 34.8809 61.4998 34.8809H57.3598L55.7298 32.1069ZM38.9998 49.8809C38.9998 47.4939 39.948 45.2047 41.6358 43.5169C43.3236 41.8291 45.6128 40.8809 47.9998 40.8809C50.3867 40.8809 52.6759 41.8291 54.3637 43.5169C56.0515 45.2047 56.9998 47.4939 56.9998 49.8809C56.9998 52.2678 56.0515 54.557 54.3637 56.2448C52.6759 57.9326 50.3867 58.8809 47.9998 58.8809C45.6128 58.8809 43.3236 57.9326 41.6358 56.2448C39.948 54.557 38.9998 52.2678 38.9998 49.8809Z" fill="#717EA0"/>
</svg>
