<svg width="48" height="48" viewBox="0 0 48 48" fill="none" xmlns="http://www.w3.org/2000/svg">
<path d="M28.6175 48H19.3825C18.7668 48 18.2332 47.8 17.7817 47.4C17.3302 47 17.0634 46.5 16.9813 45.9L16.2425 40.32C15.709 40.12 15.2057 39.88 14.7329 39.6C14.2601 39.32 13.7987 39.02 13.3489 38.7L7.99254 40.86C7.41791 41.06 6.84328 41.08 6.26866 40.92C5.69403 40.76 5.24254 40.42 4.91418 39.9L0.358209 32.16C0.0298507 31.64 -0.0727612 31.08 0.0503731 30.48C0.173507 29.88 0.481343 29.4 0.973881 29.04L5.59142 25.62C5.55037 25.34 5.52985 25.0696 5.52985 24.8088V23.1912C5.52985 22.9304 5.55037 22.66 5.59142 22.38L0.973881 18.96C0.481343 18.6 0.173507 18.12 0.0503731 17.52C-0.0727612 16.92 0.0298507 16.36 0.358209 15.84L4.91418 8.1C5.20149 7.54 5.64231 7.1896 6.23664 7.0488C6.83097 6.908 7.41627 6.9384 7.99254 7.14L13.3489 9.3C13.8004 8.98 14.2724 8.68 14.7649 8.4C15.2575 8.12 15.75 7.88 16.2425 7.68L16.9813 2.1C17.0634 1.5 17.3302 1 17.7817 0.6C18.2332 0.2 18.7668 0 19.3825 0H28.6175C29.2332 0 29.7668 0.2 30.2183 0.6C30.6698 1 30.9366 1.5 31.0187 2.1L31.7575 7.68C32.291 7.88 32.7943 8.12 33.2671 8.4C33.7399 8.68 34.2013 8.98 34.6511 9.3L40.0075 7.14C40.5821 6.94 41.1567 6.92 41.7313 7.08C42.306 7.24 42.7575 7.58 43.0858 8.1L47.6418 15.84C47.9701 16.36 48.0728 16.92 47.9496 17.52C47.8265 18.12 47.5187 18.6 47.0261 18.96L42.4086 22.38C42.4496 22.66 42.4701 22.9304 42.4701 23.1912V24.8088C42.4701 25.0696 42.4291 25.34 42.347 25.62L46.9646 29.04C47.4571 29.4 47.7649 29.88 47.8881 30.48C48.0112 31.08 47.9086 31.64 47.5802 32.16L43.0243 39.84C42.6959 40.36 42.2337 40.7104 41.6378 40.8912C41.0418 41.072 40.4573 41.0616 39.8843 40.86L34.6511 38.7C34.1996 39.02 33.7276 39.32 33.2351 39.6C32.7425 39.88 32.25 40.12 31.7575 40.32L31.0187 45.9C30.9366 46.5 30.6698 47 30.2183 47.4C29.7668 47.8 29.2332 48 28.6175 48ZM24.1231 32.4C26.5037 32.4 28.5354 31.58 30.2183 29.94C31.9011 28.3 32.7425 26.32 32.7425 24C32.7425 21.68 31.9011 19.7 30.2183 18.06C28.5354 16.42 26.5037 15.6 24.1231 15.6C21.7015 15.6 19.6591 16.42 17.996 18.06C16.3328 19.7 15.5021 21.68 15.5037 24C15.5037 26.32 16.3345 28.3 17.996 29.94C19.6575 31.58 21.6999 32.4 24.1231 32.4ZM24.1231 27.6C23.097 27.6 22.2244 27.2496 21.5053 26.5488C20.7862 25.848 20.4275 24.9984 20.4291 24C20.4291 23 20.7887 22.1496 21.5078 21.4488C22.2269 20.748 23.0987 20.3984 24.1231 20.4C25.1493 20.4 26.0219 20.7504 26.741 21.4512C27.4601 22.152 27.8188 23.0016 27.8172 24C27.8172 25 27.4576 25.8504 26.7385 26.5512C26.0194 27.252 25.1476 27.6016 24.1231 27.6ZM21.5373 43.2H26.4011L27.2631 36.84C28.5354 36.52 29.7159 36.0496 30.8044 35.4288C31.8929 34.808 32.8878 34.0584 33.7892 33.18L39.8843 35.64L42.2854 31.56L36.9907 27.66C37.1959 27.1 37.3396 26.5104 37.4216 25.8912C37.5037 25.272 37.5448 24.6416 37.5448 24C37.5448 23.36 37.5037 22.7304 37.4216 22.1112C37.3396 21.492 37.1959 20.9016 36.9907 20.34L42.2854 16.44L39.8843 12.36L33.7892 14.88C32.8862 13.96 31.8913 13.1904 30.8044 12.5712C29.7175 11.952 28.5371 11.4816 27.2631 11.16L26.4627 4.8H21.5989L20.7369 11.16C19.4646 11.48 18.2849 11.9504 17.1981 12.5712C16.1112 13.192 15.1154 13.9416 14.2108 14.82L8.11567 12.36L5.71455 16.44L11.0093 20.28C10.8041 20.88 10.6604 21.48 10.5784 22.08C10.4963 22.68 10.4552 23.32 10.4552 24C10.4552 24.64 10.4963 25.26 10.5784 25.86C10.6604 26.46 10.8041 27.06 11.0093 27.66L5.71455 31.56L8.11567 35.64L14.2108 33.12C15.1138 34.04 16.1096 34.8104 17.1981 35.4312C18.2866 36.052 19.4662 36.5216 20.7369 36.84L21.5373 43.2Z" fill="#4C5A81"/>
</svg>
