<svg width="40" height="29" viewBox="0 0 40 29" fill="none" xmlns="http://www.w3.org/2000/svg">
<path d="M32.1063 10.5495C32.1063 10.0328 31.9011 9.5373 31.5357 9.17196C31.1704 8.80661 30.6749 8.60135 30.1582 8.60135H7.57911L12.0599 4.14009C12.4267 3.77325 12.6328 3.2757 12.6328 2.7569C12.6328 2.23811 12.4267 1.74056 12.0599 1.37372C11.693 1.00687 11.1955 0.800781 10.6767 0.800781C10.1579 0.800781 9.66033 1.00687 9.29349 1.37372L1.50088 9.16632C1.23056 9.44027 1.04744 9.78816 0.974634 10.1661C0.901823 10.544 0.942584 10.935 1.09177 11.2898C1.23792 11.6456 1.48611 11.9501 1.80506 12.1651C2.12402 12.38 2.49946 12.4957 2.88407 12.4977H30.1582C30.6749 12.4977 31.1704 12.2924 31.5357 11.9271C31.9011 11.5617 32.1063 11.0662 32.1063 10.5495ZM39.7431 17.6018C39.5969 17.246 39.3487 16.9415 39.0298 16.7265C38.7108 16.5116 38.3354 16.3959 37.9508 16.394H10.6767C10.16 16.394 9.66447 16.5992 9.29912 16.9646C8.93377 17.3299 8.72852 17.8254 8.72852 18.3421C8.72852 18.8588 8.93377 19.3543 9.29912 19.7197C9.66447 20.085 10.16 20.2903 10.6767 20.2903H33.2557L28.775 24.7515C28.5924 24.9326 28.4475 25.1481 28.3486 25.3855C28.2497 25.6229 28.1987 25.8775 28.1987 26.1347C28.1987 26.3919 28.2497 26.6465 28.3486 26.8839C28.4475 27.1213 28.5924 27.3368 28.775 27.5179C28.9561 27.7005 29.1716 27.8454 29.409 27.9443C29.6464 28.0432 29.901 28.0942 30.1582 28.0942C30.4154 28.0942 30.67 28.0432 30.9074 27.9443C31.1448 27.8454 31.3603 27.7005 31.5414 27.5179L39.334 19.7253C39.6043 19.4513 39.7874 19.1034 39.8602 18.7255C39.933 18.3476 39.8923 17.9566 39.7431 17.6018Z" fill="white"/>
<path d="M32.1063 10.5495C32.1063 10.0328 31.9011 9.5373 31.5357 9.17196C31.1704 8.80661 30.6749 8.60135 30.1582 8.60135H7.57911L12.0599 4.14009C12.4267 3.77325 12.6328 3.2757 12.6328 2.7569C12.6328 2.23811 12.4267 1.74056 12.0599 1.37372C11.693 1.00687 11.1955 0.800781 10.6767 0.800781C10.1579 0.800781 9.66033 1.00687 9.29349 1.37372L1.50088 9.16632C1.23056 9.44027 1.04744 9.78816 0.974634 10.1661C0.901823 10.544 0.942584 10.935 1.09177 11.2898C1.23792 11.6456 1.48611 11.9501 1.80506 12.1651C2.12402 12.38 2.49946 12.4957 2.88407 12.4977H30.1582C30.6749 12.4977 31.1704 12.2924 31.5357 11.9271C31.9011 11.5617 32.1063 11.0662 32.1063 10.5495ZM39.7431 17.6018C39.5969 17.246 39.3487 16.9415 39.0298 16.7265C38.7108 16.5116 38.3354 16.3959 37.9508 16.394H10.6767C10.16 16.394 9.66447 16.5992 9.29912 16.9646C8.93377 17.3299 8.72852 17.8254 8.72852 18.3421C8.72852 18.8588 8.93377 19.3543 9.29912 19.7197C9.66447 20.085 10.16 20.2903 10.6767 20.2903H33.2557L28.775 24.7515C28.5924 24.9326 28.4475 25.1481 28.3486 25.3855C28.2497 25.6229 28.1987 25.8775 28.1987 26.1347C28.1987 26.3919 28.2497 26.6465 28.3486 26.8839C28.4475 27.1213 28.5924 27.3368 28.775 27.5179C28.9561 27.7005 29.1716 27.8454 29.409 27.9443C29.6464 28.0432 29.901 28.0942 30.1582 28.0942C30.4154 28.0942 30.67 28.0432 30.9074 27.9443C31.1448 27.8454 31.3603 27.7005 31.5414 27.5179L39.334 19.7253C39.6043 19.4513 39.7874 19.1034 39.8602 18.7255C39.933 18.3476 39.8923 17.9566 39.7431 17.6018Z" fill="white"/>
</svg>
