<svg width="60" height="48" viewBox="0 0 60 48" fill="none" xmlns="http://www.w3.org/2000/svg">
<path d="M6 0V7.312L0 15.312V16C0 19.29 2.71 22 6 22V48H38V30H42V48H54V22C57.29 22 60 19.29 60 16V15.312L54 7.312V0H6ZM10 4H50V6H10V4ZM9 10H51L55.812 16.438C55.592 17.304 54.938 18 54 18C52.89 18 52 17.11 52 16H48C48 17.11 47.11 18 46 18C44.89 18 44 17.11 44 16H40C40 17.11 39.11 18 38 18C36.89 18 36 17.11 36 16H32C32 17.11 31.11 18 30 18C28.89 18 28 17.11 28 16H24C24 17.11 23.11 18 22 18C20.89 18 20 17.11 20 16H16C16 17.11 15.11 18 14 18C12.89 18 12 17.11 12 16H8C8 17.11 7.11 18 6 18C5.062 18 4.406 17.304 4.188 16.438L9 10ZM10 20.438C11.062 21.398 12.468 22 14 22C15.532 22 16.938 21.4 18 20.438C19.062 21.398 20.468 22 22 22C23.532 22 24.938 21.4 26 20.438C27.062 21.398 28.468 22 30 22C31.532 22 32.938 21.4 34 20.438C35.062 21.398 36.468 22 38 22C39.532 22 40.938 21.4 42 20.438C43.062 21.398 44.468 22 46 22C47.532 22 48.938 21.4 50 20.438V44H46V26H34V44H10V20.438ZM14 26V40H30V26H14ZM18 30H26V36H18V30Z" fill="#4C5A81"/>
</svg>
