<svg version="1.1" id="gear" xmlns="http://www.w3.org/2000/svg" xmlns:xlink="http://www.w3.org/1999/xlink" x="0px" y="0px" width="24px" height="24px" viewBox="0 0 7.68 7.68" xml:space="preserve"><style type="text/css">
	.st0{fill:#fff;}
	.st1{fill:#4C5A81;}
</style><path className="st1" d="M3.615 7.303c-0.212 0 -0.363 -0.113 -0.425 -0.318c-0.051 -0.167 -0.11 -0.334 -0.165 -0.481c-0.151 -0.07 -0.289 -0.131 -0.419 -0.186c-0.14 0.063 -0.293 0.136 -0.475 0.227c-0.064 0.032 -0.126 0.048 -0.19 0.048c-0.108 0 -0.205 -0.044 -0.288 -0.131c-0.133 -0.138 -0.273 -0.278 -0.429 -0.429c-0.133 -0.129 -0.163 -0.299 -0.081 -0.467c0.033 -0.067 0.064 -0.135 0.097 -0.206c0.04 -0.087 0.081 -0.176 0.126 -0.265c-0.076 -0.151 -0.138 -0.292 -0.19 -0.43c-0.073 -0.024 -0.145 -0.049 -0.215 -0.073c-0.099 -0.034 -0.201 -0.069 -0.3 -0.101c-0.185 -0.059 -0.289 -0.203 -0.286 -0.395c0.004 -0.213 0.004 -0.408 0 -0.595c-0.004 -0.196 0.102 -0.343 0.29 -0.404c0.188 -0.061 0.358 -0.119 0.517 -0.177c0.069 -0.141 0.133 -0.281 0.191 -0.416c-0.062 -0.138 -0.133 -0.287 -0.226 -0.475c-0.085 -0.171 -0.055 -0.346 0.083 -0.478C1.396 1.393 1.528 1.26 1.65 1.131c0.103 -0.109 0.215 -0.132 0.29 -0.132c0.086 0 0.155 0.029 0.199 0.051c0.142 0.071 0.308 0.152 0.477 0.229c0.144 -0.054 0.283 -0.11 0.413 -0.166c0.068 -0.173 0.128 -0.345 0.174 -0.478c0.061 -0.176 0.202 -0.277 0.387 -0.277l0.009 0c0.097 0.002 0.197 0.002 0.3 0.002c0.099 0 0.202 -0.001 0.308 -0.002c0.001 0 0.006 0 0.007 0c0.181 0 0.319 0.1 0.379 0.275c0.032 0.092 0.066 0.187 0.099 0.278c0.024 0.066 0.048 0.133 0.072 0.201c0.085 0.03 0.166 0.062 0.246 0.094c0.06 0.024 0.118 0.047 0.175 0.068c0.145 -0.065 0.3 -0.139 0.473 -0.225c0.068 -0.034 0.133 -0.051 0.198 -0.051c0.076 0 0.187 0.023 0.291 0.133c0.065 0.069 0.134 0.138 0.2 0.205c0.076 0.077 0.155 0.156 0.231 0.238c0.102 0.109 0.132 0.295 0.071 0.433c-0.044 0.098 -0.09 0.195 -0.134 0.289c-0.036 0.076 -0.07 0.148 -0.103 0.22c0.022 0.058 0.046 0.117 0.07 0.178c0.03 0.076 0.062 0.154 0.091 0.234c0.075 0.026 0.149 0.054 0.221 0.08c0.083 0.031 0.161 0.06 0.24 0.087c0.187 0.063 0.292 0.214 0.288 0.414c-0.005 0.229 -0.005 0.404 0.001 0.569c0.004 0.118 -0.029 0.329 -0.296 0.421c-0.167 0.058 -0.316 0.112 -0.454 0.167c-0.053 0.133 -0.105 0.272 -0.155 0.414c0.032 0.07 0.066 0.14 0.098 0.209c0.045 0.094 0.092 0.192 0.136 0.291c0.056 0.124 0.052 0.314 -0.063 0.436c-0.059 0.062 -0.122 0.128 -0.193 0.201c-0.024 0.025 -0.049 0.05 -0.074 0.075c-0.067 0.067 -0.13 0.131 -0.191 0.197c-0.058 0.062 -0.132 0.101 -0.214 0.113c-0.016 0.002 -0.033 0.004 -0.05 0.004c-0.102 0 -0.177 -0.042 -0.218 -0.065c-0.004 -0.002 -0.007 -0.004 -0.011 -0.006c-0.028 -0.013 -0.056 -0.026 -0.084 -0.039c-0.017 -0.008 -0.035 -0.016 -0.052 -0.024c-0.079 -0.037 -0.158 -0.074 -0.237 -0.112c-0.023 -0.011 -0.046 -0.022 -0.069 -0.034c-0.143 0.067 -0.286 0.129 -0.426 0.184c-0.02 0.059 -0.041 0.118 -0.061 0.175c-0.039 0.112 -0.076 0.217 -0.109 0.324c-0.058 0.188 -0.204 0.296 -0.401 0.296l-0.013 0c-0.081 -0.002 -0.188 -0.003 -0.294 -0.003c-0.092 0 -0.175 0.001 -0.253 0.004C3.631 7.303 3.623 7.303 3.615 7.303z"/><path className="st0" d="M5.875 6.302c-0.034 0.005 -0.07 -0.023 -0.105 -0.039c-0.047 -0.023 -0.095 -0.044 -0.142 -0.066c-0.078 -0.036 -0.156 -0.073 -0.233 -0.11c-0.043 -0.021 -0.085 -0.041 -0.127 -0.062c-0.059 -0.03 -0.099 -0.021 -0.155 0.006c-0.163 0.078 -0.328 0.149 -0.496 0.214c-0.059 0.023 -0.093 0.052 -0.112 0.111c-0.062 0.188 -0.133 0.374 -0.191 0.563c-0.021 0.069 -0.055 0.085 -0.121 0.084c-0.188 -0.004 -0.376 -0.006 -0.564 0.001c-0.085 0.003 -0.126 -0.021 -0.151 -0.105c-0.058 -0.189 -0.125 -0.376 -0.194 -0.562c-0.012 -0.033 -0.049 -0.066 -0.082 -0.081c-0.173 -0.081 -0.347 -0.159 -0.523 -0.232c-0.039 -0.016 -0.096 -0.022 -0.134 -0.006c-0.185 0.081 -0.367 0.169 -0.547 0.259c-0.054 0.027 -0.086 0.02 -0.127 -0.023c-0.143 -0.148 -0.288 -0.293 -0.436 -0.436c-0.04 -0.039 -0.044 -0.07 -0.02 -0.119c0.083 -0.168 0.156 -0.341 0.243 -0.508c0.039 -0.076 0.029 -0.132 -0.008 -0.205c-0.077 -0.151 -0.147 -0.306 -0.204 -0.466c-0.025 -0.07 -0.061 -0.103 -0.126 -0.124c-0.188 -0.062 -0.375 -0.13 -0.563 -0.19c-0.057 -0.018 -0.078 -0.044 -0.077 -0.104c0.004 -0.202 0.004 -0.404 0 -0.606c-0.001 -0.065 0.022 -0.093 0.082 -0.113c0.195 -0.063 0.39 -0.13 0.582 -0.201c0.036 -0.014 0.073 -0.051 0.091 -0.086c0.084 -0.171 0.164 -0.345 0.238 -0.52c0.016 -0.038 0.021 -0.095 0.005 -0.132c-0.081 -0.185 -0.169 -0.367 -0.259 -0.547c-0.026 -0.053 -0.022 -0.086 0.022 -0.128c0.146 -0.14 0.29 -0.282 0.428 -0.429c0.047 -0.05 0.083 -0.045 0.137 -0.019c0.181 0.09 0.362 0.178 0.546 0.261c0.035 0.016 0.088 0.012 0.125 -0.002c0.172 -0.064 0.343 -0.132 0.511 -0.206c0.039 -0.017 0.083 -0.053 0.098 -0.091c0.073 -0.18 0.138 -0.364 0.202 -0.548c0.019 -0.057 0.048 -0.076 0.108 -0.075c0.206 0.004 0.411 0.003 0.617 0c0.056 -0.001 0.08 0.021 0.098 0.072c0.062 0.181 0.13 0.359 0.193 0.54c0.02 0.058 0.052 0.087 0.114 0.108c0.171 0.057 0.336 0.131 0.506 0.191c0.04 0.014 0.096 0.018 0.133 0.001c0.181 -0.08 0.36 -0.166 0.537 -0.255c0.056 -0.028 0.091 -0.028 0.137 0.02c0.141 0.149 0.29 0.292 0.43 0.442c0.021 0.022 0.029 0.077 0.016 0.106c-0.085 0.191 -0.18 0.377 -0.264 0.568c-0.015 0.034 -0.011 0.086 0.003 0.124c0.061 0.166 0.132 0.328 0.191 0.494c0.022 0.061 0.047 0.1 0.113 0.122c0.175 0.058 0.345 0.128 0.519 0.187c0.065 0.022 0.086 0.056 0.084 0.123c-0.004 0.195 -0.006 0.39 0.001 0.585c0.002 0.076 -0.028 0.105 -0.093 0.127c-0.177 0.061 -0.354 0.126 -0.527 0.196c-0.036 0.014 -0.072 0.054 -0.086 0.091c-0.072 0.177 -0.138 0.355 -0.201 0.536c-0.012 0.034 -0.008 0.083 0.007 0.116c0.083 0.184 0.174 0.364 0.256 0.548c0.013 0.03 0.012 0.087 -0.008 0.108c-0.062 0.066 -0.126 0.131 -0.189 0.196c-0.09 0.092 -0.182 0.183 -0.27 0.277C5.9 6.294 5.887 6.3 5.875 6.302zM5.162 3.8c0.002 -0.696 -0.558 -1.266 -1.247 -1.268c-0.708 -0.002 -1.276 0.551 -1.278 1.246c-0.003 0.711 0.555 1.278 1.257 1.279C4.596 5.058 5.161 4.499 5.162 3.8z"/></svg>