<svg width="24" height="28" viewBox="0 0 24 28" fill="none" xmlns="http://www.w3.org/2000/svg">
<path d="M16.8 10.1818C24 10.1818 24 15.2727 24 15.2727V17.8182H16.8V15.2727C16.8 15.2727 16.8 13.1218 15.42 11.2C15.216 10.9073 14.964 10.6273 14.7 10.36C15.324 10.2582 16.008 10.1818 16.8 10.1818ZM0 15.2727C0 15.2727 0 10.1818 7.2 10.1818C14.4 10.1818 14.4 15.2727 14.4 15.2727V17.8182H0V15.2727ZM8.4 20.3636V22.9091H15.6V20.3636L19.2 24.1818L15.6 28V25.4545H8.4V28L4.8 24.1818L8.4 20.3636ZM7.2 0C5.208 0 3.6 1.70545 3.6 3.81818C3.6 5.93091 5.208 7.63636 7.2 7.63636C9.192 7.63636 10.8 5.93091 10.8 3.81818C10.8 1.70545 9.192 0 7.2 0ZM16.8 0C14.808 0 13.2 1.70545 13.2 3.81818C13.2 5.93091 14.808 7.63636 16.8 7.63636C18.792 7.63636 20.4 5.93091 20.4 3.81818C20.4 1.70545 18.792 0 16.8 0Z" fill="#717EA0"/>
</svg>
