<svg width="36" height="36" viewBox="0 0 36 36" fill="none" xmlns="http://www.w3.org/2000/svg">
<path d="M24 16.2857L12 9.42855M19.7006 6.97197L28.272 11.8697C28.797 12.1696 29.2334 12.603 29.5368 13.1259C29.8403 13.6489 30.0001 14.2428 30 14.8474V22.8668C30.0001 23.4715 29.8403 24.0654 29.5368 24.5883C29.2334 25.1113 28.797 25.5447 28.272 25.8445L19.7006 30.7423C19.1826 31.0381 18.5965 31.1937 18 31.1937C17.4035 31.1937 16.8174 31.0381 16.2994 30.7423L7.728 25.8445C7.20299 25.5447 6.76662 25.1113 6.46315 24.5883C6.15968 24.0654 5.99989 23.4715 6 22.8668V14.8474C5.99989 14.2428 6.15968 13.6489 6.46315 13.1259C6.76662 12.603 7.20299 12.1696 7.728 11.8697L16.2994 6.97197C16.8174 6.67612 17.4035 6.52051 18 6.52051C18.5965 6.52051 19.1826 6.67612 19.7006 6.97197Z" stroke="black" stroke-width="1.14286" stroke-linecap="round" stroke-linejoin="round"/>
<path d="M6.85718 13.7142L16.3749 18.8399C16.8744 19.1088 17.4328 19.2496 18 19.2496C18.5673 19.2496 19.1257 19.1088 19.6252 18.8399L29.1429 13.7142M18 19.7142V30.8571" stroke="black" stroke-width="1.14286" stroke-linecap="round" stroke-linejoin="round"/>
</svg>
