<svg width="40" height="28" viewBox="0 0 40 28" fill="none" xmlns="http://www.w3.org/2000/svg">
<path d="M32.0022 10.0011C32.0022 9.47106 31.7914 8.96271 31.4163 8.5879C31.0411 8.2131 30.5323 8.00253 30.0018 8.00253H6.81761L11.4184 3.42576C11.7951 3.04942 12.0067 2.53899 12.0067 2.00677C12.0067 1.47454 11.7951 0.96411 11.4184 0.587768C11.0418 0.211427 10.5309 3.9654e-09 9.99819 0C9.46549 -3.9654e-09 8.9546 0.211427 8.57793 0.587768L0.576477 8.58212C0.298912 8.86317 0.110885 9.22006 0.0361233 9.60777C-0.0386385 9.99547 0.00321438 10.3966 0.156401 10.7606C0.306468 11.1256 0.56131 11.438 0.88881 11.6585C1.21631 11.879 1.60181 11.9977 1.99674 11.9997H30.0018C30.5323 11.9997 31.0411 11.7891 31.4163 11.4143C31.7914 11.0395 32.0022 10.5312 32.0022 10.0011ZM39.8436 17.236C39.6935 16.871 39.4387 16.5586 39.1112 16.3381C38.7837 16.1176 38.3982 15.9989 38.0033 15.9969H9.99819C9.46766 15.9969 8.95886 16.2074 8.58372 16.5823C8.20858 16.9571 7.99782 17.4654 7.99782 17.9955C7.99782 18.5255 8.20858 19.0339 8.58372 19.4087C8.95886 19.7835 9.46766 19.9941 9.99819 19.9941H33.1824L28.5816 24.5708C28.3941 24.7566 28.2452 24.9777 28.1437 25.2212C28.0421 25.4648 27.9899 25.726 27.9899 25.9898C27.9899 26.2537 28.0421 26.5149 28.1437 26.7584C28.2452 27.002 28.3941 27.223 28.5816 27.4088C28.7675 27.5961 28.9888 27.7448 29.2325 27.8463C29.4763 27.9478 29.7377 28 30.0018 28C30.2659 28 30.5273 27.9478 30.7711 27.8463C31.0149 27.7448 31.2361 27.5961 31.4221 27.4088L39.4235 19.4145C39.7011 19.1334 39.8891 18.7765 39.9639 18.3888C40.0386 18.0011 39.9968 17.6 39.8436 17.236Z" fill="#317CC5"/>
</svg>
