<svg width="30" height="30" viewBox="0 0 30 30" fill="none" xmlns="http://www.w3.org/2000/svg">
<path d="M21.4125 25.875L26.625 20.7L25.05 19.125L21.4125 22.6875L19.95 21.225L18.375 22.8375L21.4125 25.875ZM4.5 9H22.5V6H4.5V9ZM22.5 30C20.425 30 18.656 29.2685 17.193 27.8055C15.73 26.3425 14.999 24.574 15 22.5C15 20.425 15.7315 18.656 17.1945 17.193C18.6575 15.73 20.426 14.999 22.5 15C24.575 15 26.344 15.7315 27.807 17.1945C29.27 18.6575 30.001 20.426 30 22.5C30 24.575 29.2685 26.344 27.8055 27.807C26.3425 29.27 24.574 30.001 22.5 30ZM0 28.5V3C0 2.175 0.294 1.4685 0.882 0.880502C1.47 0.292502 2.176 -0.000997453 3 2.54669e-06H24C24.825 2.54669e-06 25.5315 0.294003 26.1195 0.882003C26.7075 1.47 27.001 2.176 27 3V13.0125C26.525 12.7875 26.0375 12.6 25.5375 12.45C25.0375 12.3 24.525 12.1875 24 12.1125V3H3V24.075H12.1125C12.2375 24.85 12.4315 25.5875 12.6945 26.2875C12.9575 26.9875 13.301 27.65 13.725 28.275L13.5 28.5L11.25 26.25L9 28.5L6.75 26.25L4.5 28.5L2.25 26.25L0 28.5ZM4.5 21H12.1125C12.1875 20.475 12.3 19.9625 12.45 19.4625C12.6 18.9625 12.7875 18.475 13.0125 18H4.5V21ZM4.5 15H15.15C16.1 14.075 17.2065 13.3435 18.4695 12.8055C19.7325 12.2675 21.076 11.999 22.5 12H4.5V15Z" fill="#822ADC"/>
</svg>
