<svg width="30" height="30" viewBox="0 0 30 30" fill="none" xmlns="http://www.w3.org/2000/svg">
<g clip-path="url(#clip0_425_599)">
<path d="M13.9629 6.42857C13.6787 6.42857 13.4062 6.54145 13.2052 6.74239C13.0043 6.94332 12.8914 7.21584 12.8914 7.5C12.8914 7.78416 13.0043 8.05668 13.2052 8.25761C13.4062 8.45855 13.6787 8.57143 13.9629 8.57143H19.9136L11.0271 17.4557C10.9275 17.5553 10.8485 17.6736 10.7946 17.8037C10.7407 17.9339 10.7129 18.0734 10.7129 18.2143C10.7129 18.3552 10.7407 18.4947 10.7946 18.6248C10.8485 18.755 10.9275 18.8732 11.0271 18.9729C11.1268 19.0725 11.245 19.1515 11.3752 19.2054C11.5053 19.2593 11.6448 19.2871 11.7857 19.2871C11.9266 19.2871 12.0661 19.2593 12.1963 19.2054C12.3264 19.1515 12.4447 19.0725 12.5443 18.9729L21.4286 10.0864V16.0371C21.4286 16.3213 21.5415 16.5938 21.7424 16.7948C21.9433 16.9957 22.2158 17.1086 22.5 17.1086C22.7842 17.1086 23.0567 16.9957 23.2576 16.7948C23.4585 16.5938 23.5714 16.3213 23.5714 16.0371V7.5C23.5714 7.21584 23.4585 6.94332 23.2576 6.74239C23.0567 6.54145 22.7842 6.42857 22.5 6.42857H13.9629ZM20.9271 30C22.2033 30.0003 23.4377 29.545 24.408 28.7161C25.3784 27.8872 26.0209 26.7391 26.22 25.4786C27.3147 25.141 28.2724 24.4615 28.9527 23.5398C29.633 22.6181 30 21.5027 30 20.3571V5.35714C30 3.93634 29.4356 2.57373 28.4309 1.56907C27.4263 0.564412 26.0637 7.03749e-09 24.6429 7.03749e-09H9.64286C8.48464 -5.93289e-05 7.35757 0.375097 6.43044 1.06928C5.50332 1.76347 4.82602 2.73933 4.5 3.85071C3.24373 4.05434 2.10098 4.69856 1.27643 5.668C0.451875 6.63744 -0.000614032 7.86876 6.25385e-07 9.14143V22.5C6.25385e-07 24.4891 0.790177 26.3968 2.1967 27.8033C3.60322 29.2098 5.51088 30 7.5 30H20.9271ZM2.14286 9.14143C2.14207 8.47608 2.34777 7.82688 2.73158 7.28339C3.1154 6.73991 3.65842 6.32893 4.28571 6.10714V20.3571C4.28571 21.7779 4.85013 23.1406 5.85479 24.1452C6.85944 25.1499 8.22206 25.7143 9.64286 25.7143H23.9571C23.7356 26.3409 23.3253 26.8834 22.7826 27.2672C22.24 27.6509 21.5918 27.857 20.9271 27.8571H7.5C6.0792 27.8571 4.71659 27.2927 3.71193 26.2881C2.70727 25.2834 2.14286 23.9208 2.14286 22.5V9.14143ZM9.64286 2.14286H24.6429C25.4953 2.14286 26.3129 2.4815 26.9157 3.0843C27.5185 3.68709 27.8571 4.50466 27.8571 5.35714V20.3571C27.8571 21.2096 27.5185 22.0272 26.9157 22.63C26.3129 23.2328 25.4953 23.5714 24.6429 23.5714H9.64286C8.79038 23.5714 7.97281 23.2328 7.37001 22.63C6.76722 22.0272 6.42857 21.2096 6.42857 20.3571V5.35714C6.42857 4.50466 6.76722 3.68709 7.37001 3.0843C7.97281 2.4815 8.79038 2.14286 9.64286 2.14286Z" fill="#F7842A"/>
</g>
<defs>
<clipPath id="clip0_425_599">
<rect width="30" height="30" fill="white"/>
</clipPath>
</defs>
</svg>
