<svg width="40" height="31" viewBox="0 0 40 31" fill="none" xmlns="http://www.w3.org/2000/svg">
<path d="M17 6.2C16.2121 6.2 15.4319 6.36037 14.7039 6.67195C13.9759 6.98353 13.3145 7.44021 12.7574 8.01594C12.2002 8.59166 11.7583 9.27514 11.4567 10.0274C11.1552 10.7796 11 11.5858 11 12.4C11 13.2142 11.1552 14.0204 11.4567 14.7726C11.7583 15.5249 12.2002 16.2083 12.7574 16.7841C13.3145 17.3598 13.9759 17.8165 14.7039 18.1281C15.4319 18.4396 16.2121 18.6 17 18.6C18.5913 18.6 20.1174 17.9468 21.2426 16.7841C22.3679 15.6213 23 14.0443 23 12.4C23 10.7557 22.3679 9.17866 21.2426 8.01594C20.1174 6.85321 18.5913 6.2 17 6.2ZM14 12.4C14 11.5778 14.3161 10.7893 14.8787 10.208C15.4413 9.62661 16.2044 9.3 17 9.3C17.7956 9.3 18.5587 9.62661 19.1213 10.208C19.6839 10.7893 20 11.5778 20 12.4C20 13.2222 19.6839 14.0107 19.1213 14.592C18.5587 15.1734 17.7956 15.5 17 15.5C16.2044 15.5 15.4413 15.1734 14.8787 14.592C14.3161 14.0107 14 13.2222 14 12.4ZM0 4.65C0 3.41674 0.474106 2.234 1.31802 1.36195C2.16193 0.48991 3.30653 0 4.5 0H29.5C30.0909 0 30.6761 0.120275 31.2221 0.35396C31.768 0.587644 32.2641 0.930161 32.682 1.36195C33.0998 1.79375 33.4313 2.30636 33.6575 2.87052C33.8836 3.43469 34 4.03935 34 4.65V20.15C34 20.7606 33.8836 21.3653 33.6575 21.9295C33.4313 22.4936 33.0998 23.0063 32.682 23.438C32.2641 23.8698 31.768 24.2124 31.2221 24.446C30.6761 24.6797 30.0909 24.8 29.5 24.8H4.5C3.30653 24.8 2.16193 24.3101 1.31802 23.438C0.474106 22.566 0 21.3833 0 20.15V4.65ZM4.5 3.1C4.10218 3.1 3.72064 3.2633 3.43934 3.55398C3.15804 3.84467 3 4.23891 3 4.65V6.2H4.5C4.89782 6.2 5.27936 6.0367 5.56066 5.74602C5.84196 5.45533 6 5.06109 6 4.65V3.1H4.5ZM3 15.5H4.5C5.69347 15.5 6.83807 15.9899 7.68198 16.862C8.52589 17.734 9 18.9167 9 20.15V21.7H25V20.15C25 18.9167 25.4741 17.734 26.318 16.862C27.1619 15.9899 28.3065 15.5 29.5 15.5H31V9.3H29.5C28.3065 9.3 27.1619 8.81009 26.318 7.93805C25.4741 7.066 25 5.88326 25 4.65V3.1H9V4.65C9 5.26065 8.8836 5.86531 8.65746 6.42948C8.43131 6.99364 8.09984 7.50625 7.68198 7.93805C7.26412 8.36984 6.76804 8.71235 6.22208 8.94604C5.67611 9.17972 5.09095 9.3 4.5 9.3H3V15.5ZM31 6.2V4.65C31 4.23891 30.842 3.84467 30.5607 3.55398C30.2794 3.2633 29.8978 3.1 29.5 3.1H28V4.65C28 5.5056 28.672 6.2 29.5 6.2H31ZM31 18.6H29.5C29.1022 18.6 28.7206 18.7633 28.4393 19.054C28.158 19.3447 28 19.7389 28 20.15V21.7H29.5C29.8978 21.7 30.2794 21.5367 30.5607 21.246C30.842 20.9553 31 20.5611 31 20.15V18.6ZM3 20.15C3 21.0056 3.672 21.7 4.5 21.7H6V20.15C6 19.7389 5.84196 19.3447 5.56066 19.054C5.27936 18.7633 4.89782 18.6 4.5 18.6H3V20.15ZM4.802 27.9C5.32861 28.8429 6.08629 29.6259 6.9988 30.1701C7.9113 30.7143 8.94643 31.0005 10 31H30.5C31.7476 31 32.9829 30.7461 34.1355 30.2527C35.2881 29.7594 36.3354 29.0363 37.2175 28.1248C38.0997 27.2132 38.7994 26.131 39.2769 24.94C39.7543 23.749 40 22.4725 40 21.1833V10.3333C40.0003 9.24468 39.7232 8.17513 39.1966 7.23225C38.67 6.28937 37.9124 5.50639 37 4.96207V21.1833C37 22.9647 36.3152 24.6731 35.0962 25.9327C33.8772 27.1924 32.2239 27.9 30.5 27.9H4.802Z" fill="#D21B46"/>
</svg>
