<svg width="49" height="50" viewBox="0 0 49 50" fill="none" xmlns="http://www.w3.org/2000/svg">
<path d="M24.4534 49.4249C19.6205 49.4249 14.8961 47.9918 10.8776 45.3068C6.85915 42.6217 3.72715 38.8053 1.87766 34.3403C0.0281658 29.8752 -0.455746 24.962 0.487117 20.2219C1.42998 15.4818 3.75727 11.1277 7.17468 7.71033C10.5921 4.29291 14.9462 1.96562 19.6862 1.02276C24.4263 0.079899 29.3396 0.56381 33.8046 2.4133C38.2697 4.26279 42.0861 7.3948 44.7711 11.4133C47.4562 15.4317 48.8893 20.1561 48.8893 24.9891C48.8893 31.4699 46.3148 37.6852 41.7322 42.2678C37.1496 46.8504 30.9342 49.4249 24.4534 49.4249ZM24.4534 4.04407C20.3109 4.04407 16.2614 5.27247 12.817 7.57394C9.37262 9.87541 6.68805 13.1466 5.10277 16.9738C3.51749 20.801 3.10271 25.0123 3.91088 29.0753C4.71905 33.1382 6.71386 36.8702 9.64308 39.7994C12.5723 42.7287 16.3043 44.7235 20.3673 45.5316C24.4302 46.3398 28.6415 45.925 32.4687 44.3398C36.2959 42.7545 39.5671 40.0699 41.8686 36.6255C44.17 33.1811 45.3985 29.1316 45.3985 24.9891C45.3985 19.4341 43.1917 14.1067 39.2638 10.1787C35.3358 6.25077 30.0084 4.04407 24.4534 4.04407Z" fill="white"/>
<path d="M32.4659 35.4611L22.709 25.7042V9.27979H26.1998V24.2555L34.9269 33L32.4659 35.4611Z" fill="white"/>
</svg>
