<svg width="35" height="31" viewBox="0 0 35 31" fill="none" xmlns="http://www.w3.org/2000/svg">
<path fill-rule="evenodd" clip-rule="evenodd" d="M22.1455 0.0753032C21.9217 -0.052545 21.6401 -0.0148306 21.4579 0.167381L17.9596 3.66565L5.66683 10.6901L0.390738 12.4488C0.176941 12.5201 0.0249981 12.7103 0.00279158 12.9346C-0.019415 13.1589 0.0922628 13.3752 0.287931 13.4871L5.36791 16.3899C5.341 16.4562 5.32618 16.5287 5.32618 16.6047V21.5759V21.576C5.32607 22.3025 5.51807 23.0161 5.88271 23.6445C6.24736 24.2728 6.77168 24.7936 7.40252 25.1539L7.40259 25.154L16.2736 30.2229L16.2736 30.2229C16.896 30.5784 17.6003 30.7654 18.3171 30.7654C19.0338 30.7654 19.7382 30.5784 20.3605 30.2229L20.3606 30.2229L29.2316 25.154L29.2316 25.1539C29.8625 24.7936 30.3868 24.2728 30.7514 23.6445C31.1161 23.0161 31.3081 22.3025 31.308 21.576V21.5759V13.2763L30.2019 12.5527C30.2196 12.5388 30.2362 12.5239 30.2519 12.5083L31.308 13.2762C31.3081 12.741 31.2038 12.2127 31.0031 11.7203C31.0515 11.6944 31.0967 11.6611 31.1371 11.6208L34.6855 8.07234C34.8114 7.94641 34.8714 7.76896 34.8478 7.59244C34.8242 7.41591 34.7196 7.26051 34.5649 7.17214L22.1455 0.0753032ZM29.3435 9.76458C29.3066 9.7419 29.2693 9.71979 29.2316 9.69825L19.2481 3.99341L21.9574 1.28412L33.3484 7.79324L30.6376 10.504L29.3435 9.76458ZM24.4197 8.26722L28.7597 10.7472C29.1041 10.9613 29.4007 11.2432 29.6318 11.5753C29.613 11.5829 29.5945 11.5916 29.5763 11.6014L29.248 11.7783L24.4197 8.26722ZM18.3454 4.79621L29.1219 11.8462L19.726 16.9063L19.7259 16.9063C19.2922 17.1397 18.8074 17.2619 18.3149 17.2619C17.9799 17.2619 17.6484 17.2054 17.3341 17.0957L7.04731 11.2176L18.315 4.77885L18.3454 4.79621ZM16.1728 17.7484C16.2214 17.8145 16.2851 17.8711 16.3621 17.9126C16.5205 17.9978 16.6838 18.0724 16.8509 18.1359L16.9204 18.1756L13.0526 19.4649L1.9646 13.1289L5.83239 11.8396L16.1728 17.7484ZM17.7435 19.1059V29.5668C17.4275 29.5047 17.1224 29.3916 16.8406 29.2306L16.8405 29.2305L7.96951 24.1617L7.96944 24.1616C7.51358 23.9012 7.13469 23.5249 6.87119 23.0708C6.60769 22.6168 6.46895 22.1011 6.46904 21.5761V21.576V17.0191L12.7074 20.5839C12.8486 20.6646 13.0174 20.6813 13.1716 20.6299L17.7435 19.1059ZM20.2678 17.9125L30.0924 12.6216C30.1406 12.8355 30.1652 13.055 30.1651 13.2761V13.2762V21.576V21.5761C30.1652 22.1011 30.0265 22.6168 29.763 23.0708C29.4995 23.5249 29.1206 23.9012 28.6647 24.1616L28.6646 24.1617L19.7937 29.2305L19.7936 29.2306C19.5105 29.3923 19.2039 29.5057 18.8863 29.5676V18.365C19.3685 18.2974 19.8364 18.1448 20.2677 17.9126L20.2678 17.9125Z" fill="black"/>
</svg>
