<svg width="52" height="54" viewBox="0 0 52 54" fill="none" xmlns="http://www.w3.org/2000/svg">
<path d="M20.0134 0.563904C12.2948 0.563904 6.15957 6.69916 6.15957 14.4177C6.14605 16.6875 6.69363 18.9254 7.75364 20.9326C8.81365 22.9397 10.3532 24.6537 12.2355 25.9223C5.18981 28.9563 0.222229 35.9742 0.222229 44.1044H4.18046C4.18046 35.3963 11.3053 28.2715 20.0134 28.2715C27.7319 28.2715 33.8672 22.1363 33.8672 14.4177C33.8672 6.69916 27.7319 0.563904 20.0134 0.563904ZM20.0134 4.52213C25.5549 4.52213 29.9089 8.87619 29.9089 14.4177C29.9089 19.9592 25.5549 24.3133 20.0134 24.3133C14.4719 24.3133 10.1178 19.9592 10.1178 14.4177C10.1178 8.87619 14.4719 4.52213 20.0134 4.52213ZM36.0442 26.2924V30.4485C34.8567 30.6464 33.6693 31.2402 32.6797 31.8339L29.711 28.8652L26.9403 31.636L29.9089 34.6047C29.1173 35.5942 28.7215 36.7817 28.5236 38.1671H23.9716V42.1253H28.1277C28.3257 43.3128 28.9194 44.5003 29.5131 45.6877L26.5445 48.6564L29.3152 51.4272L32.2839 48.4585C33.2734 49.0522 34.4609 49.6459 35.6484 49.8439V54H39.6066V49.8439C40.7941 49.6459 41.9815 49.0522 42.9711 48.4585L45.9398 51.4272L48.7105 48.6564L45.7419 45.6877C46.5335 44.6982 46.9293 43.5107 47.1272 42.1253H51.6792V38.1671H47.5231C47.3252 36.9796 46.7314 35.7921 46.1377 34.6047L49.1064 31.636L46.3356 28.8652L43.3669 31.8339C42.3774 31.2402 41.1899 30.6464 40.0024 30.4485V26.2924H36.0442ZM37.8254 34.2089C41.1899 34.2089 43.7628 36.7817 43.7628 40.1462C43.7628 43.5107 41.1899 46.0835 37.8254 46.0835C34.4609 46.0835 31.8881 43.5107 31.8881 40.1462C31.8881 36.7817 34.4609 34.2089 37.8254 34.2089ZM37.8254 38.1671C37.5738 38.1702 37.3259 38.2283 37.0991 38.3373C36.8635 38.4492 36.6493 38.6013 36.4658 38.7865C36.2805 38.9701 36.1285 39.1843 36.0165 39.4199C35.9075 39.6467 35.8494 39.8946 35.8463 40.1462C35.8463 40.8884 36.4024 41.6305 37.0991 41.9551C37.3259 42.0641 37.5738 42.1222 37.8254 42.1253C38.815 42.1253 39.8045 41.1358 39.8045 40.1462C39.8045 39.1566 38.815 38.1671 37.8254 38.1671Z" fill="#4C5A81"/>
</svg>
