<svg width="33" height="23" viewBox="0 0 33 23" fill="none" xmlns="http://www.w3.org/2000/svg">
<path d="M21.1224 8.37415L28.3778 4.74726C28.6207 4.62589 28.8906 4.56859 29.1618 4.58081C29.4331 4.59302 29.6967 4.67435 29.9277 4.81706C30.1587 4.95978 30.3494 5.15915 30.4817 5.39626C30.614 5.63337 30.6835 5.90035 30.6837 6.17188V16.9506C30.6835 17.2221 30.614 17.4891 30.4817 17.7262C30.3494 17.9633 30.1587 18.1627 29.9277 18.3054C29.6967 18.4481 29.4331 18.5294 29.1618 18.5416C28.8906 18.5539 28.6207 18.4966 28.3778 18.3752L21.1224 14.7483V8.37415ZM2 5.18707C2 4.34181 2.33578 3.53116 2.93347 2.93347C3.53116 2.33578 4.34181 2 5.18707 2H17.9354C18.7806 2 19.5913 2.33578 20.189 2.93347C20.7867 3.53116 21.1224 4.34181 21.1224 5.18707V17.9354C21.1224 18.7806 20.7867 19.5913 20.189 20.189C19.5913 20.7867 18.7806 21.1224 17.9354 21.1224H5.18707C4.34181 21.1224 3.53116 20.7867 2.93347 20.189C2.33578 19.5913 2 18.7806 2 17.9354V5.18707Z" stroke="#B4588F" stroke-width="3.18707" stroke-linecap="round" stroke-linejoin="round"/>
</svg>
