<svg width="27" height="19" viewBox="0 0 27 19" fill="none" xmlns="http://www.w3.org/2000/svg">
<path d="M17.7662 6.37106L23.8368 3.3364C24.0401 3.23484 24.2659 3.1869 24.4928 3.19713C24.7198 3.20735 24.9404 3.27539 25.1336 3.39481C25.3269 3.51422 25.4865 3.68103 25.5972 3.87943C25.7079 4.07782 25.7661 4.30121 25.7662 4.5284V13.5471C25.7661 13.7743 25.7079 13.9976 25.5972 14.196C25.4865 14.3944 25.3269 14.5612 25.1336 14.6807C24.9404 14.8001 24.7198 14.8681 24.4928 14.8783C24.2659 14.8886 24.0401 14.8406 23.8368 14.7391L17.7662 11.7044V6.37106ZM1.76617 3.7044C1.76617 2.99715 2.04713 2.31888 2.54722 1.81878C3.04732 1.31868 3.7256 1.03773 4.43284 1.03773H15.0995C15.8068 1.03773 16.485 1.31868 16.9851 1.81878C17.4852 2.31888 17.7662 2.99715 17.7662 3.7044V14.3711C17.7662 15.0783 17.4852 15.7566 16.9851 16.2567C16.485 16.7568 15.8068 17.0377 15.0995 17.0377H4.43284C3.7256 17.0377 3.04732 16.7568 2.54722 16.2567C2.04713 15.7566 1.76617 15.0783 1.76617 14.3711V3.7044Z" stroke="#6AAFE0" stroke-width="2" stroke-linecap="round" stroke-linejoin="round"/>
</svg>
