<svg width="32" height="37" viewBox="0 0 32 37" fill="none" xmlns="http://www.w3.org/2000/svg">
<path d="M16.0046 1.46713C16.2741 1.08074 16.6203 0.754034 17.0217 0.507399C17.4231 0.260765 17.871 0.0994951 18.3375 0.0336522C18.804 -0.0321908 19.279 -0.001194 19.733 0.124709C20.1869 0.250611 20.6101 0.468718 20.976 0.765421L28.4503 6.83399C29.1181 7.37593 29.5579 8.14907 29.6824 9.00007C29.8068 9.85107 29.6069 10.7178 29.1223 11.4283H26.3337L27.2251 10.1506C27.3911 9.91389 27.4612 9.62314 27.4213 9.33686C27.3814 9.05058 27.2346 8.79004 27.0103 8.60771L23.1611 5.48542L19.056 11.4283H16.2743L21.3806 4.04085L19.5337 2.54142C19.4118 2.44248 19.2708 2.36973 19.1195 2.3277C18.9682 2.28568 18.8099 2.27527 18.6544 2.29715C18.4989 2.31903 18.3496 2.37271 18.2158 2.45485C18.0819 2.53699 17.9665 2.64582 17.8766 2.77456L11.84 11.426H9.05143L16.0046 1.46713ZM24 25.1426C23.6969 25.1426 23.4062 25.263 23.1919 25.4773C22.9776 25.6916 22.8571 25.9823 22.8571 26.2854C22.8571 26.5885 22.9776 26.8792 23.1919 27.0935C23.4062 27.3079 23.6969 27.4283 24 27.4283H26.2857C26.5888 27.4283 26.8795 27.3079 27.0938 27.0935C27.3082 26.8792 27.4286 26.5885 27.4286 26.2854C27.4286 25.9823 27.3082 25.6916 27.0938 25.4773C26.8795 25.263 26.5888 25.1426 26.2857 25.1426H24ZM3.42857 9.14256H8.38629L6.78629 11.4283H3.42857C3.12547 11.4283 2.83478 11.5487 2.62045 11.763C2.40612 11.9773 2.28571 12.268 2.28571 12.5711C2.28571 12.8742 2.40612 13.1649 2.62045 13.3793C2.83478 13.5936 3.12547 13.714 3.42857 13.714H27.4286C28.641 13.714 29.8038 14.1956 30.6611 15.0529C31.5184 15.9102 32 17.073 32 18.2854V31.9997C32 33.2121 31.5184 34.3749 30.6611 35.2322C29.8038 36.0895 28.641 36.5711 27.4286 36.5711H5.71429C4.19876 36.5711 2.74531 35.9691 1.67368 34.8975C0.602039 33.8258 0 32.3724 0 30.8568V12.5711C0 11.6618 0.361224 10.7898 1.00421 10.1468C1.64719 9.50379 2.51926 9.14256 3.42857 9.14256ZM2.28571 30.8568C2.28571 31.7662 2.64694 32.6382 3.28992 33.2812C3.9329 33.9242 4.80497 34.2854 5.71429 34.2854H27.4286C28.0348 34.2854 28.6162 34.0446 29.0448 33.616C29.4735 33.1873 29.7143 32.6059 29.7143 31.9997V18.2854C29.7143 17.6792 29.4735 17.0978 29.0448 16.6692C28.6162 16.2405 28.0348 15.9997 27.4286 15.9997H3.42857C3.02857 15.9997 2.64229 15.9311 2.28571 15.8054V30.8568Z" fill="white"/>
</svg>
