<svg width="32" height="30" viewBox="0 0 32 30" fill="none" xmlns="http://www.w3.org/2000/svg">
<path d="M30.8435 27.0282C28.8727 23.6057 25.7952 20.939 22.1066 19.4572C23.9409 18.096 25.2959 16.1982 25.9796 14.0326C26.6632 11.8671 26.6409 9.54361 25.9159 7.39129C25.1908 5.23897 23.7997 3.36695 21.9396 2.04039C20.0795 0.713836 17.8447 0 15.5518 0C13.2589 0 11.0242 0.713836 9.16406 2.04039C7.30396 3.36695 5.91285 5.23897 5.18777 7.39129C4.4627 9.54361 4.44041 11.8671 5.12408 14.0326C5.80775 16.1982 7.16271 18.096 8.99702 19.4572C5.3084 20.939 2.23098 23.6057 0.260165 27.0282C0.138046 27.2225 0.056654 27.4391 0.0208283 27.6652C-0.0149975 27.8912 -0.00452612 28.1221 0.0516201 28.344C0.107766 28.566 0.208441 28.7745 0.347659 28.9572C0.486877 29.1399 0.661797 29.293 0.862019 29.4074C1.06224 29.5219 1.28368 29.5954 1.51317 29.6235C1.74265 29.6515 1.97551 29.6337 2.19788 29.571C2.42026 29.5082 2.62762 29.4019 2.80763 29.2583C2.98765 29.1147 3.13664 28.9367 3.24576 28.735C5.85043 24.2803 10.4503 21.6234 15.5518 21.6234C20.6534 21.6234 25.2532 24.2817 27.8579 28.735C28.0944 29.1112 28.4694 29.3818 28.9038 29.4893C29.3382 29.5969 29.7979 29.5331 30.1856 29.3115C30.5733 29.0898 30.8587 28.7277 30.9815 28.3016C31.1043 27.8755 31.0548 27.4189 30.8435 27.0282ZM8.07705 10.8138C8.07705 9.35105 8.51544 7.92111 9.33678 6.70484C10.1581 5.48856 11.3255 4.5406 12.6914 3.98081C14.0572 3.42102 15.5601 3.27455 17.0101 3.55993C18.46 3.84531 19.7919 4.54971 20.8373 5.58407C21.8827 6.61842 22.5946 7.93627 22.883 9.37095C23.1714 10.8056 23.0234 12.2927 22.4576 13.6442C21.8919 14.9956 20.9338 16.1507 19.7046 16.9634C18.4754 17.7761 17.0302 18.2099 15.5518 18.2099C13.5701 18.2076 11.6702 17.4277 10.2689 16.0411C8.86759 14.6546 8.07933 12.7747 8.07705 10.8138Z" fill="white"/>
</svg>
