<svg width="31" height="31" viewBox="0 0 31 31" fill="none" xmlns="http://www.w3.org/2000/svg">
<path d="M17.4009 10.892C17.4009 10.5673 17.2855 10.2558 17.08 10.0261C16.8745 9.7965 16.5958 9.66748 16.3052 9.66748H7.53999C7.24941 9.66748 6.97072 9.7965 6.76525 10.0261C6.55977 10.2558 6.44434 10.5673 6.44434 10.892C6.44434 11.2168 6.55977 11.5283 6.76525 11.7579C6.97072 11.9876 7.24941 12.1166 7.53999 12.1166H16.3052C16.5958 12.1166 16.8745 11.9876 17.08 11.7579C17.2855 11.5283 17.4009 11.2168 17.4009 10.892ZM15.94 15.7903C15.94 15.4655 15.8246 15.154 15.6191 14.9244C15.4136 14.6947 15.135 14.5657 14.8444 14.5657H7.53999C7.24941 14.5657 6.97072 14.6947 6.76525 14.9244C6.55977 15.154 6.44434 15.4655 6.44434 15.7903C6.44434 16.115 6.55977 16.4265 6.76525 16.6562C6.97072 16.8858 7.24941 17.0148 7.53999 17.0148H14.8444C15.135 17.0148 15.4136 16.8858 15.6191 16.6562C15.8246 16.4265 15.94 16.115 15.94 15.7903ZM16.3052 19.4639C16.5958 19.4639 16.8745 19.5929 17.08 19.8226C17.2855 20.0522 17.4009 20.3637 17.4009 20.6885C17.4009 21.0133 17.2855 21.3247 17.08 21.5544C16.8745 21.784 16.5958 21.913 16.3052 21.913H7.53999C7.24941 21.913 6.97072 21.784 6.76525 21.5544C6.55977 21.3247 6.44434 21.0133 6.44434 20.6885C6.44434 20.3637 6.55977 20.0522 6.76525 19.8226C6.97072 19.5929 7.24941 19.4639 7.53999 19.4639H16.3052Z" fill="white"/>
<path fill-rule="evenodd" clip-rule="evenodd" d="M5.94926 30.2917H26.5734C27.7305 30.2917 28.8402 29.825 29.6583 28.9945C30.4765 28.1639 30.9362 27.0373 30.9362 25.8627V17.0048C30.9362 16.6844 30.8108 16.3772 30.5877 16.1507C30.3645 15.9241 30.0619 15.7969 29.7463 15.7969H24.5903V3.22343C24.5903 0.931643 22.0377 -0.401878 20.2005 0.930033L19.9229 1.13135C19.3149 1.56946 18.5876 1.80427 17.842 1.80312C17.0965 1.80196 16.3698 1.5649 15.7632 1.12491C14.7504 0.393191 13.5382 0 12.2951 0C11.0521 0 9.83989 0.393191 8.82712 1.12491C8.22049 1.5649 7.49383 1.80196 6.74827 1.80312C6.00272 1.80427 5.27535 1.56946 4.6674 1.13135L4.38976 0.930033C2.55263 -0.401878 0 0.930033 0 3.22343V24.2522C0 25.8539 0.626796 27.3901 1.7425 28.5227C2.8582 29.6554 4.37142 30.2917 5.94926 30.2917ZM10.2105 3.08976C10.8196 2.6508 11.5482 2.41499 12.2951 2.41499C13.0421 2.41499 13.7706 2.6508 14.3798 3.08976C15.3899 3.82274 16.6001 4.21748 17.8418 4.21892C19.0834 4.22036 20.2945 3.82844 21.3063 3.09781L21.5839 2.89649C21.6432 2.85367 21.7129 2.82821 21.7854 2.82289C21.858 2.81758 21.9306 2.83262 21.9953 2.86638C22.06 2.90013 22.1143 2.95129 22.1522 3.01426C22.1902 3.07723 22.2104 3.1496 22.2106 3.22343V25.8627C22.2106 26.5874 22.3819 27.2719 22.6865 27.8759H5.94926C5.00256 27.8759 4.09463 27.4941 3.4252 26.8145C2.75578 26.1349 2.37971 25.2132 2.37971 24.2522V3.22343C2.3799 3.1496 2.40008 3.07723 2.43806 3.01426C2.47604 2.95129 2.53034 2.90013 2.59503 2.86638C2.65972 2.83262 2.73231 2.81758 2.80485 2.82289C2.8774 2.82821 2.94711 2.85367 3.00636 2.89649L3.28399 3.09781C4.29576 3.82844 5.50689 4.22036 6.74853 4.21892C7.99016 4.21748 9.20041 3.82274 10.2105 3.08976ZM24.5903 25.8627V18.2127H28.5565V25.8627C28.5565 26.3966 28.3475 26.9087 27.9756 27.2862C27.6037 27.6638 27.0993 27.8759 26.5734 27.8759C26.0474 27.8759 25.543 27.6638 25.1711 27.2862C24.7992 26.9087 24.5903 26.3966 24.5903 25.8627Z" fill="white"/>
</svg>
