<svg width="35" height="35" viewBox="0 0 35 35" fill="none" xmlns="http://www.w3.org/2000/svg">
<path d="M17.8333 33.6667C26.5778 33.6667 33.6667 26.5778 33.6667 17.8333C33.6667 9.08882 26.5778 2 17.8333 2C9.08882 2 2 9.08882 2 17.8333C2 26.5778 9.08882 33.6667 17.8333 33.6667Z" stroke="white" stroke-width="2.375"/>
<path d="M17.834 8.3335V27.3335M22.584 13.8752C22.584 11.6902 20.4576 9.91683 17.834 9.91683C15.2104 9.91683 13.084 11.6902 13.084 13.8752C13.084 16.0602 15.2104 17.8335 17.834 17.8335C20.4576 17.8335 22.584 19.6068 22.584 21.7918C22.584 23.9768 20.4576 25.7502 17.834 25.7502C15.2104 25.7502 13.084 23.9768 13.084 21.7918" stroke="white" stroke-width="2.375" stroke-linecap="round"/>
</svg>
