<svg width="32" height="32" viewBox="0 0 32 32" fill="none" xmlns="http://www.w3.org/2000/svg">
<path d="M12.3887 2.79949C13.3067 2.01823 13.7657 1.6276 14.2442 1.39811C14.7923 1.13603 15.3921 1 15.9996 1C16.6071 1 17.2069 1.13603 17.755 1.39811C18.2351 1.62598 18.6941 2.0166 19.6104 2.79949C19.9767 3.11199 20.1589 3.26661 20.3543 3.39682C20.8015 3.69658 21.3039 3.9046 21.8321 4.0088C22.0616 4.05437 22.3009 4.07391 22.7794 4.11297C23.9822 4.20737 24.5828 4.2562 25.0841 4.43361C25.6567 4.63567 26.1768 4.96332 26.6063 5.39253C27.0358 5.82174 27.3638 6.34164 27.5662 6.91409C27.7436 7.41702 27.7908 8.01761 27.8869 9.21879C27.9243 9.69731 27.9438 9.93656 27.9894 10.1677C28.0936 10.695 28.3019 11.198 28.6014 11.6439C28.7316 11.8392 28.8878 12.0215 29.1987 12.3877C29.98 13.3057 30.3722 13.7647 30.6017 14.2432C30.8638 14.7913 30.9998 15.3911 30.9998 15.9986C30.9998 16.6061 30.8638 17.2059 30.6017 17.754C30.3738 18.2325 29.9816 18.6915 29.1987 19.6095C28.9859 19.8461 28.7865 20.0944 28.6014 20.3533C28.3017 20.8 28.0937 21.3018 27.9894 21.8295C27.9438 22.0606 27.9243 22.2999 27.8869 22.7784C27.7908 23.9796 27.7436 24.5818 27.5662 25.0831C27.3638 25.6556 27.0358 26.1755 26.6063 26.6047C26.1768 27.0339 25.6567 27.3615 25.0841 27.5636C24.5828 27.7426 23.9822 27.7898 22.7794 27.8842C22.3009 27.9233 22.0633 27.9428 21.8321 27.9884C21.3039 28.0926 20.8015 28.3006 20.3543 28.6004C20.0959 28.7856 19.8482 28.985 19.6121 29.1977C18.6941 29.979 18.2351 30.3696 17.7566 30.5991C17.2085 30.8612 16.6087 30.9972 16.0012 30.9972C15.3937 30.9972 14.7939 30.8612 14.2458 30.5991C13.7657 30.3712 13.3067 29.9806 12.3904 29.1977C12.1537 28.985 11.9054 28.7855 11.6465 28.6004C11.1993 28.3006 10.6969 28.0926 10.1687 27.9884C9.85508 27.9362 9.53883 27.9014 9.22139 27.8842C8.01859 27.7898 7.418 27.741 6.91669 27.5636C6.34411 27.3615 5.824 27.0339 5.39451 26.6047C4.96502 26.1755 4.63703 25.6556 4.43458 25.0831C4.25718 24.5818 4.20997 23.9796 4.11395 22.7784C4.09769 22.4604 4.06345 22.1436 4.01141 21.8295C3.907 21.3018 3.69899 20.8001 3.39942 20.3533C3.26921 20.158 3.11296 19.9757 2.80209 19.6095C2.02084 18.6915 1.62858 18.2325 1.39909 17.754C1.13701 17.2059 1.00098 16.6061 1.00098 15.9986C1.00098 15.3911 1.13701 14.7913 1.39909 14.2432C1.62858 13.7647 2.01921 13.3057 2.80209 12.3877C3.11296 12.0215 3.26921 11.8392 3.39942 11.6439C3.69899 11.1971 3.907 10.6954 4.01141 10.1677C4.05698 9.93656 4.07651 9.69731 4.11395 9.21879C4.20997 8.01761 4.25718 7.41702 4.43458 6.91409C4.6372 6.34147 4.96543 5.82147 5.39522 5.39225C5.82501 4.96302 6.34543 4.63547 6.91832 4.43361C7.41963 4.2562 8.02021 4.20737 9.22302 4.11297C9.70154 4.07391 9.93917 4.05437 10.1703 4.0088C10.6986 3.9046 11.2009 3.69658 11.6482 3.39682C11.8435 3.26661 12.0241 3.11199 12.3887 2.79949Z" stroke="white" stroke-width="1.44228"/>
<path d="M11.1182 20.8824L20.8838 11.1167" stroke="white" stroke-width="1.44228" stroke-linecap="round"/>
<path d="M21.697 20.0684C21.697 20.5001 21.5255 20.9141 21.2203 21.2193C20.915 21.5245 20.5011 21.696 20.0694 21.696C19.6377 21.696 19.2237 21.5245 18.9185 21.2193C18.6133 20.9141 18.4418 20.5001 18.4418 20.0684C18.4418 19.6367 18.6133 19.2227 18.9185 18.9175C19.2237 18.6123 19.6377 18.4408 20.0694 18.4408C20.5011 18.4408 20.915 18.6123 21.2203 18.9175C21.5255 19.2227 21.697 19.6367 21.697 20.0684ZM13.5589 11.9303C13.5589 12.362 13.3875 12.776 13.0822 13.0812C12.777 13.3865 12.363 13.558 11.9313 13.558C11.4997 13.558 11.0857 13.3865 10.7804 13.0812C10.4752 12.776 10.3037 12.362 10.3037 11.9303C10.3037 11.4987 10.4752 11.0847 10.7804 10.7795C11.0857 10.4742 11.4997 10.3027 11.9313 10.3027C12.363 10.3027 12.777 10.4742 13.0822 10.7795C13.3875 11.0847 13.5589 11.4987 13.5589 11.9303Z" fill="white"/>
</svg>
