<svg width="29" height="30" viewBox="0 0 29 30" fill="none" xmlns="http://www.w3.org/2000/svg">
<path d="M14.6532 0C9.76825 0 5.78302 4.06057 5.78302 9.03784C5.78302 12.1094 7.31629 14.8272 9.6238 16.4618C4.42208 18.5301 0.714355 23.6946 0.714355 29.6958H3.24869C3.24869 24.0174 7.29221 19.2713 12.594 18.2771L13.386 20.6579H15.9203L16.7123 18.2771C22.0141 19.2713 26.0577 24.0174 26.0577 29.6958H28.592C28.592 23.6946 24.8843 18.5301 19.6826 16.4618C21.9888 14.8272 23.5233 12.1094 23.5233 9.03784C23.5233 4.06057 19.5381 0 14.6532 0ZM14.6532 2.58224C18.167 2.58224 20.989 5.45756 20.989 9.03784C20.989 12.6181 18.167 15.4934 14.6532 15.4934C11.1393 15.4934 8.31735 12.6181 8.31735 9.03784C8.31735 5.45756 11.1393 2.58224 14.6532 2.58224ZM13.386 21.949L12.1188 29.6958H17.1875L15.9203 21.949H13.386Z" fill="white"/>
</svg>
