<svg width="21" height="15" viewBox="0 0 21 15" fill="none" xmlns="http://www.w3.org/2000/svg">
    <path
        d="M20.4354 4.96371L16.4354 0.963708C16.3421 0.87047 16.2314 0.796509 16.1096 0.746049C15.9878 0.695589 15.8572 0.669617 15.7254 0.669617C15.4591 0.669617 15.2037 0.775405 15.0154 0.963708C14.8271 1.15201 14.7213 1.40741 14.7213 1.67371C14.7213 1.94001 14.8271 2.1954 15.0154 2.38371L17.3154 4.67371H5.72536C5.46014 4.67371 5.20579 4.77907 5.01825 4.9666C4.83072 5.15414 4.72536 5.40849 4.72536 5.67371C4.72536 5.93892 4.83072 6.19328 5.01825 6.38082C5.20579 6.56835 5.46014 6.67371 5.72536 6.67371H19.7254C19.9228 6.67272 20.1155 6.61332 20.2792 6.50299C20.4429 6.39265 20.5703 6.23633 20.6454 6.05371C20.7219 5.8716 20.7429 5.67088 20.7055 5.47689C20.6681 5.28291 20.5741 5.10433 20.4354 4.96371ZM15.7254 8.67371H1.72536C1.52793 8.67469 1.33522 8.7341 1.1715 8.84443C1.00778 8.95476 0.880379 9.11109 0.805359 9.29371C0.72878 9.47582 0.707857 9.67653 0.745231 9.87052C0.782605 10.0645 0.876602 10.2431 1.01536 10.3837L5.01536 14.3837C5.10832 14.4774 5.21892 14.5518 5.34078 14.6026C5.46264 14.6534 5.59335 14.6795 5.72536 14.6795C5.85737 14.6795 5.98808 14.6534 6.10994 14.6026C6.2318 14.5518 6.3424 14.4774 6.43536 14.3837C6.52909 14.2907 6.60348 14.1801 6.65425 14.0583C6.70502 13.9364 6.73116 13.8057 6.73116 13.6737C6.73116 13.5417 6.70502 13.411 6.65425 13.2891C6.60348 13.1673 6.52909 13.0567 6.43536 12.9637L4.13536 10.6737H15.7254C15.9906 10.6737 16.2449 10.5684 16.4325 10.3808C16.62 10.1933 16.7254 9.93892 16.7254 9.67371C16.7254 9.40849 16.62 9.15414 16.4325 8.9666C16.2449 8.77907 15.9906 8.67371 15.7254 8.67371Z"
        fill="#6AAFE0" />
</svg>